<?xml version="1.0" encoding="UTF-8" standalone="no"?>
<svg
   xmlns:dc="http://purl.org/dc/elements/1.1/"
   xmlns:cc="http://creativecommons.org/ns#"
   xmlns:rdf="http://www.w3.org/1999/02/22-rdf-syntax-ns#"
   xmlns:svg="http://www.w3.org/2000/svg"
   xmlns="http://www.w3.org/2000/svg"
   xmlns:xlink="http://www.w3.org/1999/xlink"
   xmlns:sodipodi="http://sodipodi.sourceforge.net/DTD/sodipodi-0.dtd"
   xmlns:inkscape="http://www.inkscape.org/namespaces/inkscape"
   sodipodi:docname="Pinkquillplant.svg"
   inkscape:version="1.0 (4035a4fb49, 2020-05-01)"
   id="svg1577"
   version="1.1"
   viewBox="0 0 75 75"
   height="75mm"
   width="75mm"
   inkscape:export-filename="C:\Program Files (x86)\Steam\steamapps\common\RimWorld\Mods\rimworldmod-houseplants\Textures\Things\Plant\Pinkquillplant\Pinkquillplant.png"
   inkscape:export-xdpi="96.136154"
   inkscape:export-ydpi="96.136154">
  <defs
     id="defs1571">
    <linearGradient
       id="linearGradient7614"
       inkscape:collect="always">
      <stop
         id="stop7610"
         offset="0"
         style="stop-color:#2c2ca0;stop-opacity:1" />
      <stop
         id="stop7612"
         offset="1"
         style="stop-color:#442178;stop-opacity:1" />
    </linearGradient>
    <linearGradient
       inkscape:collect="always"
       id="linearGradient887">
      <stop
         style="stop-color:#002b11;stop-opacity:1;"
         offset="0"
         id="stop883" />
      <stop
         style="stop-color:#005522;stop-opacity:1"
         offset="1"
         id="stop885" />
    </linearGradient>
    <linearGradient
       inkscape:collect="always"
       id="linearGradient871">
      <stop
         style="stop-color:#2d5016;stop-opacity:1"
         offset="0"
         id="stop867" />
      <stop
         style="stop-color:#17280b;stop-opacity:1"
         offset="1"
         id="stop869" />
    </linearGradient>
    <linearGradient
       inkscape:collect="always"
       xlink:href="#linearGradient871"
       id="linearGradient873"
       x1="152.42061"
       y1="226.28935"
       x2="149.98613"
       y2="225.01639"
       gradientUnits="userSpaceOnUse"
       spreadMethod="reflect" />
    <linearGradient
       inkscape:collect="always"
       xlink:href="#linearGradient887"
       id="linearGradient889"
       x1="140.77922"
       y1="214.02603"
       x2="137.64636"
       y2="215.104"
       gradientUnits="userSpaceOnUse"
       spreadMethod="reflect" />
    <linearGradient
       gradientTransform="matrix(-1,0,0,0.80849034,294.1088,51.823013)"
       inkscape:collect="always"
       xlink:href="#linearGradient887"
       id="linearGradient889-5"
       x1="140.77922"
       y1="214.02603"
       x2="137.64636"
       y2="215.104"
       gradientUnits="userSpaceOnUse"
       spreadMethod="reflect" />
    <radialGradient
       gradientUnits="userSpaceOnUse"
       gradientTransform="matrix(0.02938547,-0.0126596,-0.01843804,-0.04279853,152.18156,221.35358)"
       r="88.356611"
       fy="-7.4626079"
       fx="-156.0618"
       cy="-7.4626079"
       cx="-156.0618"
       id="radialGradient7616"
       xlink:href="#linearGradient7614"
       inkscape:collect="always" />
    <radialGradient
       r="88.356611"
       fy="-7.4626079"
       fx="-156.0618"
       cy="-7.4626079"
       cx="-156.0618"
       gradientTransform="matrix(0.02938547,-0.0126596,-0.01843804,-0.04279853,152.18156,221.35358)"
       gradientUnits="userSpaceOnUse"
       id="radialGradient7992"
       xlink:href="#linearGradient7614"
       inkscape:collect="always" />
  </defs>
  <sodipodi:namedview
     inkscape:window-maximized="1"
     inkscape:window-y="-8"
     inkscape:window-x="-8"
     inkscape:window-height="1137"
     inkscape:window-width="1920"
     fit-margin-bottom="1"
     fit-margin-right="1"
     fit-margin-left="1"
     lock-margins="true"
     fit-margin-top="1"
     showgrid="false"
     inkscape:document-rotation="0"
     inkscape:current-layer="g3593"
     inkscape:document-units="mm"
     inkscape:cy="107.58576"
     inkscape:cx="62.244067"
     inkscape:zoom="1.896451"
     inkscape:pageshadow="2"
     inkscape:pageopacity="0.0"
     borderopacity="1.0"
     bordercolor="#666666"
     pagecolor="#ffffff"
     id="base"
     showguides="true"
     inkscape:guide-bbox="true">
    <sodipodi:guide
       position="8.4416543,19.285081"
       orientation="0,-1"
       id="guide4666" />
    <sodipodi:guide
       position="46.559378,24.063244"
       orientation="1,0"
       id="guide4670" />
    <sodipodi:guide
       position="28.806382,39.485282"
       orientation="1,0"
       id="guide1211" />
    <sodipodi:guide
       id="guide7472"
       orientation="0,-1"
       position="-30.09041,40.530283" />
  </sodipodi:namedview>
  <metadata
     id="metadata1574">
    <rdf:RDF>
      <cc:Work
         rdf:about="">
        <dc:format>image/svg+xml</dc:format>
        <dc:type
           rdf:resource="http://purl.org/dc/dcmitype/StillImage" />
        <dc:title></dc:title>
      </cc:Work>
    </rdf:RDF>
  </metadata>
  <g
     transform="translate(-120.40113,-201.31166)"
     id="layer1"
     inkscape:groupmode="layer"
     inkscape:label="Layer 1">
    <g
       id="g3593"
       transform="matrix(-1,0,0,1,302.75893,0.52916667)">
      <path
         style="fill:#338000;fill-opacity:1;stroke:#000000;stroke-width:1.5;stroke-linecap:square;stroke-miterlimit:4;stroke-dasharray:none;stroke-opacity:1;paint-order:markers fill stroke"
         id="path7920"
         d="m 144.28959,246.91101 c 0.0979,-0.84239 0.3319,-1.67519 0.62595,-2.46911 0.13284,-0.35869 0.28768,-0.70884 0.43153,-1.06327 0.7785,-1.28353 1.29587,-2.26133 2.33153,-3.39886 0.64352,-0.70684 1.3297,-1.38087 2.07514,-1.97928 1.79063,-1.43747 3.99764,-2.72024 6.06526,-3.69504 1.10916,-0.52289 2.26851,-0.9319 3.40276,-1.39785 2.39004,-0.71466 3.92783,-1.31893 6.41041,-1.52265 1.69559,-0.13913 3.98626,0.0324 5.6563,0.45987 4.61523,1.06344 5.57537,2.64508 6.57739,4.20741 -3.15534,-1.59625 -4.17331,-1.99813 -6.81791,-2.74731 -1.49075,-0.39284 -3.65243,-0.57879 -5.16772,-0.46112 -2.35419,0.18278 -3.82754,0.75971 -6.09759,1.43317 -1.0889,0.44461 -2.20158,0.83498 -3.2667,1.33387 -1.0524,0.49295 -2.08251,1.03772 -3.0777,1.63781 -1.80729,1.0898 -3.16878,2.08939 -4.58161,3.62667 -0.91664,0.99737 -1.44096,1.93919 -2.13931,3.06201 -0.4127,1.0071 -0.83883,2.04013 -0.9565,3.13247 -0.11228,1.04032 -1.58351,0.88153 -1.47123,-0.15879 z"
         sodipodi:nodetypes="cscccccscccccccsccc" />
      <path
         style="fill:#338000;fill-opacity:1;stroke:#000000;stroke-width:1.5;stroke-linecap:square;stroke-miterlimit:4;stroke-dasharray:none;stroke-opacity:1;paint-order:markers fill stroke"
         id="path7922"
         d="m 145.10166,246.98669 c 1.28318,-0.73189 2.71786,-1.10113 4.16315,-1.35689 2.19303,-0.38809 2.99841,-0.40613 5.28933,-0.61076 2.54499,-0.0424 3.77054,-0.14185 6.32762,0.1433 3.29947,0.36786 6.58248,1.19646 9.64652,2.47955 0.92676,0.38811 1.80873,0.87551 2.71312,1.31326 3.95548,2.18208 6.15794,4.35749 7.06157,7.41471 -2.28609,-2.32104 -5.42871,-4.6367 -7.7081,-6.08364 -0.8565,-0.41753 -1.69136,-0.88273 -2.56948,-1.25263 -2.93053,-1.23437 -6.07557,-2.03703 -9.23365,-2.39422 -2.46418,-0.2787 -3.65329,-0.18393 -6.10655,-0.14633 -2.28085,0.20186 -2.93806,0.20822 -5.10904,0.58346 -1.24962,0.21598 -2.47451,0.52307 -3.6056,1.10805 -0.84698,0.6144 -1.71587,-0.58342 -0.86889,-1.19782 z"
         sodipodi:nodetypes="cccccccccscsccc" />
      <path
         style="fill:#338000;fill-opacity:1;stroke:#000000;stroke-width:1.5;stroke-linecap:square;stroke-miterlimit:4;stroke-dasharray:none;stroke-opacity:1;paint-order:markers fill stroke"
         id="path7924"
         d="m 144.75187,247.03077 c 0.0962,-0.029 0.19051,-0.0652 0.28859,-0.0871 0.6804,-0.15189 1.27467,-0.23956 1.97497,-0.33214 0.89173,-0.11788 1.87385,-0.23865 2.77246,-0.2319 0.5521,0.004 1.10217,0.0674 1.65327,0.10098 0.60625,0.12468 1.22232,0.20873 1.8188,0.37402 2.08192,0.57694 4.04645,1.58889 5.80514,2.8338 1.65554,1.17192 2.11097,1.71732 3.5729,3.12449 0.86524,0.87145 4.58547,4.49055 5.68609,10.60639 -2.18344,-3.79203 -4.38795,-7.03865 -6.71381,-9.54172 -0.5408,-0.5236 -1.05755,-1.07322 -1.62238,-1.57081 -2.02923,-1.78762 -4.41769,-3.25646 -7.0319,-4.00391 -0.52757,-0.15085 -1.07299,-0.23033 -1.60949,-0.3455 -0.4942,-0.0333 -0.98732,-0.0946 -1.48264,-0.0999 -0.86002,-0.009 -1.78187,0.10642 -2.63372,0.2182 -0.45461,0.0596 -1.26754,0.17542 -1.76208,0.28467 -0.10297,0.0228 -0.2019,0.0609 -0.30286,0.0914 -1.00471,0.29228 -1.41806,-1.1286 -0.41334,-1.42088 z"
         sodipodi:nodetypes="ccssccsccccsccscccc" />
      <path
         style="fill:#338000;fill-opacity:1;stroke:#000000;stroke-width:1.5;stroke-linecap:square;stroke-miterlimit:4;stroke-dasharray:none;stroke-opacity:1;paint-order:markers fill stroke"
         id="path7926"
         d="m 143.89399,247.08326 c 0.008,-0.22377 0.0264,-0.5179 -0.004,-0.73082 -0.1683,-1.15456 -0.65276,-2.29638 -1.19498,-3.31655 -0.28623,-0.53854 -0.62375,-1.0482 -0.93563,-1.57231 -0.41185,-0.53493 -0.78866,-1.09879 -1.23555,-1.6048 -1.42451,-1.61295 -3.19538,-2.96172 -5.21524,-3.74277 -2.04246,-0.78979 -2.69595,-0.67728 -4.92254,-0.87168 -1.09739,0.0667 -2.19867,0.0864 -3.2922,0.20013 -2.8549,0.0515 -10.89828,2.06065 -13.51108,2.46559 6.77442,-3.53863 12.0698,-3.80091 13.42502,-3.94287 1.16743,-0.11701 2.34288,-0.13094 3.5143,-0.19636 2.49472,0.24165 3.17079,0.11865 5.45733,1.02619 2.21687,0.8799 4.15928,2.37699 5.71925,4.16206 0.48279,0.55245 0.88938,1.1671 1.33407,1.75064 0.33594,0.57013 0.70037,1.1244 1.00783,1.71038 0.63583,1.21179 1.14984,2.5224 1.3285,3.88647 0.0331,0.25298 0.013,0.59038 0.003,0.85724 -0.057,1.04482 -1.53454,0.96426 -1.47758,-0.0805 z"
         sodipodi:nodetypes="ccsccscccccsscscccc" />
      <path
         style="fill:#338000;fill-opacity:1;stroke:#000000;stroke-width:1.5;stroke-linecap:square;stroke-miterlimit:4;stroke-dasharray:none;stroke-opacity:1;paint-order:markers fill stroke"
         id="path7928"
         d="m 144.38867,247.97599 c -0.0855,-0.32525 -0.13351,-0.69325 -0.32432,-0.97991 -0.16794,-0.25228 -0.37421,-0.47753 -0.5781,-0.70175 -0.99799,-1.09751 -0.97235,-0.99805 -2.17771,-1.98214 -1.21942,-0.71133 -1.84773,-1.17498 -3.24416,-1.5716 -2.23072,-0.63361 -4.68816,-0.614 -6.96849,-0.32899 -0.80812,0.10101 -1.60407,0.28283 -2.4061,0.42424 -2.67301,0.45672 -5.36088,1.35012 -11.05808,4.24849 3.67886,-3.99863 9.59419,-5.41752 10.80338,-5.7062 0.85138,-0.14748 1.69635,-0.33861 2.55415,-0.44246 2.52858,-0.30612 5.16782,-0.29126 7.63157,0.43377 1.57389,0.46318 2.25401,0.98059 3.62716,1.79947 0.44988,0.37177 0.92047,0.71983 1.34963,1.11533 0.62273,0.57394 1.38669,1.41792 1.83818,2.15608 0.26331,0.43053 0.35375,1.01916 0.43246,1.5108 0.0176,1.0462 -1.46194,1.07113 -1.47957,0.0249 z"
         sodipodi:nodetypes="sssccscccssccscss" />
      <path
         style="fill:#338000;fill-opacity:1;stroke:#000000;stroke-width:1.5;stroke-linecap:square;stroke-miterlimit:4;stroke-dasharray:none;stroke-opacity:1;paint-order:markers fill stroke"
         id="path7930"
         d="m 145.51365,245.70743 c 0.79457,0.22661 1.54402,0.59462 2.19344,1.10888 0.2249,0.1781 0.43077,0.379 0.64615,0.5685 0.63307,0.77282 0.99563,1.14082 1.47222,2.05764 0.82963,1.59596 1.37293,3.48916 1.70705,5.24892 0.12154,0.64013 0.18879,1.28939 0.2832,1.93408 0.0391,1.03968 0.15941,5.18248 -1.18637,7.85892 0.0873,-4.88705 -0.0885,-5.9216 -0.27806,-7.64652 -0.0866,-0.60352 -0.14773,-1.21127 -0.25989,-1.81056 -0.2917,-1.55875 -0.79653,-3.37576 -1.51864,-4.79719 -0.38023,-0.74846 -0.70556,-1.10739 -1.20284,-1.73952 -0.1724,-0.15535 -0.33727,-0.31948 -0.51718,-0.46606 -0.50285,-0.40968 -1.08327,-0.70195 -1.70431,-0.88311 -1.01398,-0.25827 -0.64872,-1.69227 0.36526,-1.43398 z"
         sodipodi:nodetypes="cscssccccsccccc" />
      <path
         style="fill:#338000;fill-opacity:1;stroke:#000000;stroke-width:1.5;stroke-linecap:square;stroke-miterlimit:4;stroke-dasharray:none;stroke-opacity:1;paint-order:markers fill stroke"
         id="path7932"
         d="m 145.35839,247.63804 c -0.0746,0.0248 -0.15265,0.041 -0.22372,0.0746 -0.90015,0.42607 -1.719,1.28081 -2.33166,2.03979 -0.26418,0.32727 -0.49753,0.67829 -0.74629,1.01745 -1.77701,2.38849 -2.47411,6.77936 -3.90462,11.1974 -0.30726,-5.39137 1.32211,-9.95167 2.71391,-12.07609 0.27971,-0.37702 0.54217,-0.76747 0.83917,-1.13103 0.80446,-0.98479 1.80593,-1.97097 3.00126,-2.46403 0.13396,-0.0552 0.27867,-0.0795 0.418,-0.11935 1.03322,-0.16539 1.26713,1.29578 0.23392,1.46118 z"
         sodipodi:nodetypes="ccscccccccc" />
      <path
         style="fill:#338000;fill-opacity:1;stroke:#000000;stroke-width:1.5;stroke-linecap:square;stroke-miterlimit:4;stroke-dasharray:none;stroke-opacity:1;paint-order:markers fill stroke"
         id="path7934"
         d="m 144.48945,247.17872 c 1.012,0.24623 1.91769,0.87039 2.55744,1.68973 0.22454,0.28755 0.40257,0.60856 0.60385,0.91284 0.17549,0.37025 0.37457,0.73021 0.52649,1.11074 0.558,1.49206 1.25902,4.70579 0.68307,8.55396 -0.73734,-3.89731 -1.21838,-5.81249 -2.02387,-7.92782 -0.12302,-0.31879 -0.28487,-0.62118 -0.42731,-0.93178 -0.1516,-0.23996 -0.28725,-0.49078 -0.4548,-0.71989 -0.41771,-0.5712 -1.0243,-1.02575 -1.70503,-1.22758 -1.03249,-0.16981 -0.79234,-1.62997 0.24015,-1.46016 z"
         sodipodi:nodetypes="csccccccccc" />
      <path
         style="fill:#338000;fill-opacity:1;stroke:#000000;stroke-width:1.5;stroke-linecap:square;stroke-miterlimit:4;stroke-dasharray:none;stroke-opacity:1;paint-order:markers fill stroke"
         id="path7936"
         d="m 145.61356,247.22291 c -0.6041,0.0572 -0.46429,0.0328 -1.2267,0.17901 -0.34471,0.0662 -0.6922,0.12196 -1.03132,0.21239 -0.95493,0.25461 -1.81544,0.58524 -2.71241,1.00726 -0.5174,0.24344 -1.01557,0.52578 -1.52336,0.78866 -5.07503,3.40549 -5.49698,4.64859 -8.38231,7.56497 0.89792,-3.6588 6.53916,-8.19424 7.7038,-8.88002 0.54368,-0.27961 1.0769,-0.58059 1.63104,-0.83886 1.01588,-0.47347 1.90881,-0.80662 2.98533,-1.0915 0.35537,-0.094 0.71906,-0.15363 1.08034,-0.2216 0.87521,-0.16467 0.73107,-0.13773 1.45067,-0.19987 1.04621,-0.0176 1.07113,1.46194 0.0249,1.47956 z"
         sodipodi:nodetypes="ccsscccsssccc" />
      <path
         style="fill:#338000;fill-opacity:1;stroke:#000000;stroke-width:1.5;stroke-linecap:square;stroke-miterlimit:4;stroke-dasharray:none;stroke-opacity:1;paint-order:markers fill stroke"
         id="path7938"
         d="m 144.15862,244.89543 c -0.13087,-0.0247 -0.26059,-0.0567 -0.39264,-0.074 -1.32357,-0.17414 -2.68159,-0.18039 -4.01162,-0.1471 -0.79479,0.0195 -1.59115,0.034 -2.3826,0.10911 -0.91559,0.0873 -1.82207,0.25246 -2.73309,0.37868 -0.94737,0.21162 -1.90526,0.38067 -2.84209,0.63486 -2.54573,0.69072 -5.28539,1.75535 -7.50408,3.20467 -1.90064,1.12849 -4.42827,4.15455 -8.11469,7.05957 0.83341,-3.24465 6.37988,-7.68793 7.39462,-8.35234 2.34246,-1.51809 5.21935,-2.63337 7.9028,-3.35637 0.97645,-0.26308 1.97466,-0.43759 2.96198,-0.65638 0.95578,-0.13031 1.90699,-0.30036 2.86736,-0.39094 0.81413,-0.0768 1.63323,-0.0912 2.45075,-0.11057 1.55246,-0.0369 3.135,-0.0277 4.66902,0.24555 1.02936,0.18789 0.76363,1.64361 -0.26572,1.45572 z"
         sodipodi:nodetypes="cccccccccscccccc" />
      <path
         style="fill:#338000;fill-opacity:1;stroke:#000000;stroke-width:1.5;stroke-linecap:square;stroke-miterlimit:4;stroke-dasharray:none;stroke-opacity:1;paint-order:markers fill stroke"
         id="path7940"
         d="m 144.33388,245.0788 c -0.39062,-1.31705 -0.85253,-2.61698 -1.38508,-3.88354 -0.24102,-0.57319 -0.50826,-1.13501 -0.76239,-1.70251 -0.3383,-0.6305 -0.64318,-1.28011 -1.0149,-1.8915 -0.41031,-0.67484 -0.83829,-1.34259 -1.32807,-1.96217 -1.06869,-1.35187 -2.43115,-2.69796 -3.90428,-3.60637 -4.14066,-2.33616 -9.62463,-2.72955 -17.37397,-4.79653 11.41905,0.28849 15.99379,2.42916 18.29157,3.63559 1.59568,1.00182 3.05576,2.46384 4.21349,3.93985 0.51837,0.66087 0.97098,1.37252 1.40581,2.09112 0.38857,0.64215 0.70747,1.32393 1.06121,1.9859 0.26362,0.59023 0.54052,1.17471 0.79087,1.7707 0.20615,0.49078 0.38982,0.99072 0.57819,1.48859 0.3219,0.85073 0.62318,1.70878 0.8665,2.58557 0.24417,1.01747 -1.19477,1.36277 -1.43894,0.3453 z"
         sodipodi:nodetypes="sscsscccsscsscss" />
      <path
         d="m 148.67894,245.04032 c 0.0881,-0.32687 0.13342,-0.69574 0.33966,-0.98609 0.18145,-0.25554 0.4062,-0.48481 0.62832,-0.713 1.08718,-1.11694 1.06081,-1.01699 2.38138,-2.02461 1.34221,-0.73519 2.03167,-1.21112 3.57785,-1.63514 2.46997,-0.67738 5.20672,-0.70614 7.75205,-0.46606 0.90203,0.0851 1.79229,0.25121 2.68844,0.37681 2.37384,0.42596 6.23624,1.51258 11.85496,4.9293 -4.07752,-5.69366 -9.77033,-6.01629 -11.6033,-6.39173 -0.95123,-0.13073 -1.89627,-0.30518 -2.85369,-0.39212 -2.82223,-0.2563 -5.76064,-0.18954 -8.48806,0.58388 -1.74235,0.49405 -2.4883,1.02474 -3.99934,1.87048 -0.49278,0.38055 -1.00914,0.73781 -1.47833,1.14169 -0.68082,0.58607 -1.51298,1.44493 -1.99952,2.19183 -0.28376,0.43563 -0.37156,1.02592 -0.44842,1.51901 0.003,1.04636 1.65132,1.04216 1.648,-0.004 z"
         id="path7942"
         style="fill:#338000;fill-opacity:1;stroke:#000000;stroke-width:1.58297;stroke-linecap:square;stroke-miterlimit:4;stroke-dasharray:none;stroke-opacity:1;paint-order:markers fill stroke"
         sodipodi:nodetypes="cccccccccsccccccc" />
      <path
         sodipodi:nodetypes="cscccccscccccccsccc"
         d="m 144.42696,247.18272 c -0.13005,-0.83803 -0.12631,-1.70309 -0.0544,-2.54665 0.0325,-0.38111 0.0885,-0.75985 0.13271,-1.1398 0.40847,-1.44452 0.64669,-2.52481 1.34192,-3.89711 0.43199,-0.85272 0.91384,-1.68518 1.47294,-2.46053 1.34303,-1.86251 3.12861,-3.68681 4.86187,-5.17716 0.9298,-0.79945 1.93832,-1.5025 2.90747,-2.25375 2.11333,-1.32548 3.43459,-2.31754 5.77321,-3.17518 1.59727,-0.58578 3.85087,-1.03058 5.57443,-1.06343 4.73176,-0.20436 6.07852,1.06437 7.46049,2.30335 -3.46654,-0.69808 -4.55478,-0.81428 -7.30338,-0.83195 -1.54154,0.0185 -3.67465,0.41503 -5.10385,0.93208 -2.22044,0.80327 -3.48688,1.75181 -5.49553,3.00562 -0.93112,0.71861 -1.89961,1.39126 -2.79336,2.15584 -0.88306,0.75547 -1.73085,1.55495 -2.53024,2.39845 -1.4517,1.53184 -2.49774,2.85798 -3.45003,4.71605 -0.61786,1.20551 -0.87235,2.25297 -1.24638,3.52124 -0.1295,1.08065 -0.26509,2.18986 -0.0876,3.27408 0.16889,1.03264 -1.29148,1.27148 -1.46038,0.23884 z"
         id="path7944"
         style="fill:#338000;fill-opacity:1;stroke:#000000;stroke-width:1.5;stroke-linecap:square;stroke-miterlimit:4;stroke-dasharray:none;stroke-opacity:1;paint-order:markers fill stroke"
         inkscape:transform-center-x="13.750343"
         inkscape:transform-center-y="-9.8927571" />
      <path
         sodipodi:nodetypes="cccccccccscsccc"
         d="m 144.1226,246.49479 c 1.14074,-0.93858 2.49219,-1.54539 3.87331,-2.04215 2.09568,-0.75378 2.88637,-0.90792 5.10957,-1.49746 2.50108,-0.47264 3.69209,-0.77817 6.26054,-0.93008 3.31411,-0.19609 6.69001,0.0647 9.92705,0.81054 0.9791,0.22563 1.93086,0.55663 2.89629,0.83494 4.26784,1.48088 6.80681,3.25199 8.215,6.11209 -2.64605,-1.90048 -6.13536,-3.65065 -8.62682,-4.69078 -0.91482,-0.2665 -1.8164,-0.58363 -2.74448,-0.79951 -3.0972,-0.72038 -6.33273,-0.97899 -9.5057,-0.79633 -2.47579,0.14254 -3.63167,0.43726 -6.04316,0.88966 -2.21375,0.58511 -2.86038,0.70265 -4.93648,1.44002 -1.19503,0.42445 -2.35025,0.93448 -3.36596,1.70253 -0.73074,0.74891 -1.78987,-0.28455 -1.05915,-1.03343 z"
         id="path7946"
         style="fill:#338000;fill-opacity:1;stroke:#000000;stroke-width:1.5;stroke-linecap:square;stroke-miterlimit:4;stroke-dasharray:none;stroke-opacity:1;paint-order:markers fill stroke"
         inkscape:transform-center-x="17.83889"
         inkscape:transform-center-y="-0.13880148" />
      <path
         sodipodi:nodetypes="ccssccsccccsccscccc"
         d="m 144.90445,245.05833 c 0.0851,-0.0536 0.16626,-0.11362 0.25496,-0.1608 0.61538,-0.32763 1.16481,-0.57044 1.81515,-0.84622 0.82811,-0.35115 1.74258,-0.72917 2.61052,-0.96203 0.53325,-0.14307 1.08029,-0.22866 1.62043,-0.34305 0.61757,-0.0413 1.23377,-0.1244 1.85271,-0.12397 2.1604,10e-4 4.32351,0.45362 6.35025,1.18509 1.90791,0.68858 2.49216,1.09296 4.2761,2.05988 1.06611,0.60948 5.61595,3.10686 8.30591,8.70856 -3.11465,-3.07342 -6.10432,-5.61552 -9.0129,-7.40861 -0.66074,-0.36062 -1.30522,-0.75274 -1.98218,-1.0819 -2.43209,-1.18249 -5.12551,-1.96205 -7.84437,-1.98614 -0.54869,-0.005 -1.09558,0.0638 -1.64337,0.0957 -0.48521,0.0996 -0.97685,0.17184 -1.45569,0.29864 -0.83142,0.22016 -1.68915,0.57722 -2.48045,0.91186 -0.4223,0.17859 -1.17501,0.50673 -1.62258,0.74376 -0.0932,0.0494 -0.17839,0.11248 -0.26759,0.16873 -0.89055,0.54934 -1.66745,-0.7101 -0.77689,-1.25944 z"
         id="path7948"
         style="fill:#338000;fill-opacity:1;stroke:#000000;stroke-width:1.5;stroke-linecap:square;stroke-miterlimit:4;stroke-dasharray:none;stroke-opacity:1;paint-order:markers fill stroke"
         inkscape:transform-center-x="12.890702"
         inkscape:transform-center-y="4.17527" />
      <path
         sodipodi:nodetypes="ccsccscccccsscscccc"
         d="m 144.09154,247.45411 c -0.0516,-0.21789 -0.11252,-0.50621 -0.19888,-0.70323 -0.46977,-1.06803 -1.24087,-2.03955 -2.03524,-2.87843 -0.41935,-0.44284 -0.88043,-0.84418 -1.32066,-1.26627 -0.53946,-0.40591 -1.05285,-0.84901 -1.61838,-1.21771 -1.80269,-1.17522 -3.86886,-2.00355 -6.02378,-2.21834 -2.17905,-0.2172 -2.77896,0.0653 -4.97689,0.47104 -1.03997,0.35662 -2.09621,0.66893 -3.11994,1.06986 -2.73803,0.81011 -9.95563,4.8892 -12.36617,5.97549 5.58707,-5.2153 10.62127,-6.87866 11.88971,-7.37648 1.09408,-0.42375 2.22335,-0.75028 3.33503,-1.12539 2.46896,-0.4316 3.08784,-0.73024 5.5335,-0.46456 2.37116,0.25759 4.64218,1.1832 6.62127,2.48824 0.6125,0.40388 1.16814,0.88803 1.75219,1.33204 0.47567,0.46003 0.97458,0.8972 1.42703,1.38012 0.93563,0.99863 1.78019,2.12498 2.31574,3.39217 0.0993,0.23504 0.16983,0.56557 0.23158,0.82538 0.22336,1.02225 -1.22224,1.33817 -1.44565,0.31599 z"
         id="path7950"
         style="fill:#338000;fill-opacity:1;stroke:#000000;stroke-width:1.5;stroke-linecap:square;stroke-miterlimit:4;stroke-dasharray:none;stroke-opacity:1;paint-order:markers fill stroke"
         inkscape:transform-center-x="-16.363555"
         inkscape:transform-center-y="-3.6902118" />
      <path
         sodipodi:nodetypes="sssccscccssccscss"
         d="m 145.19436,247.86057 c -0.20853,-0.26385 -0.39981,-0.58185 -0.68942,-0.76818 -0.25487,-0.16396 -0.53406,-0.28783 -0.81065,-0.41168 -1.35385,-0.60632 -1.29055,-0.52544 -2.78903,-0.94479 -1.4022,-0.16379 -2.16357,-0.33718 -3.60201,-0.14172 -2.29783,0.31224 -4.54199,1.31383 -6.51762,2.48774 -0.70011,0.41602 -1.35676,0.90122 -2.03514,1.35184 -2.26675,1.48844 -4.37231,3.383 -8.43313,8.31942 1.77081,-5.13684 6.62371,-8.80478 7.61626,-9.55332 0.72117,-0.47593 1.419,-0.98929 2.16354,-1.4278 2.19466,-1.29263 4.61921,-2.33538 7.16719,-2.65711 1.6277,-0.20551 2.45806,-0.004 4.04419,0.19722 0.56107,0.16063 1.13163,0.29123 1.68322,0.48189 0.80041,0.27669 1.83831,0.74435 2.54751,1.24009 0.41363,0.28914 0.7321,0.79237 1.00102,1.21139 0.43487,0.9517 -0.91099,1.56675 -1.34591,0.61503 z"
         id="path7952"
         style="fill:#338000;fill-opacity:1;stroke:#000000;stroke-width:1.5;stroke-linecap:square;stroke-miterlimit:4;stroke-dasharray:none;stroke-opacity:1;paint-order:markers fill stroke"
         inkscape:transform-center-x="-12.038256"
         inkscape:transform-center-y="4.7347549" />
      <path
         sodipodi:nodetypes="cscssccccsccccc"
         d="m 145.28621,245.69656 c 0.82622,0.007 1.64662,0.16185 2.40956,0.48454 0.26422,0.11177 0.51616,0.25057 0.77424,0.37584 0.81605,0.57627 1.26354,0.8344 1.96713,1.59115 1.22477,1.31731 2.25274,2.99739 3.04355,4.60456 0.28766,0.58464 0.52543,1.19252 0.78813,1.78877 0.31469,0.99169 1.53413,4.95278 0.94991,7.891 -1.21764,-4.73374 -1.66269,-5.68408 -2.30484,-7.2962 -0.24428,-0.55862 -0.46505,-1.12814 -0.73279,-1.67591 -0.69637,-1.42472 -1.66696,-3.04162 -2.7416,-4.21934 -0.56587,-0.62013 -0.97505,-0.87944 -1.62275,-1.35626 -0.20756,-0.10384 -0.41019,-0.21811 -0.62263,-0.31147 -0.59381,-0.26093 -1.23112,-0.38803 -1.87798,-0.39722 -1.04614,0.0212 -1.07605,-1.45832 -0.0299,-1.47946 z"
         id="path7954"
         style="fill:#338000;fill-opacity:1;stroke:#000000;stroke-width:1.5;stroke-linecap:square;stroke-miterlimit:4;stroke-dasharray:none;stroke-opacity:1;paint-order:markers fill stroke"
         inkscape:transform-center-x="4.5858364"
         inkscape:transform-center-y="7.5240559" />
      <path
         sodipodi:nodetypes="ccscccccccc"
         d="m 145.65081,247.59878 c -0.0653,0.0438 -0.1362,0.0802 -0.19576,0.13148 -0.75413,0.65046 -1.31572,1.69244 -1.70407,2.58719 -0.16747,0.38582 -0.29888,0.78631 -0.44832,1.17948 -1.07657,2.77553 -0.57887,7.19346 -0.78085,11.83292 -1.73228,-5.11473 -1.37651,-9.94429 -0.60089,-12.36269 0.16918,-0.43791 0.31815,-0.88416 0.50757,-1.3137 0.51308,-1.1635 1.21567,-2.38081 2.23648,-3.17447 0.1144,-0.0889 0.24742,-0.15088 0.37111,-0.22637 0.95183,-0.43463 1.5665,0.91143 0.61468,1.34608 z"
         id="path7956"
         style="fill:#338000;fill-opacity:1;stroke:#000000;stroke-width:1.5;stroke-linecap:square;stroke-miterlimit:4;stroke-dasharray:none;stroke-opacity:1;paint-order:markers fill stroke"
         inkscape:transform-center-x="-1.6569416"
         inkscape:transform-center-y="8.2081539" />
      <path
         sodipodi:nodetypes="csccccccccc"
         d="m 149.77559,247.19797 c 1.04102,-0.0322 2.08025,0.32812 2.91514,0.94744 0.29302,0.21736 0.55012,0.47934 0.82519,0.71902 0.26778,0.31012 0.55555,0.60404 0.80334,0.93036 0.93528,1.28952 2.46702,4.20041 2.93692,8.06295 -1.74883,-3.56009 -2.72265,-5.27794 -4.0625,-7.10228 -0.20349,-0.27451 -0.44005,-0.52286 -0.66007,-0.7843 -0.21004,-0.1909 -0.4076,-0.39652 -0.63012,-0.57273 -0.55478,-0.4393 -1.26054,-0.71584 -1.97043,-0.72905 -1.04042,0.11135 -1.19788,-1.36002 -0.15746,-1.47138 z"
         id="path7958"
         style="fill:#338000;fill-opacity:1;stroke:#000000;stroke-width:1.5;stroke-linecap:square;stroke-miterlimit:4;stroke-dasharray:none;stroke-opacity:1;paint-order:markers fill stroke"
         inkscape:transform-center-x="2.7183364"
         inkscape:transform-center-y="6.1759757" />
      <path
         sodipodi:nodetypes="ccsscccsssccc"
         d="m 145.78619,247.13067 c -0.56705,0.21601 -0.43879,0.15527 -1.1347,0.4993 -0.31463,0.1556 -0.6347,0.30194 -0.93749,0.47944 -0.8526,0.49978 -1.59394,1.04767 -2.3461,1.69338 -0.43385,0.37246 -0.83882,0.7773 -1.25824,1.16595 -3.98454,4.6343 -4.06011,5.94487 -6.06436,9.52446 -0.10912,-3.76579 4.12018,-9.64004 5.06007,-10.61127 0.44956,-0.41433 0.88334,-0.84646 1.34866,-1.24301 0.85305,-0.72697 1.62498,-1.28594 2.58674,-1.84728 0.31747,-0.1853 0.65215,-0.33961 0.98226,-0.50136 0.79973,-0.39185 0.66797,-0.32749 1.34502,-0.57907 1.00373,-0.29564 1.42186,1.1238 0.41812,1.41947 z"
         id="path7960"
         style="fill:#338000;fill-opacity:1;stroke:#000000;stroke-width:1.5;stroke-linecap:square;stroke-miterlimit:4;stroke-dasharray:none;stroke-opacity:1;paint-order:markers fill stroke"
         inkscape:transform-center-x="-5.1574116"
         inkscape:transform-center-y="6.5416377" />
      <path
         sodipodi:nodetypes="cccccccccscccccc"
         d="m 144.32766,246.25671 c -0.13272,0.011 -0.26627,0.0147 -0.39818,0.0332 -1.32213,0.18471 -2.63275,0.54043 -3.90585,0.9268 -0.76089,0.23051 -1.5246,0.45664 -2.26746,0.73983 -0.85925,0.32806 -1.68899,0.72868 -2.53348,1.09302 -0.85676,0.45633 -1.73502,0.87442 -2.57029,1.36898 -2.26976,1.34387 -4.62686,3.0998 -6.37932,5.08776 -1.53137,1.594 -3.16162,5.18401 -5.94104,8.96604 -0.061,-3.34942 4.10153,-9.10959 4.90263,-10.02029 1.85345,-2.08722 4.32931,-3.92852 6.72322,-5.3402 0.87109,-0.51367 1.78675,-0.94778 2.68013,-1.42166 0.88653,-0.38019 1.75809,-0.79748 2.65963,-1.1406 0.76426,-0.2909 1.54992,-0.52295 2.33274,-0.75939 1.48655,-0.44907 3.01434,-0.86182 4.56575,-1.00701 1.04221,-0.0931 1.17385,1.38082 0.13164,1.47391 z"
         id="path7962"
         style="fill:#338000;fill-opacity:1;stroke:#000000;stroke-width:1.5;stroke-linecap:square;stroke-miterlimit:4;stroke-dasharray:none;stroke-opacity:1;paint-order:markers fill stroke"
         inkscape:transform-center-x="-12.670815"
         inkscape:transform-center-y="9.1435564" />
      <path
         sodipodi:nodetypes="sscsscccsscsscss"
         d="m 143.98161,245.4049 c -0.72734,-1.16541 -1.51882,-2.29533 -2.36951,-3.37428 -0.385,-0.48828 -0.79222,-0.95861 -1.18834,-1.43792 -0.49403,-0.5176 -0.96093,-1.06253 -1.48208,-1.55281 -0.57524,-0.54118 -1.16563,-1.07079 -1.80276,-1.53752 -1.39018,-1.01836 -3.06197,-1.9529 -4.72385,-2.43607 -4.61335,-1.1488 -10.00398,-0.0672 -18.02392,0.005 11.08332,-2.76366 16.06301,-1.91891 18.59913,-1.36814 1.80488,0.54058 3.60166,1.56085 5.11072,2.67514 0.67569,0.49892 1.3015,1.0643 1.91203,1.64111 0.54558,0.51544 1.03457,1.08764 1.55186,1.63146 0.41132,0.49869 0.8339,0.9883 1.23396,1.49607 0.32943,0.41813 0.63963,0.85108 0.95383,1.28079 0.53688,0.73425 1.05583,1.48104 1.52392,2.26134 0.50636,0.91567 -0.78861,1.63179 -1.29497,0.71611 z"
         id="path7964"
         style="fill:#338000;fill-opacity:1;stroke:#000000;stroke-width:1.5;stroke-linecap:square;stroke-miterlimit:4;stroke-dasharray:none;stroke-opacity:1;paint-order:markers fill stroke"
         inkscape:transform-center-x="-15.468327"
         inkscape:transform-center-y="-7.0572365" />
      <path
         sodipodi:nodetypes="cccccccccsccccccc"
         style="fill:#338000;fill-opacity:1;stroke:#000000;stroke-width:1.5;stroke-linecap:square;stroke-miterlimit:4;stroke-dasharray:none;stroke-opacity:1;paint-order:markers fill stroke"
         id="path7966"
         d="m 147.25908,245.55724 c -0.0108,-0.33612 -0.0699,-0.70251 0.0316,-1.03169 0.089,-0.28971 0.22242,-0.56445 0.35387,-0.83752 0.6434,-1.33662 0.6472,-1.23398 1.52172,-2.52104 0.96582,-1.02966 1.43574,-1.65329 2.66098,-2.43182 1.95725,-1.24367 4.31816,-1.92596 6.58503,-2.30335 0.80336,-0.13368 1.6181,-0.18654 2.42713,-0.27982 2.16797,-0.15721 5.8002,-0.0337 11.57317,1.91573 -5.04561,-4.51268 -10.05851,-3.46204 -11.74491,-3.38552 -0.85809,0.10152 -1.72246,0.1594 -2.57423,0.30459 -2.51084,0.42799 -5.03617,1.19514 -7.19066,2.59296 -1.37635,0.89293 -1.8806,1.58287 -2.96307,2.75946 -0.32512,0.48467 -0.67684,0.95251 -0.97534,1.45402 -0.43312,0.72774 -0.92455,1.75461 -1.14668,2.59089 -0.12955,0.48776 -0.0483,1.07773 0.0165,1.57139 0.2816,1.00775 1.70677,0.60954 1.42517,-0.39829 z"
         inkscape:transform-center-x="13.720837"
         inkscape:transform-center-y="-6.0083791" />
      <path
         inkscape:transform-center-y="8.1181693"
         inkscape:transform-center-x="0.99545068"
         style="fill:#338000;fill-opacity:1;stroke:#000000;stroke-width:1.5;stroke-linecap:square;stroke-miterlimit:4;stroke-dasharray:none;stroke-opacity:1;paint-order:markers fill stroke"
         id="path7968"
         d="m 145.86826,247.95118 c -0.0445,0.0648 -0.0969,0.12487 -0.13329,0.19453 -0.46026,0.88316 -0.59688,2.05893 -0.62696,3.03386 -0.013,0.4204 0.013,0.8411 0.0195,1.26166 0.0257,2.9769 2.12133,6.89789 3.64873,11.28338 -3.50033,-4.11205 -4.9551,-8.73102 -5.12843,-11.26483 -0.005,-0.46943 -0.0312,-0.93914 -0.014,-1.40828 0.0466,-1.27075 0.24944,-2.66155 0.90455,-3.77636 0.0734,-0.12489 0.17412,-0.23165 0.26114,-0.34752 0.72374,-0.7557 1.79246,0.26778 1.06874,1.0235 z"
         sodipodi:nodetypes="ccscccccccc" />
      <path
         id="path7970"
         style="fill:#aade87;fill-opacity:1;stroke:#000000;stroke-width:2.19124;stroke-linecap:square;stroke-miterlimit:4;stroke-dasharray:none;stroke-opacity:1;paint-order:markers fill stroke"
         d="m 137.39425,225.7512 c 0.53364,1.5039 1.05447,2.94207 1.57086,4.33739 0.51638,1.39533 1.02835,2.74784 1.54431,4.08029 2.81387,7.17483 3.64498,7.16591 6.42196,6e-4 0.51592,-1.33241 1.02785,-2.68474 1.5442,-4.07998 0.51639,-1.39518 1.03715,-2.83323 1.57077,-4.33704 0.17404,1.21926 0.21164,2.60489 0.18316,3.7551 0.038,1.54377 -0.0592,2.95549 -0.1759,3.48089 h 4.6e-4 c -4.34867,19.1448 -8.88561,13.84812 -12.66814,0 h 4.6e-4 c -0.11671,-0.52613 -0.21277,-1.94111 -0.1759,-3.4874 -0.0266,-1.14932 0.0112,-2.53273 0.18391,-3.74985 z"
         sodipodi:nodetypes="csccsccccccccc" />
      <path
         sodipodi:nodetypes="csccsccccccccc"
         d="m 138.6456,223.63787 c 0.4281,1.22324 0.84589,2.393 1.26014,3.5279 0.41421,1.13491 0.82493,2.23504 1.2388,3.3188 2.29548,5.28988 2.95193,5.42876 5.15157,4.6e-4 0.41388,-1.08372 0.82452,-2.18366 1.23873,-3.31854 0.41421,-1.13477 0.83196,-2.30442 1.26001,-3.52757 0.13979,0.99168 0.16976,2.1187 0.14705,3.05428 0.0303,1.25562 -0.0475,2.40388 -0.14091,2.83122 h 3.3e-4 c -3.48367,15.58174 -7.1322,11.24721 -10.16192,0 h 3.4e-4 c -0.0934,-0.42805 -0.17088,-1.57881 -0.14091,-2.83654 -0.0227,-0.93482 0.007,-2.06004 0.14742,-3.05001 z"
         style="fill:#ffaaee;fill-opacity:1;stroke:#000000;stroke-width:1.76999;stroke-linecap:square;stroke-miterlimit:4;stroke-dasharray:none;stroke-opacity:1;paint-order:markers fill stroke"
         id="path7972" />
      <path
         sodipodi:nodetypes="csccsccccccccc"
         d="m 139.62108,222.59183 c 0.34156,0.9284 0.67519,1.81618 1.00583,2.67754 0.33055,0.86136 0.65848,1.69628 0.98888,2.51882 1.80174,4.42908 2.3339,4.42361 4.11207,3.7e-4 0.33055,-0.8225 0.65813,-1.65733 0.98881,-2.51864 0.33054,-0.86127 0.66407,-1.74896 1.00574,-2.67727 0.11131,0.75265 0.13532,1.60799 0.11745,2.31807 0.0227,0.95295 -0.038,1.82441 -0.1128,2.14878 h 2.8e-4 c -2.79419,11.79779 -5.6803,8.58231 -8.1119,0 h 2.9e-4 c -0.0748,-0.32478 -0.13644,-1.19828 -0.1128,-2.15281 -0.019,-0.70949 0.007,-1.56347 0.11783,-2.31486 z"
         style="fill:#ff80e5;fill-opacity:1;stroke:#000000;stroke-width:1.37765;stroke-linecap:square;stroke-miterlimit:4;stroke-dasharray:none;stroke-opacity:1;paint-order:markers fill stroke"
         id="path7974" />
      <path
         id="path7976"
         style="fill:#ff55dd;fill-opacity:1;stroke:#000000;stroke-width:1.11276;stroke-linecap:square;stroke-miterlimit:4;stroke-dasharray:none;stroke-opacity:1;paint-order:markers fill stroke"
         d="m 140.21923,221.46068 c 0.29027,0.71338 0.57325,1.39555 0.85404,2.05738 0.28077,0.66189 0.55909,1.30341 0.83956,1.93549 1.52981,3.40328 1.98165,3.39908 3.4914,2.8e-4 0.28039,-0.63204 0.55878,-1.27352 0.83952,-1.93532 0.28079,-0.66178 0.56385,-1.3439 0.85393,-2.05724 0.0946,0.57835 0.11503,1.23561 0.0996,1.78122 0.019,0.73226 -0.0303,1.40188 -0.0953,1.65111 h 2.2e-4 c -2.90443,9.65154 -4.63036,7.20908 -6.88727,0 h 2.3e-4 c -0.0635,-0.2496 -0.11597,-0.92075 -0.0953,-1.6542 -0.0149,-0.54519 0.007,-1.20141 0.1,-1.77872 z"
         sodipodi:nodetypes="csccsccccccccc" />
      <path
         sodipodi:nodetypes="csccsccccccccc"
         d="m 140.83068,221.15764 c 0.23859,0.51531 0.47136,1.00814 0.70217,1.48624 0.23099,0.47811 0.45968,0.94159 0.69033,1.39817 1.25779,2.45853 1.6293,2.45546 2.87062,1.9e-4 0.23063,-0.45655 0.45947,-0.91993 0.6903,-1.39804 0.23099,-0.47807 0.46359,-0.97084 0.70209,-1.48615 0.0778,0.41764 0.0946,0.89262 0.0821,1.28676 0.0149,0.52897 -0.0266,1.01269 -0.0786,1.19274 h 1.8e-4 c -2.38932,6.91986 -3.77561,5.29596 -5.66266,0 h 1.9e-4 c -0.0521,-0.18027 -0.0953,-0.66513 -0.0786,-1.19497 -0.0112,-0.39407 0.004,-0.86788 0.0821,-1.28494 z"
         style="fill:#ff2ad4;fill-opacity:1;stroke:#000000;stroke-width:0.857584;stroke-linecap:square;stroke-miterlimit:4;stroke-dasharray:none;stroke-opacity:1;paint-order:markers fill stroke"
         id="path7978" />
      <path
         id="path7980"
         style="fill:#ff00cc;fill-opacity:1;stroke:#000000;stroke-width:0.692722;stroke-linecap:square;stroke-miterlimit:4;stroke-dasharray:none;stroke-opacity:1;paint-order:markers fill stroke"
         d="m 141.39006,220.43349 c 0.1915,0.419 0.37805,0.81996 0.56324,1.20887 0.18502,0.38865 0.36892,0.76584 0.55379,1.13722 1.00899,1.99968 1.30699,1.99719 2.30274,1.4e-4 0.18502,-0.37143 0.36855,-0.74825 0.55374,-1.13713 0.18502,-0.38864 0.37196,-0.78961 0.56322,-1.20874 0.0624,0.33973 0.076,0.72597 0.0657,1.04658 0.0149,0.43032 -0.0227,0.82373 -0.0631,0.97013 h 1.5e-4 c -1.91827,5.65225 -3.03694,4.2848 -4.54267,0 h 1.5e-4 c -0.0419,-0.14684 -0.0763,-0.54098 -0.0631,-0.97194 -0.0112,-0.32025 0.002,-0.70591 0.0657,-1.04513 z"
         sodipodi:nodetypes="csccsccccccccc" />
      <path
         id="path7982"
         style="fill:#d400aa;fill-opacity:1;stroke:#000000;stroke-width:0.608125;stroke-linecap:square;stroke-miterlimit:4;stroke-dasharray:none;stroke-opacity:1;paint-order:markers fill stroke"
         d="m 141.69417,219.43687 c 0.16529,0.37416 0.32638,0.73199 0.48629,1.07911 0.15989,0.34696 0.31839,0.68371 0.4781,1.01518 0.87105,1.78511 1.12835,1.78289 1.98801,1.8e-4 0.15952,-0.33156 0.31802,-0.66799 0.47806,-1.01509 0.15989,-0.34698 0.32105,-0.70492 0.48621,-1.07906 0.054,0.30349 0.0657,0.64805 0.0566,0.93425 0.0112,0.38411 -0.019,0.73529 -0.0544,0.86607 h 1.5e-4 c -1.65147,5.01296 -2.61656,3.84074 -3.92188,0 h 1.5e-4 c -0.038,-0.13086 -0.0657,-0.48295 -0.0543,-0.86766 -0.007,-0.28628 0.004,-0.63013 0.057,-0.93298 z"
         sodipodi:nodetypes="csccsccccccccc" />
      <path
         sodipodi:nodetypes="csccsccccccccc"
         d="m 141.98334,218.98095 c 0.14016,0.28718 0.27699,0.56246 0.41289,0.82925 0.1357,0.2668 0.27014,0.52526 0.40589,0.78002 0.79102,1.02801 0.99618,1.11523 1.68796,1.4e-4 0.1357,-0.25458 0.27013,-0.51327 0.4059,-0.78002 0.13569,-0.2668 0.27241,-0.54161 0.41283,-0.82912 0.0456,0.23329 0.0555,0.498 0.0482,0.71787 0.0112,0.29534 -0.0149,0.56504 -0.0463,0.6655 h 1.3e-4 c -1.39983,3.80546 -2.20034,3.00739 -3.32973,0 h 1.1e-4 c -0.0303,-0.10058 -0.0558,-0.37098 -0.0464,-0.66673 -0.007,-0.21968 0.004,-0.48426 0.0482,-0.71691 z"
         style="fill:#aa0088;fill-opacity:1;stroke:#000000;stroke-width:0.491194;stroke-linecap:square;stroke-miterlimit:4;stroke-dasharray:none;stroke-opacity:1;paint-order:markers fill stroke"
         id="path7984" />
      <path
         id="path7986"
         style="fill:#800066;fill-opacity:1;stroke:#000000;stroke-width:0.378553;stroke-linecap:square;stroke-miterlimit:4;stroke-dasharray:none;stroke-opacity:1;paint-order:markers fill stroke"
         d="m 142.27898,218.85884 c 0.11541,0.20746 0.22797,0.40631 0.3393,0.599 0.11168,0.19297 0.22226,0.37959 0.33396,0.56354 0.60957,0.72732 0.7894,0.68753 1.38783,5e-5 0.11131,-0.18437 0.22227,-0.37053 0.3336,-0.56346 0.11168,-0.19296 0.22417,-0.39135 0.33929,-0.59899 0.038,0.1685 0.0456,0.35965 0.0395,0.51863 0.007,0.21336 -0.0112,0.40813 -0.038,0.48069 h 1.1e-4 c -0.9708,2.58053 -1.87549,2.0173 -2.73772,0 h 1.1e-4 c -0.0266,-0.0729 -0.046,-0.2677 -0.038,-0.48158 -0.007,-0.159 0.002,-0.34969 0.0398,-0.51788 z"
         sodipodi:nodetypes="csccsccccccccc" />
      <path
         sodipodi:nodetypes="cccccccccccc"
         d="m 142.54939,218.56699 c 0.0927,0.16896 0.18278,0.33021 0.27243,0.48721 0.93058,-0.78955 0.9101,-0.82342 1.649,9e-5 0.0897,-0.15673 0.17981,-0.31797 0.27241,-0.48717 0.0303,0.1368 0.038,0.29262 0.0303,0.42171 0.007,0.1735 -0.0112,0.33203 -0.0303,0.39092 h 7e-5 c -0.68104,1.69192 -1.56078,1.72812 -2.19609,0 h 7e-5 c -0.019,-0.0593 -0.038,-0.21787 -0.0303,-0.39181 -0.004,-0.12858 0.002,-0.28448 0.0303,-0.42127 z"
         style="fill:#550044;fill-opacity:1;stroke:#000000;stroke-width:0.305782;stroke-linecap:square;stroke-miterlimit:4;stroke-dasharray:none;stroke-opacity:1;paint-order:markers fill stroke"
         id="path7988" />
      <path
         id="path7990"
         style="fill:url(#radialGradient7992);fill-opacity:1;stroke:#000000;stroke-width:0.39749;stroke-linecap:square;stroke-miterlimit:4;stroke-dasharray:none;stroke-opacity:1;paint-order:markers fill stroke"
         d="m 151.14563,217.58436 c 0.46628,0.37263 0.56856,1.18976 -0.0685,2.41105 -0.11865,0.1391 -0.23699,0.27846 -0.35548,0.41768 -0.34024,0.25633 -0.71863,0.44398 -1.02073,0.769 -0.59883,0.64435 -0.76885,0.89651 -0.73917,0.95476 0.0612,-0.0188 0.11703,-0.042 0.16086,-0.0753 0.23147,-0.17546 0.26889,-0.404 0.40329,-0.60601 0.11064,-0.0738 0.22125,-0.14764 0.33192,-0.22145 3.3964,-1.39888 5.87315,1.18481 2.47675,2.5837 -0.1803,0.0303 -0.36057,0.0608 -0.54084,0.0912 -0.42538,-0.0228 -0.83573,-0.12274 -1.27614,-0.0685 -1.00436,0.12378 -1.24032,0.21667 -1.16907,0.28197 0.0538,0.0221 0.10628,0.0375 0.15675,0.0404 0.28996,0.0167 0.4668,-0.13284 0.70017,-0.19923 0.1321,0.0156 0.2642,0.0313 0.39629,0.047 3.49167,1.14046 3.69863,4.7136 0.20696,3.57313 -0.15679,-0.094 -0.31371,-0.18776 -0.47055,-0.2817 -0.3088,-0.29345 -0.55612,-0.63591 -0.92639,-0.88046 -1.27777,-0.84405 -1.1717,-0.60062 -0.90241,-0.29555 -0.25934,-0.24745 -0.65515,-0.61894 -1.28934,-1.20322 -0.75157,-0.44732 -0.93101,-0.98581 -0.73013,-1.28528 -0.001,-0.006 -0.002,-0.0119 -0.002,-0.0182 -0.2618,-0.22635 -0.25277,-0.76675 0.28959,-1.40812 0.11054,-0.30071 0.18766,-0.59982 0.33159,-0.90212 0.0962,-0.20194 0.33533,-0.3958 0.37914,-0.59052 0.0642,-0.28327 -0.0543,-0.4822 -0.0814,-0.72331 0.0372,-0.1277 0.0743,-0.25546 0.11144,-0.38318 1.06173,-2.03549 2.84996,-2.64912 3.62706,-2.02803 z m -2.63594,8.54203 c 0.71028,0.67773 0.27764,0.31452 0,0 z" />
      <path
         sodipodi:nodetypes="cscccccscccccccsccc"
         d="m 144.28959,246.91101 c 0.0979,-0.84239 0.3319,-1.67519 0.62595,-2.46911 0.13284,-0.35869 0.28768,-0.70884 0.43153,-1.06327 0.7785,-1.28353 1.29587,-2.26133 2.33153,-3.39886 0.64352,-0.70684 1.3297,-1.38087 2.07514,-1.97928 1.79063,-1.43747 3.99764,-2.72024 6.06526,-3.69504 1.10916,-0.52289 2.26851,-0.9319 3.40276,-1.39785 2.39004,-0.71466 3.92783,-1.31893 6.41041,-1.52265 1.69559,-0.13913 3.98626,0.0324 5.6563,0.45987 4.61523,1.06344 5.57537,2.64508 6.57739,4.20741 -3.15534,-1.59625 -4.17331,-1.99813 -6.81791,-2.74731 -1.49075,-0.39284 -3.65243,-0.57879 -5.16772,-0.46112 -2.35419,0.18278 -3.82754,0.75971 -6.09759,1.43317 -1.0889,0.44461 -2.20158,0.83498 -3.2667,1.33387 -1.0524,0.49295 -2.08251,1.03772 -3.0777,1.63781 -1.80729,1.0898 -3.16878,2.08939 -4.58161,3.62667 -0.91664,0.99737 -1.44096,1.93919 -2.13931,3.06201 -0.4127,1.0071 -0.83883,2.04013 -0.9565,3.13247 -0.11228,1.04032 -1.58351,0.88153 -1.47123,-0.15879 z"
         id="path7299"
         style="fill:#338000;fill-opacity:1;stroke:none;stroke-width:1.5;stroke-linecap:square;stroke-miterlimit:4;stroke-dasharray:none;stroke-opacity:1;paint-order:markers fill stroke" />
      <path
         sodipodi:nodetypes="cccccccccscsccc"
         d="m 145.10166,246.98669 c 1.28318,-0.73189 2.71786,-1.10113 4.16315,-1.35689 2.19303,-0.38809 2.99841,-0.40613 5.28933,-0.61076 2.54499,-0.0424 3.77054,-0.14185 6.32762,0.1433 3.29947,0.36786 6.58248,1.19646 9.64652,2.47955 0.92676,0.38811 1.80873,0.87551 2.71312,1.31326 3.95548,2.18208 6.15794,4.35749 7.06157,7.41471 -2.28609,-2.32104 -5.42871,-4.6367 -7.7081,-6.08364 -0.8565,-0.41753 -1.69136,-0.88273 -2.56948,-1.25263 -2.93053,-1.23437 -6.07557,-2.03703 -9.23365,-2.39422 -2.46418,-0.2787 -3.65329,-0.18393 -6.10655,-0.14633 -2.28085,0.20186 -2.93806,0.20822 -5.10904,0.58346 -1.24962,0.21598 -2.47451,0.52307 -3.6056,1.10805 -0.84698,0.6144 -1.71587,-0.58342 -0.86889,-1.19782 z"
         id="path7303"
         style="fill:#338000;fill-opacity:1;stroke:none;stroke-width:1.5;stroke-linecap:square;stroke-miterlimit:4;stroke-dasharray:none;stroke-opacity:1;paint-order:markers fill stroke" />
      <path
         sodipodi:nodetypes="ccssccsccccsccscccc"
         d="m 144.75187,247.03077 c 0.0962,-0.029 0.19051,-0.0652 0.28859,-0.0871 0.6804,-0.15189 1.27467,-0.23956 1.97497,-0.33214 0.89173,-0.11788 1.87385,-0.23865 2.77246,-0.2319 0.5521,0.004 1.10217,0.0674 1.65327,0.10098 0.60625,0.12468 1.22232,0.20873 1.8188,0.37402 2.08192,0.57694 4.04645,1.58889 5.80514,2.8338 1.65554,1.17192 2.11097,1.71732 3.5729,3.12449 0.86524,0.87145 4.58547,4.49055 5.68609,10.60639 -2.18344,-3.79203 -4.38795,-7.03865 -6.71381,-9.54172 -0.5408,-0.5236 -1.05755,-1.07322 -1.62238,-1.57081 -2.02923,-1.78762 -4.41769,-3.25646 -7.0319,-4.00391 -0.52757,-0.15085 -1.07299,-0.23033 -1.60949,-0.3455 -0.4942,-0.0333 -0.98732,-0.0946 -1.48264,-0.0999 -0.86002,-0.009 -1.78187,0.10642 -2.63372,0.2182 -0.45461,0.0596 -1.26754,0.17542 -1.76208,0.28467 -0.10297,0.0228 -0.2019,0.0609 -0.30286,0.0914 -1.00471,0.29228 -1.41806,-1.1286 -0.41334,-1.42088 z"
         id="path7305"
         style="fill:#338000;fill-opacity:1;stroke:none;stroke-width:1.5;stroke-linecap:square;stroke-miterlimit:4;stroke-dasharray:none;stroke-opacity:1;paint-order:markers fill stroke" />
      <path
         sodipodi:nodetypes="ccsccscccccsscscccc"
         d="m 143.89399,247.08326 c 0.008,-0.22377 0.0264,-0.5179 -0.004,-0.73082 -0.1683,-1.15456 -0.65276,-2.29638 -1.19498,-3.31655 -0.28623,-0.53854 -0.62375,-1.0482 -0.93563,-1.57231 -0.41185,-0.53493 -0.78866,-1.09879 -1.23555,-1.6048 -1.42451,-1.61295 -3.19538,-2.96172 -5.21524,-3.74277 -2.04246,-0.78979 -2.69595,-0.67728 -4.92254,-0.87168 -1.09739,0.0667 -2.19867,0.0864 -3.2922,0.20013 -2.8549,0.0515 -10.89828,2.06065 -13.51108,2.46559 6.77442,-3.53863 12.0698,-3.80091 13.42502,-3.94287 1.16743,-0.11701 2.34288,-0.13094 3.5143,-0.19636 2.49472,0.24165 3.17079,0.11865 5.45733,1.02619 2.21687,0.8799 4.15928,2.37699 5.71925,4.16206 0.48279,0.55245 0.88938,1.1671 1.33407,1.75064 0.33594,0.57013 0.70037,1.1244 1.00783,1.71038 0.63583,1.21179 1.14984,2.5224 1.3285,3.88647 0.0331,0.25298 0.013,0.59038 0.003,0.85724 -0.057,1.04482 -1.53454,0.96426 -1.47758,-0.0805 z"
         id="path7317"
         style="fill:#338000;fill-opacity:1;stroke:none;stroke-width:1.5;stroke-linecap:square;stroke-miterlimit:4;stroke-dasharray:none;stroke-opacity:1;paint-order:markers fill stroke" />
      <path
         sodipodi:nodetypes="sssccscccssccscss"
         d="m 144.38867,247.97599 c -0.0855,-0.32525 -0.13351,-0.69325 -0.32432,-0.97991 -0.16794,-0.25228 -0.37421,-0.47753 -0.5781,-0.70175 -0.99799,-1.09751 -0.97235,-0.99805 -2.17771,-1.98214 -1.21942,-0.71133 -1.84773,-1.17498 -3.24416,-1.5716 -2.23072,-0.63361 -4.68816,-0.614 -6.96849,-0.32899 -0.80812,0.10101 -1.60407,0.28283 -2.4061,0.42424 -2.67301,0.45672 -5.36088,1.35012 -11.05808,4.24849 3.67886,-3.99863 9.59419,-5.41752 10.80338,-5.7062 0.85138,-0.14748 1.69635,-0.33861 2.55415,-0.44246 2.52858,-0.30612 5.16782,-0.29126 7.63157,0.43377 1.57389,0.46318 2.25401,0.98059 3.62716,1.79947 0.44988,0.37177 0.92047,0.71983 1.34963,1.11533 0.62273,0.57394 1.38669,1.41792 1.83818,2.15608 0.26331,0.43053 0.35375,1.01916 0.43246,1.5108 0.0176,1.0462 -1.46194,1.07113 -1.47957,0.0249 z"
         id="path7319"
         style="fill:#338000;fill-opacity:1;stroke:none;stroke-width:1.5;stroke-linecap:square;stroke-miterlimit:4;stroke-dasharray:none;stroke-opacity:1;paint-order:markers fill stroke" />
      <path
         sodipodi:nodetypes="cscssccccsccccc"
         d="m 145.51365,245.70743 c 0.79457,0.22661 1.54402,0.59462 2.19344,1.10888 0.2249,0.1781 0.43077,0.379 0.64615,0.5685 0.63307,0.77282 0.99563,1.14082 1.47222,2.05764 0.82963,1.59596 1.37293,3.48916 1.70705,5.24892 0.12154,0.64013 0.18879,1.28939 0.2832,1.93408 0.0391,1.03968 0.15941,5.18248 -1.18637,7.85892 0.0873,-4.88705 -0.0885,-5.9216 -0.27806,-7.64652 -0.0866,-0.60352 -0.14773,-1.21127 -0.25989,-1.81056 -0.2917,-1.55875 -0.79653,-3.37576 -1.51864,-4.79719 -0.38023,-0.74846 -0.70556,-1.10739 -1.20284,-1.73952 -0.1724,-0.15535 -0.33727,-0.31948 -0.51718,-0.46606 -0.50285,-0.40968 -1.08327,-0.70195 -1.70431,-0.88311 -1.01398,-0.25827 -0.64872,-1.69227 0.36526,-1.43398 z"
         id="path7327"
         style="fill:#338000;fill-opacity:1;stroke:none;stroke-width:1.5;stroke-linecap:square;stroke-miterlimit:4;stroke-dasharray:none;stroke-opacity:1;paint-order:markers fill stroke" />
      <path
         sodipodi:nodetypes="ccscccccccc"
         d="m 145.35839,247.63804 c -0.0746,0.0248 -0.15265,0.041 -0.22372,0.0746 -0.90015,0.42607 -1.719,1.28081 -2.33166,2.03979 -0.26418,0.32727 -0.49753,0.67829 -0.74629,1.01745 -1.77701,2.38849 -2.47411,6.77936 -3.90462,11.1974 -0.30726,-5.39137 1.32211,-9.95167 2.71391,-12.07609 0.27971,-0.37702 0.54217,-0.76747 0.83917,-1.13103 0.80446,-0.98479 1.80593,-1.97097 3.00126,-2.46403 0.13396,-0.0552 0.27867,-0.0795 0.418,-0.11935 1.03322,-0.16539 1.26713,1.29578 0.23392,1.46118 z"
         id="path7329"
         style="fill:#338000;fill-opacity:1;stroke:none;stroke-width:1.5;stroke-linecap:square;stroke-miterlimit:4;stroke-dasharray:none;stroke-opacity:1;paint-order:markers fill stroke" />
      <path
         sodipodi:nodetypes="csccccccccc"
         d="m 144.48945,247.17872 c 1.012,0.24623 1.91769,0.87039 2.55744,1.68973 0.22454,0.28755 0.40257,0.60856 0.60385,0.91284 0.17549,0.37025 0.37457,0.73021 0.52649,1.11074 0.558,1.49206 1.25902,4.70579 0.68307,8.55396 -0.73734,-3.89731 -1.21838,-5.81249 -2.02387,-7.92782 -0.12302,-0.31879 -0.28487,-0.62118 -0.42731,-0.93178 -0.1516,-0.23996 -0.28725,-0.49078 -0.4548,-0.71989 -0.41771,-0.5712 -1.0243,-1.02575 -1.70503,-1.22758 -1.03249,-0.16981 -0.79234,-1.62997 0.24015,-1.46016 z"
         id="path7331"
         style="fill:#338000;fill-opacity:1;stroke:none;stroke-width:1.5;stroke-linecap:square;stroke-miterlimit:4;stroke-dasharray:none;stroke-opacity:1;paint-order:markers fill stroke" />
      <path
         sodipodi:nodetypes="ccsscccsssccc"
         d="m 145.61356,247.22291 c -0.6041,0.0572 -0.46429,0.0328 -1.2267,0.17901 -0.34471,0.0662 -0.6922,0.12196 -1.03132,0.21239 -0.95493,0.25461 -1.81544,0.58524 -2.71241,1.00726 -0.5174,0.24344 -1.01557,0.52578 -1.52336,0.78866 -5.07503,3.40549 -5.49698,4.64859 -8.38231,7.56497 0.89792,-3.6588 6.53916,-8.19424 7.7038,-8.88002 0.54368,-0.27961 1.0769,-0.58059 1.63104,-0.83886 1.01588,-0.47347 1.90881,-0.80662 2.98533,-1.0915 0.35537,-0.094 0.71906,-0.15363 1.08034,-0.2216 0.87521,-0.16467 0.73107,-0.13773 1.45067,-0.19987 1.04621,-0.0176 1.07113,1.46194 0.0249,1.47956 z"
         id="path7333"
         style="fill:#338000;fill-opacity:1;stroke:none;stroke-width:1.5;stroke-linecap:square;stroke-miterlimit:4;stroke-dasharray:none;stroke-opacity:1;paint-order:markers fill stroke" />
      <path
         sodipodi:nodetypes="cccccccccscccccc"
         d="m 144.15862,244.89543 c -0.13087,-0.0247 -0.26059,-0.0567 -0.39264,-0.074 -1.32357,-0.17414 -2.68159,-0.18039 -4.01162,-0.1471 -0.79479,0.0195 -1.59115,0.034 -2.3826,0.10911 -0.91559,0.0873 -1.82207,0.25246 -2.73309,0.37868 -0.94737,0.21162 -1.90526,0.38067 -2.84209,0.63486 -2.54573,0.69072 -5.28539,1.75535 -7.50408,3.20467 -1.90064,1.12849 -4.42827,4.15455 -8.11469,7.05957 0.83341,-3.24465 6.37988,-7.68793 7.39462,-8.35234 2.34246,-1.51809 5.21935,-2.63337 7.9028,-3.35637 0.97645,-0.26308 1.97466,-0.43759 2.96198,-0.65638 0.95578,-0.13031 1.90699,-0.30036 2.86736,-0.39094 0.81413,-0.0768 1.63323,-0.0912 2.45075,-0.11057 1.55246,-0.0369 3.135,-0.0277 4.66902,0.24555 1.02936,0.18789 0.76363,1.64361 -0.26572,1.45572 z"
         id="path7335"
         style="fill:#338000;fill-opacity:1;stroke:none;stroke-width:1.5;stroke-linecap:square;stroke-miterlimit:4;stroke-dasharray:none;stroke-opacity:1;paint-order:markers fill stroke" />
      <path
         sodipodi:nodetypes="sscsscccsscsscss"
         d="m 144.33388,245.0788 c -0.39062,-1.31705 -0.85253,-2.61698 -1.38508,-3.88354 -0.24102,-0.57319 -0.50826,-1.13501 -0.76239,-1.70251 -0.3383,-0.6305 -0.64318,-1.28011 -1.0149,-1.8915 -0.41031,-0.67484 -0.83829,-1.34259 -1.32807,-1.96217 -1.06869,-1.35187 -2.43115,-2.69796 -3.90428,-3.60637 -4.14066,-2.33616 -9.62463,-2.72955 -17.37397,-4.79653 11.41905,0.28849 15.99379,2.42916 18.29157,3.63559 1.59568,1.00182 3.05576,2.46384 4.21349,3.93985 0.51837,0.66087 0.97098,1.37252 1.40581,2.09112 0.38857,0.64215 0.70747,1.32393 1.06121,1.9859 0.26362,0.59023 0.54052,1.17471 0.79087,1.7707 0.20615,0.49078 0.38982,0.99072 0.57819,1.48859 0.3219,0.85073 0.62318,1.70878 0.8665,2.58557 0.24417,1.01747 -1.19477,1.36277 -1.43894,0.3453 z"
         id="path7343"
         style="fill:#338000;fill-opacity:1;stroke:none;stroke-width:1.5;stroke-linecap:square;stroke-miterlimit:4;stroke-dasharray:none;stroke-opacity:1;paint-order:markers fill stroke" />
      <path
         sodipodi:nodetypes="cccccccccsccccccc"
         style="fill:#338000;fill-opacity:1;stroke:none;stroke-width:1.58297;stroke-linecap:square;stroke-miterlimit:4;stroke-dasharray:none;stroke-opacity:1;paint-order:markers fill stroke"
         id="path7345"
         d="m 148.67894,245.04032 c 0.0881,-0.32687 0.13342,-0.69574 0.33966,-0.98609 0.18145,-0.25554 0.4062,-0.48481 0.62832,-0.713 1.08718,-1.11694 1.06081,-1.01699 2.38138,-2.02461 1.34221,-0.73519 2.03167,-1.21112 3.57785,-1.63514 2.46997,-0.67738 5.20672,-0.70614 7.75205,-0.46606 0.90203,0.0851 1.79229,0.25121 2.68844,0.37681 2.37384,0.42596 6.23624,1.51258 11.85496,4.9293 -4.07752,-5.69366 -9.77033,-6.01629 -11.6033,-6.39173 -0.95123,-0.13073 -1.89627,-0.30518 -2.85369,-0.39212 -2.82223,-0.2563 -5.76064,-0.18954 -8.48806,0.58388 -1.74235,0.49405 -2.4883,1.02474 -3.99934,1.87048 -0.49278,0.38055 -1.00914,0.73781 -1.47833,1.14169 -0.68082,0.58607 -1.51298,1.44493 -1.99952,2.19183 -0.28376,0.43563 -0.37156,1.02592 -0.44842,1.51901 0.003,1.04636 1.65132,1.04216 1.648,-0.004 z" />
      <path
         inkscape:transform-center-y="-9.8927571"
         inkscape:transform-center-x="13.750343"
         style="fill:#338000;fill-opacity:1;stroke:none;stroke-width:1.5;stroke-linecap:square;stroke-miterlimit:4;stroke-dasharray:none;stroke-opacity:1;paint-order:markers fill stroke"
         id="path7347"
         d="m 144.42696,247.18272 c -0.13005,-0.83803 -0.12631,-1.70309 -0.0544,-2.54665 0.0325,-0.38111 0.0885,-0.75985 0.13271,-1.1398 0.40847,-1.44452 0.64669,-2.52481 1.34192,-3.89711 0.43199,-0.85272 0.91384,-1.68518 1.47294,-2.46053 1.34303,-1.86251 3.12861,-3.68681 4.86187,-5.17716 0.9298,-0.79945 1.93832,-1.5025 2.90747,-2.25375 2.11333,-1.32548 3.43459,-2.31754 5.77321,-3.17518 1.59727,-0.58578 3.85087,-1.03058 5.57443,-1.06343 4.73176,-0.20436 6.07852,1.06437 7.46049,2.30335 -3.46654,-0.69808 -4.55478,-0.81428 -7.30338,-0.83195 -1.54154,0.0185 -3.67465,0.41503 -5.10385,0.93208 -2.22044,0.80327 -3.48688,1.75181 -5.49553,3.00562 -0.93112,0.71861 -1.89961,1.39126 -2.79336,2.15584 -0.88306,0.75547 -1.73085,1.55495 -2.53024,2.39845 -1.4517,1.53184 -2.49774,2.85798 -3.45003,4.71605 -0.61786,1.20551 -0.87235,2.25297 -1.24638,3.52124 -0.1295,1.08065 -0.26509,2.18986 -0.0876,3.27408 0.16889,1.03264 -1.29148,1.27148 -1.46038,0.23884 z"
         sodipodi:nodetypes="cscccccscccccccsccc" />
      <path
         inkscape:transform-center-y="-0.13880148"
         inkscape:transform-center-x="17.83889"
         style="fill:#338000;fill-opacity:1;stroke:none;stroke-width:1.5;stroke-linecap:square;stroke-miterlimit:4;stroke-dasharray:none;stroke-opacity:1;paint-order:markers fill stroke"
         id="path7349"
         d="m 144.1226,246.49479 c 1.14074,-0.93858 2.49219,-1.54539 3.87331,-2.04215 2.09568,-0.75378 2.88637,-0.90792 5.10957,-1.49746 2.50108,-0.47264 3.69209,-0.77817 6.26054,-0.93008 3.31411,-0.19609 6.69001,0.0647 9.92705,0.81054 0.9791,0.22563 1.93086,0.55663 2.89629,0.83494 4.26784,1.48088 6.80681,3.25199 8.215,6.11209 -2.64605,-1.90048 -6.13536,-3.65065 -8.62682,-4.69078 -0.91482,-0.2665 -1.8164,-0.58363 -2.74448,-0.79951 -3.0972,-0.72038 -6.33273,-0.97899 -9.5057,-0.79633 -2.47579,0.14254 -3.63167,0.43726 -6.04316,0.88966 -2.21375,0.58511 -2.86038,0.70265 -4.93648,1.44002 -1.19503,0.42445 -2.35025,0.93448 -3.36596,1.70253 -0.73074,0.74891 -1.78987,-0.28455 -1.05915,-1.03343 z"
         sodipodi:nodetypes="cccccccccscsccc" />
      <path
         inkscape:transform-center-y="4.17527"
         inkscape:transform-center-x="12.890702"
         style="fill:#338000;fill-opacity:1;stroke:none;stroke-width:1.5;stroke-linecap:square;stroke-miterlimit:4;stroke-dasharray:none;stroke-opacity:1;paint-order:markers fill stroke"
         id="path7351"
         d="m 144.90445,245.05833 c 0.0851,-0.0536 0.16626,-0.11362 0.25496,-0.1608 0.61538,-0.32763 1.16481,-0.57044 1.81515,-0.84622 0.82811,-0.35115 1.74258,-0.72917 2.61052,-0.96203 0.53325,-0.14307 1.08029,-0.22866 1.62043,-0.34305 0.61757,-0.0413 1.23377,-0.1244 1.85271,-0.12397 2.1604,10e-4 4.32351,0.45362 6.35025,1.18509 1.90791,0.68858 2.49216,1.09296 4.2761,2.05988 1.06611,0.60948 5.61595,3.10686 8.30591,8.70856 -3.11465,-3.07342 -6.10432,-5.61552 -9.0129,-7.40861 -0.66074,-0.36062 -1.30522,-0.75274 -1.98218,-1.0819 -2.43209,-1.18249 -5.12551,-1.96205 -7.84437,-1.98614 -0.54869,-0.005 -1.09558,0.0638 -1.64337,0.0957 -0.48521,0.0996 -0.97685,0.17184 -1.45569,0.29864 -0.83142,0.22016 -1.68915,0.57722 -2.48045,0.91186 -0.4223,0.17859 -1.17501,0.50673 -1.62258,0.74376 -0.0932,0.0494 -0.17839,0.11248 -0.26759,0.16873 -0.89055,0.54934 -1.66745,-0.7101 -0.77689,-1.25944 z"
         sodipodi:nodetypes="ccssccsccccsccscccc" />
      <path
         inkscape:transform-center-y="-3.6902118"
         inkscape:transform-center-x="-16.363555"
         style="fill:#338000;fill-opacity:1;stroke:none;stroke-width:1.5;stroke-linecap:square;stroke-miterlimit:4;stroke-dasharray:none;stroke-opacity:1;paint-order:markers fill stroke"
         id="path7353"
         d="m 144.09154,247.45411 c -0.0516,-0.21789 -0.11252,-0.50621 -0.19888,-0.70323 -0.46977,-1.06803 -1.24087,-2.03955 -2.03524,-2.87843 -0.41935,-0.44284 -0.88043,-0.84418 -1.32066,-1.26627 -0.53946,-0.40591 -1.05285,-0.84901 -1.61838,-1.21771 -1.80269,-1.17522 -3.86886,-2.00355 -6.02378,-2.21834 -2.17905,-0.2172 -2.77896,0.0653 -4.97689,0.47104 -1.03997,0.35662 -2.09621,0.66893 -3.11994,1.06986 -2.73803,0.81011 -9.95563,4.8892 -12.36617,5.97549 5.58707,-5.2153 10.62127,-6.87866 11.88971,-7.37648 1.09408,-0.42375 2.22335,-0.75028 3.33503,-1.12539 2.46896,-0.4316 3.08784,-0.73024 5.5335,-0.46456 2.37116,0.25759 4.64218,1.1832 6.62127,2.48824 0.6125,0.40388 1.16814,0.88803 1.75219,1.33204 0.47567,0.46003 0.97458,0.8972 1.42703,1.38012 0.93563,0.99863 1.78019,2.12498 2.31574,3.39217 0.0993,0.23504 0.16983,0.56557 0.23158,0.82538 0.22336,1.02225 -1.22224,1.33817 -1.44565,0.31599 z"
         sodipodi:nodetypes="ccsccscccccsscscccc" />
      <path
         inkscape:transform-center-y="4.7347549"
         inkscape:transform-center-x="-12.038256"
         style="fill:#338000;fill-opacity:1;stroke:none;stroke-width:1.5;stroke-linecap:square;stroke-miterlimit:4;stroke-dasharray:none;stroke-opacity:1;paint-order:markers fill stroke"
         id="path7355"
         d="m 145.19436,247.86057 c -0.20853,-0.26385 -0.39981,-0.58185 -0.68942,-0.76818 -0.25487,-0.16396 -0.53406,-0.28783 -0.81065,-0.41168 -1.35385,-0.60632 -1.29055,-0.52544 -2.78903,-0.94479 -1.4022,-0.16379 -2.16357,-0.33718 -3.60201,-0.14172 -2.29783,0.31224 -4.54199,1.31383 -6.51762,2.48774 -0.70011,0.41602 -1.35676,0.90122 -2.03514,1.35184 -2.26675,1.48844 -4.37231,3.383 -8.43313,8.31942 1.77081,-5.13684 6.62371,-8.80478 7.61626,-9.55332 0.72117,-0.47593 1.419,-0.98929 2.16354,-1.4278 2.19466,-1.29263 4.61921,-2.33538 7.16719,-2.65711 1.6277,-0.20551 2.45806,-0.004 4.04419,0.19722 0.56107,0.16063 1.13163,0.29123 1.68322,0.48189 0.80041,0.27669 1.83831,0.74435 2.54751,1.24009 0.41363,0.28914 0.7321,0.79237 1.00102,1.21139 0.43487,0.9517 -0.91099,1.56675 -1.34591,0.61503 z"
         sodipodi:nodetypes="sssccscccssccscss" />
      <path
         inkscape:transform-center-y="7.5240559"
         inkscape:transform-center-x="4.5858364"
         style="fill:#338000;fill-opacity:1;stroke:none;stroke-width:1.5;stroke-linecap:square;stroke-miterlimit:4;stroke-dasharray:none;stroke-opacity:1;paint-order:markers fill stroke"
         id="path7357"
         d="m 145.28621,245.69656 c 0.82622,0.007 1.64662,0.16185 2.40956,0.48454 0.26422,0.11177 0.51616,0.25057 0.77424,0.37584 0.81605,0.57627 1.26354,0.8344 1.96713,1.59115 1.22477,1.31731 2.25274,2.99739 3.04355,4.60456 0.28766,0.58464 0.52543,1.19252 0.78813,1.78877 0.31469,0.99169 1.53413,4.95278 0.94991,7.891 -1.21764,-4.73374 -1.66269,-5.68408 -2.30484,-7.2962 -0.24428,-0.55862 -0.46505,-1.12814 -0.73279,-1.67591 -0.69637,-1.42472 -1.66696,-3.04162 -2.7416,-4.21934 -0.56587,-0.62013 -0.97505,-0.87944 -1.62275,-1.35626 -0.20756,-0.10384 -0.41019,-0.21811 -0.62263,-0.31147 -0.59381,-0.26093 -1.23112,-0.38803 -1.87798,-0.39722 -1.04614,0.0212 -1.07605,-1.45832 -0.0299,-1.47946 z"
         sodipodi:nodetypes="cscssccccsccccc" />
      <path
         inkscape:transform-center-y="8.2081539"
         inkscape:transform-center-x="-1.6569416"
         style="fill:#338000;fill-opacity:1;stroke:none;stroke-width:1.5;stroke-linecap:square;stroke-miterlimit:4;stroke-dasharray:none;stroke-opacity:1;paint-order:markers fill stroke"
         id="path7359"
         d="m 145.65081,247.59878 c -0.0653,0.0438 -0.1362,0.0802 -0.19576,0.13148 -0.75413,0.65046 -1.31572,1.69244 -1.70407,2.58719 -0.16747,0.38582 -0.29888,0.78631 -0.44832,1.17948 -1.07657,2.77553 -0.57887,7.19346 -0.78085,11.83292 -1.73228,-5.11473 -1.37651,-9.94429 -0.60089,-12.36269 0.16918,-0.43791 0.31815,-0.88416 0.50757,-1.3137 0.51308,-1.1635 1.21567,-2.38081 2.23648,-3.17447 0.1144,-0.0889 0.24742,-0.15088 0.37111,-0.22637 0.95183,-0.43463 1.5665,0.91143 0.61468,1.34608 z"
         sodipodi:nodetypes="ccscccccccc" />
      <path
         inkscape:transform-center-y="6.1759757"
         inkscape:transform-center-x="2.7183364"
         style="fill:#338000;fill-opacity:1;stroke:none;stroke-width:1.5;stroke-linecap:square;stroke-miterlimit:4;stroke-dasharray:none;stroke-opacity:1;paint-order:markers fill stroke"
         id="path7361"
         d="m 149.77559,247.19797 c 1.04102,-0.0322 2.08025,0.32812 2.91514,0.94744 0.29302,0.21736 0.55012,0.47934 0.82519,0.71902 0.26778,0.31012 0.55555,0.60404 0.80334,0.93036 0.93528,1.28952 2.46702,4.20041 2.93692,8.06295 -1.74883,-3.56009 -2.72265,-5.27794 -4.0625,-7.10228 -0.20349,-0.27451 -0.44005,-0.52286 -0.66007,-0.7843 -0.21004,-0.1909 -0.4076,-0.39652 -0.63012,-0.57273 -0.55478,-0.4393 -1.26054,-0.71584 -1.97043,-0.72905 -1.04042,0.11135 -1.19788,-1.36002 -0.15746,-1.47138 z"
         sodipodi:nodetypes="csccccccccc" />
      <path
         inkscape:transform-center-y="6.5416377"
         inkscape:transform-center-x="-5.1574116"
         style="fill:#338000;fill-opacity:1;stroke:none;stroke-width:1.5;stroke-linecap:square;stroke-miterlimit:4;stroke-dasharray:none;stroke-opacity:1;paint-order:markers fill stroke"
         id="path7363"
         d="m 145.78619,247.13067 c -0.56705,0.21601 -0.43879,0.15527 -1.1347,0.4993 -0.31463,0.1556 -0.6347,0.30194 -0.93749,0.47944 -0.8526,0.49978 -1.59394,1.04767 -2.3461,1.69338 -0.43385,0.37246 -0.83882,0.7773 -1.25824,1.16595 -3.98454,4.6343 -4.06011,5.94487 -6.06436,9.52446 -0.10912,-3.76579 4.12018,-9.64004 5.06007,-10.61127 0.44956,-0.41433 0.88334,-0.84646 1.34866,-1.24301 0.85305,-0.72697 1.62498,-1.28594 2.58674,-1.84728 0.31747,-0.1853 0.65215,-0.33961 0.98226,-0.50136 0.79973,-0.39185 0.66797,-0.32749 1.34502,-0.57907 1.00373,-0.29564 1.42186,1.1238 0.41812,1.41947 z"
         sodipodi:nodetypes="ccsscccsssccc" />
      <path
         inkscape:transform-center-y="9.1435564"
         inkscape:transform-center-x="-12.670815"
         style="fill:#338000;fill-opacity:1;stroke:none;stroke-width:1.5;stroke-linecap:square;stroke-miterlimit:4;stroke-dasharray:none;stroke-opacity:1;paint-order:markers fill stroke"
         id="path7365"
         d="m 144.32766,246.25671 c -0.13272,0.011 -0.26627,0.0147 -0.39818,0.0332 -1.32213,0.18471 -2.63275,0.54043 -3.90585,0.9268 -0.76089,0.23051 -1.5246,0.45664 -2.26746,0.73983 -0.85925,0.32806 -1.68899,0.72868 -2.53348,1.09302 -0.85676,0.45633 -1.73502,0.87442 -2.57029,1.36898 -2.26976,1.34387 -4.62686,3.0998 -6.37932,5.08776 -1.53137,1.594 -3.16162,5.18401 -5.94104,8.96604 -0.061,-3.34942 4.10153,-9.10959 4.90263,-10.02029 1.85345,-2.08722 4.32931,-3.92852 6.72322,-5.3402 0.87109,-0.51367 1.78675,-0.94778 2.68013,-1.42166 0.88653,-0.38019 1.75809,-0.79748 2.65963,-1.1406 0.76426,-0.2909 1.54992,-0.52295 2.33274,-0.75939 1.48655,-0.44907 3.01434,-0.86182 4.56575,-1.00701 1.04221,-0.0931 1.17385,1.38082 0.13164,1.47391 z"
         sodipodi:nodetypes="cccccccccscccccc" />
      <path
         inkscape:transform-center-y="-7.0572365"
         inkscape:transform-center-x="-15.468327"
         style="fill:#338000;fill-opacity:1;stroke:none;stroke-width:1.5;stroke-linecap:square;stroke-miterlimit:4;stroke-dasharray:none;stroke-opacity:1;paint-order:markers fill stroke"
         id="path7367"
         d="m 143.98161,245.4049 c -0.72734,-1.16541 -1.51882,-2.29533 -2.36951,-3.37428 -0.385,-0.48828 -0.79222,-0.95861 -1.18834,-1.43792 -0.49403,-0.5176 -0.96093,-1.06253 -1.48208,-1.55281 -0.57524,-0.54118 -1.16563,-1.07079 -1.80276,-1.53752 -1.39018,-1.01836 -3.06197,-1.9529 -4.72385,-2.43607 -4.61335,-1.1488 -10.00398,-0.0672 -18.02392,0.005 11.08332,-2.76366 16.06301,-1.91891 18.59913,-1.36814 1.80488,0.54058 3.60166,1.56085 5.11072,2.67514 0.67569,0.49892 1.3015,1.0643 1.91203,1.64111 0.54558,0.51544 1.03457,1.08764 1.55186,1.63146 0.41132,0.49869 0.8339,0.9883 1.23396,1.49607 0.32943,0.41813 0.63963,0.85108 0.95383,1.28079 0.53688,0.73425 1.05583,1.48104 1.52392,2.26134 0.50636,0.91567 -0.78861,1.63179 -1.29497,0.71611 z"
         sodipodi:nodetypes="sscsscccsscsscss" />
      <path
         inkscape:transform-center-y="-6.0083791"
         inkscape:transform-center-x="13.720837"
         d="m 147.25908,245.55724 c -0.0108,-0.33612 -0.0699,-0.70251 0.0316,-1.03169 0.089,-0.28971 0.22242,-0.56445 0.35387,-0.83752 0.6434,-1.33662 0.6472,-1.23398 1.52172,-2.52104 0.96582,-1.02966 1.43574,-1.65329 2.66098,-2.43182 1.95725,-1.24367 4.31816,-1.92596 6.58503,-2.30335 0.80336,-0.13368 1.6181,-0.18654 2.42713,-0.27982 2.16797,-0.15721 5.8002,-0.0337 11.57317,1.91573 -5.04561,-4.51268 -10.05851,-3.46204 -11.74491,-3.38552 -0.85809,0.10152 -1.72246,0.1594 -2.57423,0.30459 -2.51084,0.42799 -5.03617,1.19514 -7.19066,2.59296 -1.37635,0.89293 -1.8806,1.58287 -2.96307,2.75946 -0.32512,0.48467 -0.67684,0.95251 -0.97534,1.45402 -0.43312,0.72774 -0.92455,1.75461 -1.14668,2.59089 -0.12955,0.48776 -0.0483,1.07773 0.0165,1.57139 0.2816,1.00775 1.70677,0.60954 1.42517,-0.39829 z"
         id="path7369"
         style="fill:#338000;fill-opacity:1;stroke:none;stroke-width:1.5;stroke-linecap:square;stroke-miterlimit:4;stroke-dasharray:none;stroke-opacity:1;paint-order:markers fill stroke"
         sodipodi:nodetypes="cccccccccsccccccc" />
      <path
         sodipodi:nodetypes="ccscccccccc"
         d="m 145.86826,247.95118 c -0.0445,0.0648 -0.0969,0.12487 -0.13329,0.19453 -0.46026,0.88316 -0.59688,2.05893 -0.62696,3.03386 -0.013,0.4204 0.013,0.8411 0.0195,1.26166 0.0257,2.9769 2.12133,6.89789 3.64873,11.28338 -3.50033,-4.11205 -4.9551,-8.73102 -5.12843,-11.26483 -0.005,-0.46943 -0.0312,-0.93914 -0.014,-1.40828 0.0466,-1.27075 0.24944,-2.66155 0.90455,-3.77636 0.0734,-0.12489 0.17412,-0.23165 0.26114,-0.34752 0.72374,-0.7557 1.79246,0.26778 1.06874,1.0235 z"
         id="path7371"
         style="fill:#338000;fill-opacity:1;stroke:none;stroke-width:1.5;stroke-linecap:square;stroke-miterlimit:4;stroke-dasharray:none;stroke-opacity:1;paint-order:markers fill stroke"
         inkscape:transform-center-x="0.99545068"
         inkscape:transform-center-y="8.1181693" />
      <path
         sodipodi:nodetypes="csccsccccccccc"
         d="m 137.39425,225.7512 c 0.53364,1.5039 1.05447,2.94207 1.57086,4.33739 0.51638,1.39533 1.02835,2.74784 1.54431,4.08029 2.81387,7.17483 3.64498,7.16591 6.42196,6e-4 0.51592,-1.33241 1.02785,-2.68474 1.5442,-4.07998 0.51639,-1.39518 1.03715,-2.83323 1.57077,-4.33704 0.17404,1.21926 0.21164,2.60489 0.18316,3.7551 0.038,1.54377 -0.0592,2.95549 -0.1759,3.48089 h 4.6e-4 c -4.34867,19.1448 -8.88561,13.84812 -12.66814,0 h 4.6e-4 c -0.11671,-0.52613 -0.21277,-1.94111 -0.1759,-3.4874 -0.0266,-1.14932 0.0112,-2.53273 0.18391,-3.74985 z"
         style="fill:#aade87;fill-opacity:1;stroke:none;stroke-width:2.19124;stroke-linecap:square;stroke-miterlimit:4;stroke-dasharray:none;stroke-opacity:1;paint-order:markers fill stroke"
         id="path7498" />
      <path
         id="path7500"
         style="fill:#ffaaee;fill-opacity:1;stroke:none;stroke-width:1.76999;stroke-linecap:square;stroke-miterlimit:4;stroke-dasharray:none;stroke-opacity:1;paint-order:markers fill stroke"
         d="m 138.6456,223.63787 c 0.4281,1.22324 0.84589,2.393 1.26014,3.5279 0.41421,1.13491 0.82493,2.23504 1.2388,3.3188 2.29548,5.28988 2.95193,5.42876 5.15157,4.6e-4 0.41388,-1.08372 0.82452,-2.18366 1.23873,-3.31854 0.41421,-1.13477 0.83196,-2.30442 1.26001,-3.52757 0.13979,0.99168 0.16976,2.1187 0.14705,3.05428 0.0303,1.25562 -0.0475,2.40388 -0.14091,2.83122 h 3.3e-4 c -3.48367,15.58174 -7.1322,11.24721 -10.16192,0 h 3.4e-4 c -0.0934,-0.42805 -0.17088,-1.57881 -0.14091,-2.83654 -0.0227,-0.93482 0.007,-2.06004 0.14742,-3.05001 z"
         sodipodi:nodetypes="csccsccccccccc" />
      <path
         id="path7502"
         style="fill:#ff80e5;fill-opacity:1;stroke:none;stroke-width:1.37765;stroke-linecap:square;stroke-miterlimit:4;stroke-dasharray:none;stroke-opacity:1;paint-order:markers fill stroke"
         d="m 139.62108,222.59183 c 0.34156,0.9284 0.67519,1.81618 1.00583,2.67754 0.33055,0.86136 0.65848,1.69628 0.98888,2.51882 1.80174,4.42908 2.3339,4.42361 4.11207,3.7e-4 0.33055,-0.8225 0.65813,-1.65733 0.98881,-2.51864 0.33054,-0.86127 0.66407,-1.74896 1.00574,-2.67727 0.11131,0.75265 0.13532,1.60799 0.11745,2.31807 0.0227,0.95295 -0.038,1.82441 -0.1128,2.14878 h 2.8e-4 c -2.79419,11.79779 -5.6803,8.58231 -8.1119,0 h 2.9e-4 c -0.0748,-0.32478 -0.13644,-1.19828 -0.1128,-2.15281 -0.019,-0.70949 0.007,-1.56347 0.11783,-2.31486 z"
         sodipodi:nodetypes="csccsccccccccc" />
      <path
         sodipodi:nodetypes="csccsccccccccc"
         d="m 140.21923,221.46068 c 0.29027,0.71338 0.57325,1.39555 0.85404,2.05738 0.28077,0.66189 0.55909,1.30341 0.83956,1.93549 1.52981,3.40328 1.98165,3.39908 3.4914,2.8e-4 0.28039,-0.63204 0.55878,-1.27352 0.83952,-1.93532 0.28079,-0.66178 0.56385,-1.3439 0.85393,-2.05724 0.0946,0.57835 0.11503,1.23561 0.0996,1.78122 0.019,0.73226 -0.0303,1.40188 -0.0953,1.65111 h 2.2e-4 c -2.90443,9.65154 -4.63036,7.20908 -6.88727,0 h 2.3e-4 c -0.0635,-0.2496 -0.11597,-0.92075 -0.0953,-1.6542 -0.0149,-0.54519 0.007,-1.20141 0.1,-1.77872 z"
         style="fill:#ff55dd;fill-opacity:1;stroke:none;stroke-width:1.11276;stroke-linecap:square;stroke-miterlimit:4;stroke-dasharray:none;stroke-opacity:1;paint-order:markers fill stroke"
         id="path7504" />
      <path
         id="path7506"
         style="fill:#ff2ad4;fill-opacity:1;stroke:none;stroke-width:0.857584;stroke-linecap:square;stroke-miterlimit:4;stroke-dasharray:none;stroke-opacity:1;paint-order:markers fill stroke"
         d="m 140.83068,221.15764 c 0.23859,0.51531 0.47136,1.00814 0.70217,1.48624 0.23099,0.47811 0.45968,0.94159 0.69033,1.39817 1.25779,2.45853 1.6293,2.45546 2.87062,1.9e-4 0.23063,-0.45655 0.45947,-0.91993 0.6903,-1.39804 0.23099,-0.47807 0.46359,-0.97084 0.70209,-1.48615 0.0778,0.41764 0.0946,0.89262 0.0821,1.28676 0.0149,0.52897 -0.0266,1.01269 -0.0786,1.19274 h 1.8e-4 c -2.38932,6.91986 -3.77561,5.29596 -5.66266,0 h 1.9e-4 c -0.0521,-0.18027 -0.0953,-0.66513 -0.0786,-1.19497 -0.0112,-0.39407 0.004,-0.86788 0.0821,-1.28494 z"
         sodipodi:nodetypes="csccsccccccccc" />
      <path
         sodipodi:nodetypes="csccsccccccccc"
         d="m 141.39006,220.43349 c 0.1915,0.419 0.37805,0.81996 0.56324,1.20887 0.18502,0.38865 0.36892,0.76584 0.55379,1.13722 1.00899,1.99968 1.30699,1.99719 2.30274,1.4e-4 0.18502,-0.37143 0.36855,-0.74825 0.55374,-1.13713 0.18502,-0.38864 0.37196,-0.78961 0.56322,-1.20874 0.0624,0.33973 0.076,0.72597 0.0657,1.04658 0.0149,0.43032 -0.0227,0.82373 -0.0631,0.97013 h 1.5e-4 c -1.91827,5.65225 -3.03694,4.2848 -4.54267,0 h 1.5e-4 c -0.0419,-0.14684 -0.0763,-0.54098 -0.0631,-0.97194 -0.0112,-0.32025 0.002,-0.70591 0.0657,-1.04513 z"
         style="fill:#ff00cc;fill-opacity:1;stroke:none;stroke-width:0.692722;stroke-linecap:square;stroke-miterlimit:4;stroke-dasharray:none;stroke-opacity:1;paint-order:markers fill stroke"
         id="path7508" />
      <path
         sodipodi:nodetypes="csccsccccccccc"
         d="m 141.69417,219.43687 c 0.16529,0.37416 0.32638,0.73199 0.48629,1.07911 0.15989,0.34696 0.31839,0.68371 0.4781,1.01518 0.87105,1.78511 1.12835,1.78289 1.98801,1.8e-4 0.15952,-0.33156 0.31802,-0.66799 0.47806,-1.01509 0.15989,-0.34698 0.32105,-0.70492 0.48621,-1.07906 0.054,0.30349 0.0657,0.64805 0.0566,0.93425 0.0112,0.38411 -0.019,0.73529 -0.0544,0.86607 h 1.5e-4 c -1.65147,5.01296 -2.61656,3.84074 -3.92188,0 h 1.5e-4 c -0.038,-0.13086 -0.0657,-0.48295 -0.0543,-0.86766 -0.007,-0.28628 0.004,-0.63013 0.057,-0.93298 z"
         style="fill:#d400aa;fill-opacity:1;stroke:none;stroke-width:0.608125;stroke-linecap:square;stroke-miterlimit:4;stroke-dasharray:none;stroke-opacity:1;paint-order:markers fill stroke"
         id="path7502-3" />
      <path
         id="path7504-8"
         style="fill:#aa0088;fill-opacity:1;stroke:none;stroke-width:0.491194;stroke-linecap:square;stroke-miterlimit:4;stroke-dasharray:none;stroke-opacity:1;paint-order:markers fill stroke"
         d="m 141.98334,218.98095 c 0.14016,0.28718 0.27699,0.56246 0.41289,0.82925 0.1357,0.2668 0.27014,0.52526 0.40589,0.78002 0.79102,1.02801 0.99618,1.11523 1.68796,1.4e-4 0.1357,-0.25458 0.27013,-0.51327 0.4059,-0.78002 0.13569,-0.2668 0.27241,-0.54161 0.41283,-0.82912 0.0456,0.23329 0.0555,0.498 0.0482,0.71787 0.0112,0.29534 -0.0149,0.56504 -0.0463,0.6655 h 1.3e-4 c -1.39983,3.80546 -2.20034,3.00739 -3.32973,0 h 1.1e-4 c -0.0303,-0.10058 -0.0558,-0.37098 -0.0464,-0.66673 -0.007,-0.21968 0.004,-0.48426 0.0482,-0.71691 z"
         sodipodi:nodetypes="csccsccccccccc" />
      <path
         sodipodi:nodetypes="csccsccccccccc"
         d="m 142.27898,218.85884 c 0.11541,0.20746 0.22797,0.40631 0.3393,0.599 0.11168,0.19297 0.22226,0.37959 0.33396,0.56354 0.60957,0.72732 0.7894,0.68753 1.38783,5e-5 0.11131,-0.18437 0.22227,-0.37053 0.3336,-0.56346 0.11168,-0.19296 0.22417,-0.39135 0.33929,-0.59899 0.038,0.1685 0.0456,0.35965 0.0395,0.51863 0.007,0.21336 -0.0112,0.40813 -0.038,0.48069 h 1.1e-4 c -0.9708,2.58053 -1.87549,2.0173 -2.73772,0 h 1.1e-4 c -0.0266,-0.0729 -0.046,-0.2677 -0.038,-0.48158 -0.007,-0.159 0.002,-0.34969 0.0398,-0.51788 z"
         style="fill:#800066;fill-opacity:1;stroke:none;stroke-width:0.378553;stroke-linecap:square;stroke-miterlimit:4;stroke-dasharray:none;stroke-opacity:1;paint-order:markers fill stroke"
         id="path7506-7" />
      <path
         id="path7508-6"
         style="fill:#550044;fill-opacity:1;stroke:none;stroke-width:0.305782;stroke-linecap:square;stroke-miterlimit:4;stroke-dasharray:none;stroke-opacity:1;paint-order:markers fill stroke"
         d="m 142.54939,218.56699 c 0.0927,0.16896 0.18278,0.33021 0.27243,0.48721 0.93058,-0.78955 0.9101,-0.82342 1.649,9e-5 0.0897,-0.15673 0.17981,-0.31797 0.27241,-0.48717 0.0303,0.1368 0.038,0.29262 0.0303,0.42171 0.007,0.1735 -0.0112,0.33203 -0.0303,0.39092 h 7e-5 c -0.68104,1.69192 -1.56078,1.72812 -2.19609,0 h 7e-5 c -0.019,-0.0593 -0.038,-0.21787 -0.0303,-0.39181 -0.004,-0.12858 0.002,-0.28448 0.0303,-0.42127 z"
         sodipodi:nodetypes="cccccccccccc" />
      <path
         d="m 151.14563,217.58436 c 0.46628,0.37263 0.56856,1.18976 -0.0685,2.41105 -0.11865,0.1391 -0.23699,0.27846 -0.35548,0.41768 -0.34024,0.25633 -0.71863,0.44398 -1.02073,0.769 -0.59883,0.64435 -0.76885,0.89651 -0.73917,0.95476 0.0612,-0.0188 0.11703,-0.042 0.16086,-0.0753 0.23147,-0.17546 0.26889,-0.404 0.40329,-0.60601 0.11064,-0.0738 0.22125,-0.14764 0.33192,-0.22145 3.3964,-1.39888 5.87315,1.18481 2.47675,2.5837 -0.1803,0.0303 -0.36057,0.0608 -0.54084,0.0912 -0.42538,-0.0228 -0.83573,-0.12274 -1.27614,-0.0685 -1.00436,0.12378 -1.24032,0.21667 -1.16907,0.28197 0.0538,0.0221 0.10628,0.0375 0.15675,0.0404 0.28996,0.0167 0.4668,-0.13284 0.70017,-0.19923 0.1321,0.0156 0.2642,0.0313 0.39629,0.047 3.49167,1.14046 3.69863,4.7136 0.20696,3.57313 -0.15679,-0.094 -0.31371,-0.18776 -0.47055,-0.2817 -0.3088,-0.29345 -0.55612,-0.63591 -0.92639,-0.88046 -1.27777,-0.84405 -1.1717,-0.60062 -0.90241,-0.29555 -0.25934,-0.24745 -0.65515,-0.61894 -1.28934,-1.20322 -0.75157,-0.44732 -0.93101,-0.98581 -0.73013,-1.28528 -0.001,-0.006 -0.002,-0.0119 -0.002,-0.0182 -0.2618,-0.22635 -0.25277,-0.76675 0.28959,-1.40812 0.11054,-0.30071 0.18766,-0.59982 0.33159,-0.90212 0.0962,-0.20194 0.33533,-0.3958 0.37914,-0.59052 0.0642,-0.28327 -0.0543,-0.4822 -0.0814,-0.72331 0.0372,-0.1277 0.0743,-0.25546 0.11144,-0.38318 1.06173,-2.03549 2.84996,-2.64912 3.62706,-2.02803 z m -2.63594,8.54203 c 0.71028,0.67773 0.27764,0.31452 0,0 z"
         style="fill:url(#radialGradient7616);fill-opacity:1;stroke:none;stroke-width:0.39749;stroke-linecap:square;stroke-miterlimit:4;stroke-dasharray:none;stroke-opacity:1;paint-order:markers fill stroke"
         id="path7552" />
    </g>
  </g>
</svg>
