<?xml version="1.0" encoding="UTF-8" standalone="no"?>
<svg
   xmlns:dc="http://purl.org/dc/elements/1.1/"
   xmlns:cc="http://creativecommons.org/ns#"
   xmlns:rdf="http://www.w3.org/1999/02/22-rdf-syntax-ns#"
   xmlns:svg="http://www.w3.org/2000/svg"
   xmlns="http://www.w3.org/2000/svg"
   xmlns:xlink="http://www.w3.org/1999/xlink"
   xmlns:sodipodi="http://sodipodi.sourceforge.net/DTD/sodipodi-0.dtd"
   xmlns:inkscape="http://www.inkscape.org/namespaces/inkscape"
   sodipodi:docname="Pancakeplant2.svg"
   inkscape:version="1.0 (4035a4fb49, 2020-05-01)"
   id="svg1577"
   version="1.1"
   viewBox="0 0 75 75"
   height="75mm"
   width="75mm"
   inkscape:export-filename="C:\Program Files (x86)\Steam\steamapps\common\RimWorld\Mods\rimworldmod-houseplants\Textures\Things\Plant\Pancakeplant\Pancakeplant_a.png"
   inkscape:export-xdpi="96.136154"
   inkscape:export-ydpi="96.136154">
  <defs
     id="defs1571">
    <linearGradient
       id="linearGradient913"
       inkscape:collect="always">
      <stop
         id="stop909"
         offset="0"
         style="stop-color:#447821;stop-opacity:1;" />
      <stop
         id="stop911"
         offset="1"
         style="stop-color:#225500;stop-opacity:1" />
    </linearGradient>
    <linearGradient
       id="linearGradient888"
       inkscape:collect="always">
      <stop
         id="stop884"
         offset="0"
         style="stop-color:#502d16;stop-opacity:1" />
      <stop
         id="stop886"
         offset="1"
         style="stop-color:#550000;stop-opacity:1" />
    </linearGradient>
    <linearGradient
       inkscape:collect="always"
       id="linearGradient887">
      <stop
         style="stop-color:#002b11;stop-opacity:1;"
         offset="0"
         id="stop883" />
      <stop
         style="stop-color:#005522;stop-opacity:1"
         offset="1"
         id="stop885" />
    </linearGradient>
    <linearGradient
       inkscape:collect="always"
       id="linearGradient871">
      <stop
         style="stop-color:#2d5016;stop-opacity:1"
         offset="0"
         id="stop867" />
      <stop
         style="stop-color:#17280b;stop-opacity:1"
         offset="1"
         id="stop869" />
    </linearGradient>
    <linearGradient
       inkscape:collect="always"
       xlink:href="#linearGradient871"
       id="linearGradient873"
       x1="152.42061"
       y1="226.28935"
       x2="149.98613"
       y2="225.01639"
       gradientUnits="userSpaceOnUse"
       spreadMethod="reflect" />
    <linearGradient
       inkscape:collect="always"
       xlink:href="#linearGradient887"
       id="linearGradient889"
       x1="140.77922"
       y1="214.02603"
       x2="137.64636"
       y2="215.104"
       gradientUnits="userSpaceOnUse"
       spreadMethod="reflect" />
    <linearGradient
       gradientTransform="matrix(-1,0,0,0.80849034,294.1088,51.823013)"
       inkscape:collect="always"
       xlink:href="#linearGradient887"
       id="linearGradient889-5"
       x1="140.77922"
       y1="214.02603"
       x2="137.64636"
       y2="215.104"
       gradientUnits="userSpaceOnUse"
       spreadMethod="reflect" />
    <linearGradient
       gradientTransform="matrix(-1,0,0,1,290.58999,0)"
       spreadMethod="reflect"
       gradientUnits="userSpaceOnUse"
       y2="242.37839"
       x2="144.63293"
       y1="242.35796"
       x1="145.73512"
       id="linearGradient890"
       xlink:href="#linearGradient888"
       inkscape:collect="always" />
    <radialGradient
       gradientUnits="userSpaceOnUse"
       gradientTransform="matrix(0.21958026,0.27634238,-0.28957486,0.23009465,232.03702,224.46715)"
       r="6.7316"
       fy="214.57913"
       fx="-160.7429"
       cy="214.57913"
       cx="-160.7429"
       id="radialGradient915"
       xlink:href="#linearGradient913"
       inkscape:collect="always" />
    <radialGradient
       inkscape:collect="always"
       xlink:href="#linearGradient913"
       id="radialGradient915-1"
       cx="-160.7429"
       cy="214.57913"
       fx="-160.7429"
       fy="214.57913"
       r="6.7315998"
       gradientTransform="matrix(0.24994352,0.24921646,-0.26115004,0.26191182,225.70162,222.46282)"
       gradientUnits="userSpaceOnUse" />
    <radialGradient
       inkscape:collect="always"
       xlink:href="#linearGradient913"
       id="radialGradient915-5"
       cx="-160.7429"
       cy="214.57913"
       fx="-160.7429"
       fy="214.57913"
       r="6.7315998"
       gradientTransform="matrix(-0.27655843,0.21930811,0.22980955,0.28980116,60.446147,217.49293)"
       gradientUnits="userSpaceOnUse" />
    <radialGradient
       gradientUnits="userSpaceOnUse"
       gradientTransform="matrix(-0.32417009,0.011313,0.14630797,0.3976026,72.277886,149.93093)"
       r="6.7315998"
       fy="214.57913"
       fx="-160.7429"
       cy="214.57913"
       cx="-160.7429"
       id="radialGradient915-5-2"
       xlink:href="#linearGradient913"
       inkscape:collect="always" />
    <radialGradient
       gradientUnits="userSpaceOnUse"
       gradientTransform="matrix(-0.27416392,0.02909221,-0.04242154,0.35370072,106.03277,176.32326)"
       r="6.7315998"
       fy="214.57913"
       fx="-160.7429"
       cy="214.57913"
       cx="-160.7429"
       id="radialGradient915-5-22"
       xlink:href="#linearGradient913"
       inkscape:collect="always" />
    <radialGradient
       gradientUnits="userSpaceOnUse"
       gradientTransform="matrix(0.31656511,-0.03701501,-0.0096976,-0.36334366,198.09335,300.36771)"
       r="6.7315998"
       fy="214.57913"
       fx="-160.7429"
       cy="214.57913"
       cx="-160.7429"
       id="radialGradient915-5-8"
       xlink:href="#linearGradient913"
       inkscape:collect="always" />
    <radialGradient
       gradientUnits="userSpaceOnUse"
       gradientTransform="matrix(-0.35295232,-0.00229448,0.00240442,-0.36985315,93.507821,310.32365)"
       r="6.7315998"
       fy="214.57913"
       fx="-160.7429"
       cy="214.57913"
       cx="-160.7429"
       id="radialGradient915-1-3"
       xlink:href="#linearGradient913"
       inkscape:collect="always" />
    <radialGradient
       inkscape:collect="always"
       xlink:href="#linearGradient913"
       id="radialGradient915-5-22-8"
       cx="-160.7429"
       cy="214.57913"
       fx="-160.7429"
       fy="214.57913"
       r="6.7315998"
       gradientTransform="matrix(-0.25380435,-0.10768268,-0.20881906,0.28861459,147.54772,157.37035)"
       gradientUnits="userSpaceOnUse" />
  </defs>
  <sodipodi:namedview
     inkscape:window-maximized="1"
     inkscape:window-y="-8"
     inkscape:window-x="-8"
     inkscape:window-height="1137"
     inkscape:window-width="1920"
     fit-margin-bottom="1"
     fit-margin-right="1"
     fit-margin-left="1"
     lock-margins="true"
     fit-margin-top="1"
     showgrid="false"
     inkscape:document-rotation="0"
     inkscape:current-layer="g3593"
     inkscape:document-units="mm"
     inkscape:cy="123.58607"
     inkscape:cx="86.366744"
     inkscape:zoom="2.6819867"
     inkscape:pageshadow="2"
     inkscape:pageopacity="0.0"
     borderopacity="1.0"
     bordercolor="#666666"
     pagecolor="#ffffff"
     id="base"
     showguides="false"
     inkscape:guide-bbox="true">
    <sodipodi:guide
       position="8.4416543,19.285081"
       orientation="0,-1"
       id="guide4666" />
    <sodipodi:guide
       position="28.84804,37.458843"
       orientation="1,0"
       id="guide4668" />
    <sodipodi:guide
       position="46.559378,24.063244"
       orientation="1,0"
       id="guide4670" />
  </sodipodi:namedview>
  <metadata
     id="metadata1574">
    <rdf:RDF>
      <cc:Work
         rdf:about="">
        <dc:format>image/svg+xml</dc:format>
        <dc:type
           rdf:resource="http://purl.org/dc/dcmitype/StillImage" />
        <dc:title></dc:title>
      </cc:Work>
    </rdf:RDF>
  </metadata>
  <g
     transform="translate(-120.40113,-201.31166)"
     id="layer1"
     inkscape:groupmode="layer"
     inkscape:label="Layer 1">
    <g
       id="g3593"
       transform="matrix(-1,0,0,1,302.75893,0.52916667)">
      <g
         style="stroke-width:1.5;stroke-miterlimit:4;stroke-dasharray:none"
         id="g1426">
        <path
           d="m 134.0845,230.7104 c 0.39177,-0.51628 1.02725,-1.09399 1.64191,-1.31297 0.15143,-0.054 0.31457,-0.0664 0.47185,-0.0996 0.16728,-8e-5 0.33729,-0.0303 0.50184,-2.3e-4 0.39541,0.0722 0.98702,0.39003 1.29069,0.59403 0.27619,0.18552 0.5477,0.3829 0.78652,0.61455 0.69813,0.67718 1.1455,1.38891 1.70941,2.18012 1.55712,2.51424 2.85935,5.17757 4.09602,7.86095 0.45802,0.95447 0.84422,1.94116 1.30067,2.8961 0.30113,0.62922 1.19099,0.20336 0.88986,-0.42587 v 0 c -0.45532,-0.95017 -0.8371,-1.93374 -1.2946,-2.88319 -1.26296,-2.73957 -2.59254,-5.45926 -4.18961,-8.02199 -0.88116,-1.22734 -1.53326,-2.25367 -2.83189,-3.08999 -0.52971,-0.34114 -1.14661,-0.62739 -1.77981,-0.71096 -0.23535,-0.0311 -0.47442,0.0185 -0.71162,0.0278 -0.23165,0.0611 -0.47138,0.0973 -0.69495,0.18335 -0.75917,0.29239 -1.54237,1.00378 -2.01858,1.65835 -0.37451,0.58852 0.45778,1.11815 0.83229,0.52963 z"
           id="path1351"
           style="fill:#501616;stroke:#000000;stroke-width:1.5;stroke-linecap:square;stroke-miterlimit:4;stroke-dasharray:none;paint-order:markers fill stroke" />
        <path
           d="m 129.00784,239.95729 c 0.0439,-0.1447 0.007,-0.35237 0.0602,-0.48996 0.0253,-0.0659 0.52636,-0.39114 0.53499,-0.39676 0.55113,-0.25709 1.15024,-0.47296 1.76215,-0.52303 0.69408,-0.0568 1.5866,0.0214 2.25857,0.12837 0.44501,0.0708 0.88242,0.1832 1.32364,0.27477 0.44778,0.12959 0.90105,0.24152 1.34338,0.38865 1.57369,0.52345 3.24142,1.30041 4.60389,2.25446 0.27089,0.18969 0.51979,0.40899 0.77968,0.61348 0.92067,0.75963 1.55647,1.75591 2.07682,2.81432 0.0369,0.0866 0.0738,0.17333 0.11072,0.26 0.27489,0.64113 1.18158,0.25237 0.90669,-0.38876 v 0 c -0.0442,-0.10256 -0.0884,-0.20505 -0.13264,-0.30758 -0.58847,-1.18998 -1.31461,-2.30398 -2.3536,-3.15488 -0.28765,-0.22399 -0.56382,-0.46353 -0.86292,-0.67196 -1.43085,-0.99715 -3.20426,-1.82161 -4.85547,-2.36703 -0.46687,-0.1542 -0.94518,-0.27132 -1.41776,-0.40699 -0.47329,-0.0965 -0.94247,-0.21596 -1.41986,-0.28964 -0.81847,-0.12628 -1.72136,-0.1925 -2.55151,-0.11519 -0.74613,0.0695 -1.47067,0.3416 -2.13177,0.67884 -0.32655,0.23364 -0.55261,0.34614 -0.77588,0.68559 -0.18734,0.28484 -0.20407,0.57234 -0.23848,0.89297 -0.0851,0.69236 0.89407,0.81269 0.97915,0.12033 z"
           id="path1353"
           style="fill:#501616;stroke:#000000;stroke-width:1.5;stroke-linecap:square;stroke-miterlimit:4;stroke-dasharray:none;paint-order:markers fill stroke" />
        <path
           d="m 141.18196,247.16497 c 0.15055,-0.52159 0.58319,-0.83803 0.99838,-1.14676 0.40784,-0.24315 0.85354,-0.44249 1.32647,-0.51568 0.17853,-0.0276 0.35212,-0.0239 0.53177,-0.0263 0.27868,0.0237 0.14957,0.003 0.3883,0.054 0.6851,0.13135 0.87085,-0.83752 0.18576,-0.96887 v 0 c -0.38155,-0.0686 -0.18398,-0.0436 -0.59318,-0.0715 -0.28576,0.007 -0.44097,0.001 -0.73121,0.0507 -0.60888,0.10392 -1.18128,0.36287 -1.70095,0.68932 -0.68628,0.52109 -1.27567,1.03303 -1.39186,1.93513 0,0.69757 0.98652,0.69757 0.98652,0 z"
           id="path1355"
           style="fill:#501616;stroke:#000000;stroke-width:1.5;stroke-linecap:square;stroke-miterlimit:4;stroke-dasharray:none;paint-order:markers fill stroke" />
        <path
           d="m 145.02938,228.4008 c 0.0122,0.28689 -0.061,0.56569 -0.14778,0.83637 -0.23835,0.60105 -0.32385,1.24085 -0.40435,1.87783 -0.0828,0.62187 -0.15607,1.24752 -0.13708,1.87625 0.0131,0.43319 0.0448,0.60999 0.0976,1.03562 0.12104,0.86947 0.44227,1.68304 0.80593,2.4752 0.18049,0.36232 0.37995,0.71401 0.55955,1.07661 0.0944,0.18809 0.10888,0.40139 0.14145,0.60659 0.0433,0.29541 0.0579,0.59378 0.0672,0.89187 0.003,0.16144 0.002,0.082 0.004,0.2383 0.009,0.69752 0.99535,0.68492 0.98644,-0.0126 v 0 c -0.002,-0.16769 -7.9e-4,-0.0822 -0.004,-0.25652 -0.0107,-0.33974 -0.0286,-0.67973 -0.079,-1.01627 -0.0485,-0.30351 -0.0859,-0.61355 -0.23175,-0.8894 -0.17554,-0.35405 -0.36829,-0.69846 -0.54726,-1.05088 -0.3228,-0.70005 -0.61291,-1.41727 -0.72333,-2.18589 -0.0458,-0.3597 -0.0776,-0.54323 -0.09,-0.90707 -0.02,-0.58944 0.0522,-1.17571 0.12937,-1.75865 0.0724,-0.5783 0.14623,-1.15849 0.36603,-1.70313 0.11529,-0.3674 0.20669,-0.74605 0.19383,-1.13423 0,-0.69758 -0.98652,-0.69758 -0.98652,0 z"
           id="path1357"
           style="fill:#501616;stroke:#000000;stroke-width:1.5;stroke-linecap:square;stroke-miterlimit:4;stroke-dasharray:none;paint-order:markers fill stroke" />
        <path
           d="m 146.66857,249.50426 c 0,-0.46206 0,-0.92411 0,-1.38617 -0.005,-0.54704 0.0455,-1.09247 0.0801,-1.63792 0.0355,-0.59507 0.0496,-1.19107 0.057,-1.78705 -0.007,-0.4403 0.0235,-0.87949 0.0441,-1.319 0.0249,-0.49471 0.059,-0.98872 0.0772,-1.48386 0.007,-0.55914 0.0267,-1.11752 0.0515,-1.67612 0.0176,-0.40801 0.0308,-0.81619 0.0369,-1.22454 0.003,-0.28978 0.003,-0.57959 0.003,-0.86939 0.0106,-0.51812 -0.002,-1.03391 -0.0584,-1.54908 -0.0272,-0.22806 -0.0627,-0.45527 -0.0771,-0.68465 -0.008,-0.20708 -0.005,-0.41446 -0.005,-0.62165 4e-5,-0.0478 8e-5,-0.0956 1.2e-4,-0.14336 10e-4,-1.47978 -2.09149,-1.48152 -2.09272,-0.002 v 0 c -4e-5,0.0483 -8e-5,0.0966 -1.2e-4,0.14492 -2e-5,0.25361 -0.003,0.5075 0.0101,0.76086 0.0179,0.26079 0.0513,0.51989 0.0855,0.77897 0.0501,0.43776 0.0527,0.87604 0.0453,1.31645 9e-5,0.27931 7.9e-4,0.55864 -0.002,0.83794 -0.006,0.38764 -0.0184,0.77511 -0.035,1.16243 -0.025,0.56419 -0.045,1.1282 -0.0522,1.69293 -0.0176,0.48789 -0.0522,0.97462 -0.0763,1.46213 -0.0216,0.46354 -0.053,0.92683 -0.0462,1.39118 -0.007,0.56047 -0.0199,1.12095 -0.0529,1.68056 -0.0372,0.58943 -0.0906,1.17882 -0.0842,1.76999 0,0.46206 0,0.92412 0,1.38618 0,1.47978 2.09273,1.47978 2.09273,0 z"
           id="path1359"
           style="fill:url(#linearGradient890);fill-opacity:1;stroke:#000000;stroke-width:1.5;stroke-linecap:square;stroke-miterlimit:4;stroke-dasharray:none;paint-order:markers fill stroke" />
        <path
           d="m 155.55192,232.8364 c -0.39698,-0.0417 -0.79191,-0.11851 -1.19181,-0.13069 -0.13358,-0.004 -0.26728,0.002 -0.40092,0.003 -0.86508,0.0439 -1.65577,0.34163 -2.34817,0.86057 -0.17862,0.13387 -0.3427,0.28612 -0.51405,0.42918 -0.98206,0.92122 -1.75593,2.02437 -2.47017,3.1577 -0.62161,1.03337 -1.11477,2.13477 -1.61072,3.23161 -0.22997,0.51314 -0.43887,1.03476 -0.67988,1.54276 -0.13754,0.28465 -0.30317,0.55498 -0.45517,0.83215 -0.33484,0.61196 0.5306,1.08549 0.86544,0.47353 v 0 c 0.16049,-0.2941 0.33693,-0.58015 0.48103,-0.88283 0.2436,-0.51347 0.45587,-1.04016 0.68747,-1.55916 0.47736,-1.05572 0.9506,-2.11647 1.54664,-3.11241 0.65921,-1.04789 1.37065,-2.06979 2.27069,-2.92865 0.14378,-0.12222 0.28204,-0.25124 0.43133,-0.36666 0.53253,-0.41173 1.13485,-0.6526 1.80875,-0.69136 0.4899,-0.01 0.97261,0.0517 1.45718,0.11988 0.69219,0.0865 0.81455,-0.89238 0.12236,-0.9789 z"
           id="path1361"
           style="fill:#501616;stroke:#000000;stroke-width:1.5;stroke-linecap:square;stroke-miterlimit:4;stroke-dasharray:none;paint-order:markers fill stroke" />
        <path
           sodipodi:nodetypes="sssscs"
           d="m 135.83848,233.62564 c -1.31367,2.2666 -4.98615,2.59276 -8.20271,0.72851 -3.21657,-1.86425 -4.75918,-5.21296 -3.44551,-7.47956 1.31367,-2.2666 4.98615,-2.59276 8.20272,-0.72851 1.51014,0.87525 3.83301,2.68195 2.21135,3.27451 2.34608,-0.37881 1.93107,3.00259 1.23415,4.20505 z"
           style="fill:url(#radialGradient915);fill-opacity:1;stroke:#000000;stroke-width:1.5;stroke-linecap:square;stroke-miterlimit:4;stroke-dasharray:none;paint-order:markers fill stroke"
           id="path1363" />
        <path
           d="m 153.79412,243.76401 c -1.06687,-0.42627 -2.20512,-0.59901 -3.33829,-0.73982 -1.08192,-0.12115 -2.17299,-0.11758 -3.25223,0.02 -0.71652,0.0889 -1.15346,0.29098 -1.67767,0.78042 -0.16179,0.1607 -0.2753,0.35112 -0.38209,0.54968 -0.32001,0.61984 0.55658,1.0724 0.87659,0.45255 v 0 c 0.0489,-0.10445 0.10818,-0.20122 0.1857,-0.2877 0.34208,-0.33601 0.6396,-0.46355 1.1235,-0.51651 0.99692,-0.12994 2.0056,-0.12883 3.0052,-0.0193 1.0543,0.12955 2.11448,0.28575 3.10712,0.68227 0.6516,0.24902 1.00378,-0.67249 0.35217,-0.92152 z"
           id="path1365"
           style="fill:#501616;stroke:#000000;stroke-width:1.5;stroke-linecap:square;stroke-miterlimit:4;stroke-dasharray:none;paint-order:markers fill stroke" />
        <path
           inkscape:transform-center-y="0.33281684"
           inkscape:transform-center-x="-4.011804"
           sodipodi:nodetypes="ssssssssss"
           d="m 133.25019,229.76641 c -0.17076,0.29461 -0.58757,-0.01 -0.86397,0.21191 -5.46816,4.38071 -1.33761,0.82523 -0.20215,-0.18097 0.0639,-0.0567 -0.0229,-0.22574 -0.10611,-0.22708 -3.97895,-0.0644 -3.99341,-0.14249 -0.0156,-0.19877 0.0856,-0.001 0.15916,-0.2076 0.0783,-0.24813 -5.78129,-2.89709 -3.57968,-1.92034 0.16755,-0.18499 0.21796,0.10089 0.46804,-0.1593 0.69643,-0.0269 0.3064,0.17759 0.41636,0.56039 0.2456,0.855 z"
           style="fill:#5aa02c;stroke-width:1.5;stroke-linecap:square;paint-order:markers fill stroke;stroke-miterlimit:4;stroke-dasharray:none;stroke:#000000"
           id="path1367" />
        <path
           id="path1369"
           style="fill:url(#radialGradient915-1);fill-opacity:1;stroke:#000000;stroke-width:1.5;stroke-linecap:square;stroke-miterlimit:4;stroke-dasharray:none;paint-order:markers fill stroke"
           d="m 131.19782,242.63881 c -1.04391,2.40279 -4.65439,3.14973 -8.06425,1.66831 -3.40985,-1.48143 -5.32784,-4.63021 -4.28394,-7.03302 1.0439,-2.4028 4.65439,-3.14973 8.06425,-1.66831 1.6009,0.69552 4.11636,2.2227 2.57374,2.99806 2.28683,-0.64648 2.26401,2.76024 1.7102,4.03496 z"
           sodipodi:nodetypes="sssscs" />
        <path
           inkscape:transform-center-y="-2.7113986"
           inkscape:transform-center-x="-19.558877"
           id="path1371"
           style="fill:#5aa02c;stroke-width:1.5;stroke-linecap:square;paint-order:markers fill stroke;stroke-miterlimit:4;stroke-dasharray:none;stroke:#000000"
           d="m 127.86866,239.10731 c -0.13571,0.31232 -0.58476,0.0582 -0.8338,0.31 -4.92728,4.98129 -1.23368,0.97378 -0.22169,-0.15645 0.057,-0.0636 -0.0487,-0.2216 -0.13164,-0.2133 -3.95987,0.39427 -3.98324,0.31835 -0.0384,-0.19565 0.0849,-0.011 0.13418,-0.22458 0.0492,-0.2555 -6.07645,-2.21201 -3.77702,-1.49531 0.14513,-0.20306 0.22813,0.0751 0.44676,-0.21176 0.68869,-0.10694 0.32481,0.14111 0.47814,0.50868 0.34241,0.82103 z"
           sodipodi:nodetypes="ssssssssss" />
        <path
           id="path1373"
           style="fill:url(#radialGradient915-5);fill-opacity:1;stroke:#000000;stroke-width:1.5;stroke-linecap:square;stroke-miterlimit:4;stroke-dasharray:none;paint-order:markers fill stroke"
           d="m 152.0571,248.24131 c 0.76509,2.50557 4.26776,3.65656 7.82344,2.57083 3.55568,-1.08574 5.81793,-3.99706 5.05285,-6.50262 -0.76509,-2.50556 -4.26776,-3.65655 -7.82344,-2.57082 -1.66936,0.50974 -4.3416,1.74223 -2.8967,2.6873 -2.19892,-0.90129 -2.56204,2.48608 -2.15615,3.81531 z"
           sodipodi:nodetypes="sssscs" />
        <path
           inkscape:transform-center-y="1.7573056"
           inkscape:transform-center-x="12.155356"
           id="path1375"
           style="fill:#5aa02c;stroke-width:1.5;stroke-linecap:square;paint-order:markers fill stroke;stroke-miterlimit:4;stroke-dasharray:none;stroke:#000000"
           d="m 155.44655,245.108 c 0.0994,0.32568 0.57441,0.12407 0.79335,0.40242 4.33147,5.50725 1.11546,1.10723 0.23795,-0.13034 -0.0494,-0.0697 0.0736,-0.21465 0.15487,-0.19707 3.88976,0.84017 3.92158,0.76738 0.0603,-0.19005 -0.0831,-0.0207 -0.10786,-0.23831 -0.0199,-0.25942 6.28787,-1.50965 3.92202,-1.05811 -0.12118,-0.2182 -0.23516,0.0488 -0.41968,-0.26133 -0.67215,-0.18424 -0.33871,0.10338 -0.53265,0.45129 -0.43321,0.77696 z"
           sodipodi:nodetypes="ssssssssss" />
        <path
           sodipodi:nodetypes="sssscs"
           d="m 152.70426,235.33328 c 0.0854,2.65219 3.16686,5.89622 6.88264,7.24578 3.71578,1.34955 6.6588,0.29357 6.5734,-2.3586 -0.0854,-2.65219 -3.16686,-5.89622 -6.88264,-7.24578 -1.74452,-0.6336 -4.64567,-1.28871 -3.49713,0.45498 -1.8879,-2.19065 -3.12158,0.49661 -3.07627,1.90362 z"
           style="fill:url(#radialGradient915-5-2);fill-opacity:1;stroke:#000000;stroke-width:1.5;stroke-linecap:square;stroke-miterlimit:4;stroke-dasharray:none;paint-order:markers fill stroke"
           id="path1377" />
        <path
           sodipodi:nodetypes="ssssssssss"
           d="m 156.26421,234.3916 c 0.0111,0.34474 0.52219,0.47622 0.66099,0.85697 2.74588,7.53289 0.78822,1.67173 0.26371,0.0406 -0.0295,-0.0919 0.12699,-0.13778 0.20089,-0.0704 3.5362,3.22488 3.58589,3.18256 0.10777,-0.12509 -0.0748,-0.0712 -0.042,-0.27482 0.0484,-0.2365 6.464,2.74038 4.06225,1.60888 -0.0601,-0.26602 -0.23975,-0.1091 -0.33703,-0.49511 -0.60087,-0.59094 -0.35395,-0.1286 -0.63189,0.0467 -0.62079,0.39143 z"
           style="fill:#5aa02c;stroke-width:1.5;stroke-linecap:square;paint-order:markers fill stroke;stroke-miterlimit:4;stroke-dasharray:none;stroke:#000000"
           id="path1379" />
        <path
           sodipodi:nodetypes="sssscs"
           d="m 137.65702,249.456 c -1.02334,2.41094 0.19992,5.18739 2.73217,6.20136 2.53225,1.01397 5.41461,-0.11849 6.43791,-2.52943 1.02334,-2.41093 -0.19992,-5.18738 -2.73216,-6.20136 -1.18887,-0.47605 -3.33041,-0.90467 -3.09504,0.61712 -0.66561,-1.88607 -2.80001,0.63327 -3.34288,1.91231 z"
           style="fill:url(#radialGradient915-5-22);fill-opacity:1;stroke:#000000;stroke-width:1.5;stroke-linecap:square;stroke-miterlimit:4;stroke-dasharray:none;paint-order:markers fill stroke"
           id="path1381" />
        <path
           sodipodi:nodetypes="ssssssssss"
           d="m 140.78351,248.99888 c -0.13314,0.31332 0.23763,0.40353 0.19592,0.74231 -0.82535,6.70264 -0.0345,1.47712 0.2025,0.0217 0.0134,-0.082 0.16239,-0.13287 0.19603,-0.0757 1.60919,2.73263 1.66796,2.69121 0.14118,-0.12021 -0.0328,-0.0606 0.0785,-0.2479 0.13782,-0.21823 4.2431,2.12162 2.71329,1.23012 0.0598,-0.23885 -0.15431,-0.0855 -0.0759,-0.43147 -0.25571,-0.50347 -0.24119,-0.0966 -0.54459,0.0792 -0.6776,0.39254 z"
           style="fill:#5aa02c;stroke:#000000;stroke-width:1.5;stroke-linecap:square;stroke-miterlimit:4;stroke-dasharray:none;paint-order:markers fill stroke"
           id="path1383" />
        <path
           d="m 146.43253,234.46879 c 0.15264,-0.41348 0.39738,-0.80899 0.69686,-1.13372 0.0727,-0.0788 0.15644,-0.14672 0.23463,-0.22014 0.63298,-0.49985 1.39234,-0.7945 2.16509,-0.9989 0.58494,-0.1278 1.14072,-0.1926 1.70649,-0.39828 0.0823,-0.0396 0.16451,-0.0792 0.24674,-0.11883 0.62565,-0.3085 0.18936,-1.1933 -0.43629,-0.88479 v 0 c -0.0513,0.0262 -0.10267,0.0525 -0.15399,0.0788 -0.52092,0.19948 -1.08133,0.2313 -1.61937,0.37046 -0.93202,0.2545 -1.8439,0.61456 -2.59324,1.24118 -0.10746,0.10561 -0.22133,0.205 -0.32242,0.31671 -0.38468,0.4251 -0.68862,0.94091 -0.87453,1.48162 -0.188,0.67176 0.76202,0.93762 0.95002,0.26586 z"
           id="path1385"
           style="fill:#501616;stroke:#000000;stroke-width:1.5;stroke-linecap:square;stroke-miterlimit:4;stroke-dasharray:none;paint-order:markers fill stroke" />
        <path
           sodipodi:nodetypes="sssscs"
           d="m 146.7091,229.65361 c -0.94148,-2.44477 1.10782,-5.50972 4.57722,-6.84577 3.4694,-1.33603 7.04512,-0.43725 7.98657,2.0075 0.94148,2.44476 -1.10782,5.50971 -4.57722,6.84575 -1.62886,0.62724 -4.4929,1.30333 -3.93735,-0.33138 -1.17638,2.06487 -3.54977,-0.37914 -4.04922,-1.6761 z"
           style="fill:url(#radialGradient915-1-3);fill-opacity:1;stroke:#000000;stroke-width:1.5;stroke-linecap:square;stroke-miterlimit:4;stroke-dasharray:none;paint-order:markers fill stroke"
           id="path1387" />
        <path
           inkscape:transform-center-y="-7.0875375"
           inkscape:transform-center-x="7.3423289"
           sodipodi:nodetypes="ssssssssss"
           d="m 150.71591,229.76205 c -0.12242,-0.31777 0.37592,-0.45168 0.3768,-0.80583 0.0176,-7.0065 0.19618,-1.55941 0.26773,-0.0439 0.004,0.0853 0.19021,0.12371 0.24344,0.0597 2.5457,-3.05868 2.61559,-3.02096 0.16461,0.11252 -0.0528,0.0674 0.0618,0.25418 0.14413,0.21662 5.88239,-2.68586 3.74081,-1.58371 0.039,0.24651 -0.21527,0.10647 -0.16987,0.4643 -0.41582,0.55929 -0.33047,0.1273 -0.6976,-0.0272 -0.81996,-0.34496 z"
           style="fill:#5aa02c;stroke-width:1.5;stroke-linecap:square;paint-order:markers fill stroke;stroke-miterlimit:4;stroke-dasharray:none;stroke:#000000"
           id="path1389" />
        <path
           style="fill:#501616;stroke:#000000;stroke-width:1.5;stroke-linecap:square;stroke-miterlimit:4;stroke-dasharray:none;paint-order:markers fill stroke"
           id="path1391"
           d="m 144.19196,236.59925 c 0.52831,0.12492 0.86549,0.5416 1.19411,0.94123 0.26276,0.39549 0.48361,0.83093 0.57979,1.29973 0.0363,0.17697 0.0411,0.35053 0.0522,0.52985 -0.0101,0.27951 0.004,0.14954 -0.035,0.39047 -0.0978,0.6907 0.87901,0.82895 0.97678,0.13827 v 0 c 0.0499,-0.38444 0.0346,-0.18589 0.0425,-0.59596 -0.0209,-0.28508 -0.0225,-0.4404 -0.0863,-0.72787 -0.13351,-0.60308 -0.42008,-1.16217 -0.7715,-1.66529 -0.55395,-0.66003 -1.09404,-1.22374 -2.00074,-1.29578 -0.69674,0.034 -0.6486,1.01939 0.0481,0.98535 z" />
        <path
           id="path1393"
           style="fill:url(#radialGradient915-5-22-8);fill-opacity:1;stroke:#000000;stroke-width:1.5;stroke-linecap:square;stroke-miterlimit:4;stroke-dasharray:none;paint-order:markers fill stroke"
           d="m 139.68586,236.65895 c -2.06521,1.61083 -2.34388,4.63198 -0.62246,6.7479 1.72142,2.11592 4.79109,2.52539 6.85627,0.91455 2.06521,-1.61082 2.34388,-4.63197 0.62245,-6.7479 -0.80819,-0.99341 -2.47226,-2.4079 -3.00537,-0.96325 0.33386,-1.97201 -2.75529,-0.80587 -3.85089,0.0487 z"
           sodipodi:nodetypes="sssscs" />
        <path
           id="path1395"
           style="fill:#5aa02c;stroke:#000000;stroke-width:1.5;stroke-linecap:square;stroke-miterlimit:4;stroke-dasharray:none;paint-order:markers fill stroke"
           d="m 142.56958,237.88047 c -0.26852,0.20927 0.0118,0.46815 -0.18914,0.74407 -3.9759,5.45884 -0.74734,1.27458 0.16652,0.11725 0.0515,-0.0651 0.20647,-0.0373 0.20816,0.029 0.08,3.17024 0.15148,3.16256 0.18177,-0.0366 6.9e-4,-0.0689 0.18895,-0.17865 0.22645,-0.12385 2.67924,3.91495 1.77474,2.39278 0.16822,-0.17982 -0.0931,-0.14987 0.14313,-0.41405 0.0209,-0.56429 -0.16398,-0.20155 -0.51454,-0.19521 -0.78297,0.0142 z"
           sodipodi:nodetypes="ssssssssss" />
        <path
           sodipodi:nodetypes="sssscs"
           d="m 148.72499,226.30519 c 0.79466,-2.49603 -1.1061,-5.30715 -4.24551,-6.27888 -3.13942,-0.9717 -6.32865,0.26397 -7.12333,2.75999 -0.79467,2.496 1.10611,5.30715 4.24551,6.27886 1.47394,0.45621 4.05689,0.83873 3.5252,-0.7135 1.09736,1.91399 3.17655,-0.72231 3.59813,-2.04647 z"
           style="fill:url(#radialGradient915-5-8);fill-opacity:1;stroke:#000000;stroke-width:1.5;stroke-linecap:square;stroke-miterlimit:4;stroke-dasharray:none;paint-order:markers fill stroke"
           id="path1397" />
        <path
           inkscape:transform-center-y="-3.9618896"
           inkscape:transform-center-x="-2.5394894"
           sodipodi:nodetypes="ssssssssss"
           d="m 144.99067,226.80127 c 0.10311,-0.3245 -0.34644,-0.40699 -0.35445,-0.75506 -0.15859,-6.88593 -0.20777,-1.51362 -0.24103,-0.0168 -0.002,0.0843 -0.16814,0.14029 -0.21711,0.0828 -2.34595,-2.75611 -2.40788,-2.71215 -0.14534,0.1268 0.0486,0.0612 -0.0504,0.25592 -0.12489,0.22712 -5.3315,-2.06099 -3.38801,-1.18829 -0.03,0.24618 0.19527,0.0834 0.16151,0.43986 0.3844,0.50887 0.29904,0.0926 0.62523,-0.0954 0.72852,-0.41986 z"
           style="fill:#5aa02c;stroke-width:1.5;stroke-linecap:square;paint-order:markers fill stroke;stroke-miterlimit:4;stroke-dasharray:none;stroke:#000000"
           id="path1399" />
      </g>
      <path
         d="m 134.0845,230.7104 c 0.39177,-0.51628 1.02725,-1.09399 1.64191,-1.31297 0.15143,-0.054 0.31457,-0.0664 0.47185,-0.0996 0.16728,-8e-5 0.33729,-0.0303 0.50184,-2.3e-4 0.39541,0.0722 0.98702,0.39003 1.29069,0.59403 0.27619,0.18552 0.5477,0.3829 0.78652,0.61455 0.69813,0.67718 1.1455,1.38891 1.70941,2.18012 1.55712,2.51424 2.85935,5.17757 4.09602,7.86095 0.45802,0.95447 0.84422,1.94116 1.30067,2.8961 0.30113,0.62922 1.19099,0.20336 0.88986,-0.42587 v 0 c -0.45532,-0.95017 -0.8371,-1.93374 -1.2946,-2.88319 -1.26296,-2.73957 -2.59254,-5.45926 -4.18961,-8.02199 -0.88116,-1.22734 -1.53326,-2.25367 -2.83189,-3.08999 -0.52971,-0.34114 -1.14661,-0.62739 -1.77981,-0.71096 -0.23535,-0.0311 -0.47442,0.0185 -0.71162,0.0278 -0.23165,0.0611 -0.47138,0.0973 -0.69495,0.18335 -0.75917,0.29239 -1.54237,1.00378 -2.01858,1.65835 -0.37451,0.58852 0.45778,1.11815 0.83229,0.52963 z"
         id="path1035"
         style="fill:#501616;stroke:#000000;stroke-width:0.26458333;stroke-linecap:square;stroke-miterlimit:4;stroke-dasharray:none;paint-order:markers fill stroke" />
      <path
         d="m 129.00784,239.95729 c 0.0439,-0.1447 0.007,-0.35237 0.0602,-0.48996 0.0253,-0.0659 0.52636,-0.39114 0.53499,-0.39676 0.55113,-0.25709 1.15024,-0.47296 1.76215,-0.52303 0.69408,-0.0568 1.5866,0.0214 2.25857,0.12837 0.44501,0.0708 0.88242,0.1832 1.32364,0.27477 0.44778,0.12959 0.90105,0.24152 1.34338,0.38865 1.57369,0.52345 3.24142,1.30041 4.60389,2.25446 0.27089,0.18969 0.51979,0.40899 0.77968,0.61348 0.92067,0.75963 1.55647,1.75591 2.07682,2.81432 0.0369,0.0866 0.0738,0.17333 0.11072,0.26 0.27489,0.64113 1.18158,0.25237 0.90669,-0.38876 v 0 c -0.0442,-0.10256 -0.0884,-0.20505 -0.13264,-0.30758 -0.58847,-1.18998 -1.31461,-2.30398 -2.3536,-3.15488 -0.28765,-0.22399 -0.56382,-0.46353 -0.86292,-0.67196 -1.43085,-0.99715 -3.20426,-1.82161 -4.85547,-2.36703 -0.46687,-0.1542 -0.94518,-0.27132 -1.41776,-0.40699 -0.47329,-0.0965 -0.94247,-0.21596 -1.41986,-0.28964 -0.81847,-0.12628 -1.72136,-0.1925 -2.55151,-0.11519 -0.74613,0.0695 -1.47067,0.3416 -2.13177,0.67884 -0.32655,0.23364 -0.55261,0.34614 -0.77588,0.68559 -0.18734,0.28484 -0.20407,0.57234 -0.23848,0.89297 -0.0851,0.69236 0.89407,0.81269 0.97915,0.12033 z"
         id="path1037"
         style="fill:#501616;stroke:#000000;stroke-width:0.26458333;stroke-linecap:square;stroke-miterlimit:4;stroke-dasharray:none;paint-order:markers fill stroke" />
      <path
         d="m 141.18196,247.16497 c 0.15055,-0.52159 0.58319,-0.83803 0.99838,-1.14676 0.40784,-0.24315 0.85354,-0.44249 1.32647,-0.51568 0.17853,-0.0276 0.35212,-0.0239 0.53177,-0.0263 0.27868,0.0237 0.14957,0.003 0.3883,0.054 0.6851,0.13135 0.87085,-0.83752 0.18576,-0.96887 v 0 c -0.38155,-0.0686 -0.18398,-0.0436 -0.59318,-0.0715 -0.28576,0.007 -0.44097,0.001 -0.73121,0.0507 -0.60888,0.10392 -1.18128,0.36287 -1.70095,0.68932 -0.68628,0.52109 -1.27567,1.03303 -1.39186,1.93513 0,0.69757 0.98652,0.69757 0.98652,0 z"
         id="path1039"
         style="fill:#501616;stroke:#000000;stroke-width:0.26458333;stroke-linecap:square;stroke-miterlimit:4;stroke-dasharray:none;paint-order:markers fill stroke" />
      <path
         d="m 145.02938,228.4008 c 0.0122,0.28689 -0.061,0.56569 -0.14778,0.83637 -0.23835,0.60105 -0.32385,1.24085 -0.40435,1.87783 -0.0828,0.62187 -0.15607,1.24752 -0.13708,1.87625 0.0131,0.43319 0.0448,0.60999 0.0976,1.03562 0.12104,0.86947 0.44227,1.68304 0.80593,2.4752 0.18049,0.36232 0.37995,0.71401 0.55955,1.07661 0.0944,0.18809 0.10888,0.40139 0.14145,0.60659 0.0433,0.29541 0.0579,0.59378 0.0672,0.89187 0.003,0.16144 0.002,0.082 0.004,0.2383 0.009,0.69752 0.99535,0.68492 0.98644,-0.0126 v 0 c -0.002,-0.16769 -7.9e-4,-0.0822 -0.004,-0.25652 -0.0107,-0.33974 -0.0286,-0.67973 -0.079,-1.01627 -0.0485,-0.30351 -0.0859,-0.61355 -0.23175,-0.8894 -0.17554,-0.35405 -0.36829,-0.69846 -0.54726,-1.05088 -0.3228,-0.70005 -0.61291,-1.41727 -0.72333,-2.18589 -0.0458,-0.3597 -0.0776,-0.54323 -0.09,-0.90707 -0.02,-0.58944 0.0522,-1.17571 0.12937,-1.75865 0.0724,-0.5783 0.14623,-1.15849 0.36603,-1.70313 0.11529,-0.3674 0.20669,-0.74605 0.19383,-1.13423 0,-0.69758 -0.98652,-0.69758 -0.98652,0 z"
         id="path1045"
         style="fill:#501616;stroke:#000000;stroke-width:0.26458333;stroke-linecap:square;stroke-miterlimit:4;stroke-dasharray:none;paint-order:markers fill stroke" />
      <path
         d="m 146.66857,249.50426 c 0,-0.46206 0,-0.92411 0,-1.38617 -0.005,-0.54704 0.0455,-1.09247 0.0801,-1.63792 0.0355,-0.59507 0.0496,-1.19107 0.057,-1.78705 -0.007,-0.4403 0.0235,-0.87949 0.0441,-1.319 0.0249,-0.49471 0.059,-0.98872 0.0772,-1.48386 0.007,-0.55914 0.0267,-1.11752 0.0515,-1.67612 0.0176,-0.40801 0.0308,-0.81619 0.0369,-1.22454 0.003,-0.28978 0.003,-0.57959 0.003,-0.86939 0.0106,-0.51812 -0.002,-1.03391 -0.0584,-1.54908 -0.0272,-0.22806 -0.0627,-0.45527 -0.0771,-0.68465 -0.008,-0.20708 -0.005,-0.41446 -0.005,-0.62165 4e-5,-0.0478 8e-5,-0.0956 1.2e-4,-0.14336 10e-4,-1.47978 -2.09149,-1.48152 -2.09272,-0.002 v 0 c -4e-5,0.0483 -8e-5,0.0966 -1.2e-4,0.14492 -2e-5,0.25361 -0.003,0.5075 0.0101,0.76086 0.0179,0.26079 0.0513,0.51989 0.0855,0.77897 0.0501,0.43776 0.0527,0.87604 0.0453,1.31645 9e-5,0.27931 7.9e-4,0.55864 -0.002,0.83794 -0.006,0.38764 -0.0184,0.77511 -0.035,1.16243 -0.025,0.56419 -0.045,1.1282 -0.0522,1.69293 -0.0176,0.48789 -0.0522,0.97462 -0.0763,1.46213 -0.0216,0.46354 -0.053,0.92683 -0.0462,1.39118 -0.007,0.56047 -0.0199,1.12095 -0.0529,1.68056 -0.0372,0.58943 -0.0906,1.17882 -0.0842,1.76999 0,0.46206 0,0.92412 0,1.38618 0,1.47978 2.09273,1.47978 2.09273,0 z"
         id="path881"
         style="fill:url(#linearGradient890);fill-opacity:1;stroke:#000000;stroke-width:0.26458333;stroke-linecap:square;stroke-miterlimit:4;stroke-dasharray:none;paint-order:markers fill stroke" />
      <path
         d="m 155.55192,232.8364 c -0.39698,-0.0417 -0.79191,-0.11851 -1.19181,-0.13069 -0.13358,-0.004 -0.26728,0.002 -0.40092,0.003 -0.86508,0.0439 -1.65577,0.34163 -2.34817,0.86057 -0.17862,0.13387 -0.3427,0.28612 -0.51405,0.42918 -0.98206,0.92122 -1.75593,2.02437 -2.47017,3.1577 -0.62161,1.03337 -1.11477,2.13477 -1.61072,3.23161 -0.22997,0.51314 -0.43887,1.03476 -0.67988,1.54276 -0.13754,0.28465 -0.30317,0.55498 -0.45517,0.83215 -0.33484,0.61196 0.5306,1.08549 0.86544,0.47353 v 0 c 0.16049,-0.2941 0.33693,-0.58015 0.48103,-0.88283 0.2436,-0.51347 0.45587,-1.04016 0.68747,-1.55916 0.47736,-1.05572 0.9506,-2.11647 1.54664,-3.11241 0.65921,-1.04789 1.37065,-2.06979 2.27069,-2.92865 0.14378,-0.12222 0.28204,-0.25124 0.43133,-0.36666 0.53253,-0.41173 1.13485,-0.6526 1.80875,-0.69136 0.4899,-0.01 0.97261,0.0517 1.45718,0.11988 0.69219,0.0865 0.81455,-0.89238 0.12236,-0.9789 z"
         id="path1064"
         style="fill:#501616;stroke:#000000;stroke-width:0.26458333;stroke-linecap:square;stroke-miterlimit:4;stroke-dasharray:none;paint-order:markers fill stroke" />
      <path
         sodipodi:nodetypes="sssscs"
         d="m 135.83848,233.62564 c -1.31367,2.2666 -4.98615,2.59276 -8.20271,0.72851 -3.21657,-1.86425 -4.75918,-5.21296 -3.44551,-7.47956 1.31367,-2.2666 4.98615,-2.59276 8.20272,-0.72851 1.51014,0.87525 3.83301,2.68195 2.21135,3.27451 2.34608,-0.37881 1.93107,3.00259 1.23415,4.20505 z"
         style="fill:url(#radialGradient915);fill-opacity:1;stroke:#000000;stroke-width:0.26458333;stroke-linecap:square;stroke-miterlimit:4;stroke-dasharray:none;paint-order:markers fill stroke"
         id="path898" />
      <path
         d="m 153.79412,243.76401 c -1.06687,-0.42627 -2.20512,-0.59901 -3.33829,-0.73982 -1.08192,-0.12115 -2.17299,-0.11758 -3.25223,0.02 -0.71652,0.0889 -1.15346,0.29098 -1.67767,0.78042 -0.16179,0.1607 -0.2753,0.35112 -0.38209,0.54968 -0.32001,0.61984 0.55658,1.0724 0.87659,0.45255 v 0 c 0.0489,-0.10445 0.10818,-0.20122 0.1857,-0.2877 0.34208,-0.33601 0.6396,-0.46355 1.1235,-0.51651 0.99692,-0.12994 2.0056,-0.12883 3.0052,-0.0193 1.0543,0.12955 2.11448,0.28575 3.10712,0.68227 0.6516,0.24902 1.00378,-0.67249 0.35217,-0.92152 z"
         id="path1072"
         style="fill:#501616;stroke:#000000;stroke-width:0.26458333;stroke-linecap:square;stroke-miterlimit:4;stroke-dasharray:none;paint-order:markers fill stroke" />
      <path
         inkscape:transform-center-y="0.33281684"
         inkscape:transform-center-x="-4.011804"
         sodipodi:nodetypes="ssssssssss"
         d="m 133.25019,229.76641 c -0.17076,0.29461 -0.58757,-0.01 -0.86397,0.21191 -5.46816,4.38071 -1.33761,0.82523 -0.20215,-0.18097 0.0639,-0.0567 -0.0229,-0.22574 -0.10611,-0.22708 -3.97895,-0.0644 -3.99341,-0.14249 -0.0156,-0.19877 0.0856,-0.001 0.15916,-0.2076 0.0783,-0.24813 -5.78129,-2.89709 -3.57968,-1.92034 0.16755,-0.18499 0.21796,0.10089 0.46804,-0.1593 0.69643,-0.0269 0.3064,0.17759 0.41636,0.56039 0.2456,0.855 z"
         style="fill:#5aa02c;stroke-width:0.0001174;stroke-linecap:square;paint-order:markers fill stroke;stroke-miterlimit:4;stroke-dasharray:none;stroke:#000000"
         id="path917" />
      <path
         id="path898-3"
         style="fill:url(#radialGradient915-1);fill-opacity:1;stroke:#000000;stroke-width:0.26458333;stroke-linecap:square;stroke-miterlimit:4;stroke-dasharray:none;paint-order:markers fill stroke"
         d="m 131.19782,242.63881 c -1.04391,2.40279 -4.65439,3.14973 -8.06425,1.66831 -3.40985,-1.48143 -5.32784,-4.63021 -4.28394,-7.03302 1.0439,-2.4028 4.65439,-3.14973 8.06425,-1.66831 1.6009,0.69552 4.11636,2.2227 2.57374,2.99806 2.28683,-0.64648 2.26401,2.76024 1.7102,4.03496 z"
         sodipodi:nodetypes="sssscs" />
      <path
         inkscape:transform-center-y="-2.7113986"
         inkscape:transform-center-x="-19.558877"
         id="path917-6"
         style="fill:#5aa02c;stroke-width:0.0001174;stroke-linecap:square;paint-order:markers fill stroke;stroke-miterlimit:4;stroke-dasharray:none;stroke:#000000"
         d="m 127.86866,239.10731 c -0.13571,0.31232 -0.58476,0.0582 -0.8338,0.31 -4.92728,4.98129 -1.23368,0.97378 -0.22169,-0.15645 0.057,-0.0636 -0.0487,-0.2216 -0.13164,-0.2133 -3.95987,0.39427 -3.98324,0.31835 -0.0384,-0.19565 0.0849,-0.011 0.13418,-0.22458 0.0492,-0.2555 -6.07645,-2.21201 -3.77702,-1.49531 0.14513,-0.20306 0.22813,0.0751 0.44676,-0.21176 0.68869,-0.10694 0.32481,0.14111 0.47814,0.50868 0.34241,0.82103 z"
         sodipodi:nodetypes="ssssssssss" />
      <path
         id="path898-9"
         style="fill:url(#radialGradient915-5);fill-opacity:1;stroke:#000000;stroke-width:0.26458333;stroke-linecap:square;stroke-miterlimit:4;stroke-dasharray:none;paint-order:markers fill stroke"
         d="m 152.0571,248.24131 c 0.76509,2.50557 4.26776,3.65656 7.82344,2.57083 3.55568,-1.08574 5.81793,-3.99706 5.05285,-6.50262 -0.76509,-2.50556 -4.26776,-3.65655 -7.82344,-2.57082 -1.66936,0.50974 -4.3416,1.74223 -2.8967,2.6873 -2.19892,-0.90129 -2.56204,2.48608 -2.15615,3.81531 z"
         sodipodi:nodetypes="sssscs" />
      <path
         inkscape:transform-center-y="1.7573056"
         inkscape:transform-center-x="12.155356"
         id="path917-9"
         style="fill:#5aa02c;stroke-width:0.0001174;stroke-linecap:square;paint-order:markers fill stroke;stroke-miterlimit:4;stroke-dasharray:none;stroke:#000000"
         d="m 155.44655,245.108 c 0.0994,0.32568 0.57441,0.12407 0.79335,0.40242 4.33147,5.50725 1.11546,1.10723 0.23795,-0.13034 -0.0494,-0.0697 0.0736,-0.21465 0.15487,-0.19707 3.88976,0.84017 3.92158,0.76738 0.0603,-0.19005 -0.0831,-0.0207 -0.10786,-0.23831 -0.0199,-0.25942 6.28787,-1.50965 3.92202,-1.05811 -0.12118,-0.2182 -0.23516,0.0488 -0.41968,-0.26133 -0.67215,-0.18424 -0.33871,0.10338 -0.53265,0.45129 -0.43321,0.77696 z"
         sodipodi:nodetypes="ssssssssss" />
      <path
         sodipodi:nodetypes="sssscs"
         d="m 152.70426,235.33328 c 0.0854,2.65219 3.16686,5.89622 6.88264,7.24578 3.71578,1.34955 6.6588,0.29357 6.5734,-2.3586 -0.0854,-2.65219 -3.16686,-5.89622 -6.88264,-7.24578 -1.74452,-0.6336 -4.64567,-1.28871 -3.49713,0.45498 -1.8879,-2.19065 -3.12158,0.49661 -3.07627,1.90362 z"
         style="fill:url(#radialGradient915-5-2);fill-opacity:1;stroke:#000000;stroke-width:0.26458333;stroke-linecap:square;stroke-miterlimit:4;stroke-dasharray:none;paint-order:markers fill stroke"
         id="path898-9-4" />
      <path
         sodipodi:nodetypes="ssssssssss"
         d="m 156.26421,234.3916 c 0.0111,0.34474 0.52219,0.47622 0.66099,0.85697 2.74588,7.53289 0.78822,1.67173 0.26371,0.0406 -0.0295,-0.0919 0.12699,-0.13778 0.20089,-0.0704 3.5362,3.22488 3.58589,3.18256 0.10777,-0.12509 -0.0748,-0.0712 -0.042,-0.27482 0.0484,-0.2365 6.464,2.74038 4.06225,1.60888 -0.0601,-0.26602 -0.23975,-0.1091 -0.33703,-0.49511 -0.60087,-0.59094 -0.35395,-0.1286 -0.63189,0.0467 -0.62079,0.39143 z"
         style="fill:#5aa02c;stroke-width:0.0001174;stroke-linecap:square;paint-order:markers fill stroke;stroke-miterlimit:4;stroke-dasharray:none;stroke:#000000"
         id="path917-9-1" />
      <path
         sodipodi:nodetypes="sssscs"
         d="m 137.65702,249.456 c -1.02334,2.41094 0.19992,5.18739 2.73217,6.20136 2.53225,1.01397 5.41461,-0.11849 6.43791,-2.52943 1.02334,-2.41093 -0.19992,-5.18738 -2.73216,-6.20136 -1.18887,-0.47605 -3.33041,-0.90467 -3.09504,0.61712 -0.66561,-1.88607 -2.80001,0.63327 -3.34288,1.91231 z"
         style="fill:url(#radialGradient915-5-22);fill-opacity:1;stroke:#000000;stroke-width:0.26458333;stroke-linecap:square;stroke-miterlimit:4;stroke-dasharray:none;paint-order:markers fill stroke"
         id="path898-9-5" />
      <path
         sodipodi:nodetypes="ssssssssss"
         d="m 140.78351,248.99888 c -0.13314,0.31332 0.23763,0.40353 0.19592,0.74231 -0.82535,6.70264 -0.0345,1.47712 0.2025,0.0217 0.0134,-0.082 0.16239,-0.13287 0.19603,-0.0757 1.60919,2.73263 1.66796,2.69121 0.14118,-0.12021 -0.0328,-0.0606 0.0785,-0.2479 0.13782,-0.21823 4.2431,2.12162 2.71329,1.23012 0.0598,-0.23885 -0.15431,-0.0855 -0.0759,-0.43147 -0.25571,-0.50347 -0.24119,-0.0966 -0.54459,0.0792 -0.6776,0.39254 z"
         style="fill:#5aa02c;stroke:#000000;stroke-width:0.00010054;stroke-linecap:square;stroke-miterlimit:4;stroke-dasharray:none;paint-order:markers fill stroke"
         id="path917-9-17" />
      <path
         d="m 146.43253,234.46879 c 0.15264,-0.41348 0.39738,-0.80899 0.69686,-1.13372 0.0727,-0.0788 0.15644,-0.14672 0.23463,-0.22014 0.63298,-0.49985 1.39234,-0.7945 2.16509,-0.9989 0.58494,-0.1278 1.14072,-0.1926 1.70649,-0.39828 0.0823,-0.0396 0.16451,-0.0792 0.24674,-0.11883 0.62565,-0.3085 0.18936,-1.1933 -0.43629,-0.88479 v 0 c -0.0513,0.0262 -0.10267,0.0525 -0.15399,0.0788 -0.52092,0.19948 -1.08133,0.2313 -1.61937,0.37046 -0.93202,0.2545 -1.8439,0.61456 -2.59324,1.24118 -0.10746,0.10561 -0.22133,0.205 -0.32242,0.31671 -0.38468,0.4251 -0.68862,0.94091 -0.87453,1.48162 -0.188,0.67176 0.76202,0.93762 0.95002,0.26586 z"
         id="path1111"
         style="fill:#501616;stroke:#000000;stroke-width:0.26458333;stroke-linecap:square;stroke-miterlimit:4;stroke-dasharray:none;paint-order:markers fill stroke" />
      <path
         sodipodi:nodetypes="sssscs"
         d="m 146.7091,229.65361 c -0.94148,-2.44477 1.10782,-5.50972 4.57722,-6.84577 3.4694,-1.33603 7.04512,-0.43725 7.98657,2.0075 0.94148,2.44476 -1.10782,5.50971 -4.57722,6.84575 -1.62886,0.62724 -4.4929,1.30333 -3.93735,-0.33138 -1.17638,2.06487 -3.54977,-0.37914 -4.04922,-1.6761 z"
         style="fill:url(#radialGradient915-1-3);fill-opacity:1;stroke:#000000;stroke-width:0.26458333;stroke-linecap:square;stroke-miterlimit:4;stroke-dasharray:none;paint-order:markers fill stroke"
         id="path898-3-4" />
      <path
         inkscape:transform-center-y="-7.0875375"
         inkscape:transform-center-x="7.3423289"
         sodipodi:nodetypes="ssssssssss"
         d="m 150.71591,229.76205 c -0.12242,-0.31777 0.37592,-0.45168 0.3768,-0.80583 0.0176,-7.0065 0.19618,-1.55941 0.26773,-0.0439 0.004,0.0853 0.19021,0.12371 0.24344,0.0597 2.5457,-3.05868 2.61559,-3.02096 0.16461,0.11252 -0.0528,0.0674 0.0618,0.25418 0.14413,0.21662 5.88239,-2.68586 3.74081,-1.58371 0.039,0.24651 -0.21527,0.10647 -0.16987,0.4643 -0.41582,0.55929 -0.33047,0.1273 -0.6976,-0.0272 -0.81996,-0.34496 z"
         style="fill:#5aa02c;stroke-width:0.0001174;stroke-linecap:square;paint-order:markers fill stroke;stroke-miterlimit:4;stroke-dasharray:none;stroke:#000000"
         id="path917-6-9" />
      <path
         style="fill:#501616;stroke:#000000;stroke-width:0.26458333;stroke-linecap:square;stroke-miterlimit:4;stroke-dasharray:none;paint-order:markers fill stroke"
         id="path1039-6"
         d="m 144.19196,236.59925 c 0.52831,0.12492 0.86549,0.5416 1.19411,0.94123 0.26276,0.39549 0.48361,0.83093 0.57979,1.29973 0.0363,0.17697 0.0411,0.35053 0.0522,0.52985 -0.0101,0.27951 0.004,0.14954 -0.035,0.39047 -0.0978,0.6907 0.87901,0.82895 0.97678,0.13827 v 0 c 0.0499,-0.38444 0.0346,-0.18589 0.0425,-0.59596 -0.0209,-0.28508 -0.0225,-0.4404 -0.0863,-0.72787 -0.13351,-0.60308 -0.42008,-1.16217 -0.7715,-1.66529 -0.55395,-0.66003 -1.09404,-1.22374 -2.00074,-1.29578 -0.69674,0.034 -0.6486,1.01939 0.0481,0.98535 z" />
      <path
         id="path898-9-5-2"
         style="fill:url(#radialGradient915-5-22-8);fill-opacity:1;stroke:#000000;stroke-width:0.26458333;stroke-linecap:square;stroke-miterlimit:4;stroke-dasharray:none;paint-order:markers fill stroke"
         d="m 139.68586,236.65895 c -2.06521,1.61083 -2.34388,4.63198 -0.62246,6.7479 1.72142,2.11592 4.79109,2.52539 6.85627,0.91455 2.06521,-1.61082 2.34388,-4.63197 0.62245,-6.7479 -0.80819,-0.99341 -2.47226,-2.4079 -3.00537,-0.96325 0.33386,-1.97201 -2.75529,-0.80587 -3.85089,0.0487 z"
         sodipodi:nodetypes="sssscs" />
      <path
         id="path917-9-17-2"
         style="fill:#5aa02c;stroke:#000000;stroke-width:0.00010054;stroke-linecap:square;stroke-miterlimit:4;stroke-dasharray:none;paint-order:markers fill stroke"
         d="m 142.56958,237.88047 c -0.26852,0.20927 0.0118,0.46815 -0.18914,0.74407 -3.9759,5.45884 -0.74734,1.27458 0.16652,0.11725 0.0515,-0.0651 0.20647,-0.0373 0.20816,0.029 0.08,3.17024 0.15148,3.16256 0.18177,-0.0366 6.9e-4,-0.0689 0.18895,-0.17865 0.22645,-0.12385 2.67924,3.91495 1.77474,2.39278 0.16822,-0.17982 -0.0931,-0.14987 0.14313,-0.41405 0.0209,-0.56429 -0.16398,-0.20155 -0.51454,-0.19521 -0.78297,0.0142 z"
         sodipodi:nodetypes="ssssssssss" />
      <path
         sodipodi:nodetypes="sssscs"
         d="m 148.72499,226.30519 c 0.79466,-2.49603 -1.1061,-5.30715 -4.24551,-6.27888 -3.13942,-0.9717 -6.32865,0.26397 -7.12333,2.75999 -0.79467,2.496 1.10611,5.30715 4.24551,6.27886 1.47394,0.45621 4.05689,0.83873 3.5252,-0.7135 1.09736,1.91399 3.17655,-0.72231 3.59813,-2.04647 z"
         style="fill:url(#radialGradient915-5-8);fill-opacity:1;stroke:#000000;stroke-width:0.26458333;stroke-linecap:square;stroke-miterlimit:4;stroke-dasharray:none;paint-order:markers fill stroke"
         id="path898-9-0" />
      <path
         inkscape:transform-center-y="-3.9618896"
         inkscape:transform-center-x="-2.5394894"
         sodipodi:nodetypes="ssssssssss"
         d="m 144.99067,226.80127 c 0.10311,-0.3245 -0.34644,-0.40699 -0.35445,-0.75506 -0.15859,-6.88593 -0.20777,-1.51362 -0.24103,-0.0168 -0.002,0.0843 -0.16814,0.14029 -0.21711,0.0828 -2.34595,-2.75611 -2.40788,-2.71215 -0.14534,0.1268 0.0486,0.0612 -0.0504,0.25592 -0.12489,0.22712 -5.3315,-2.06099 -3.38801,-1.18829 -0.03,0.24618 0.19527,0.0834 0.16151,0.43986 0.3844,0.50887 0.29904,0.0926 0.62523,-0.0954 0.72852,-0.41986 z"
         style="fill:#5aa02c;stroke-width:0.00011037;stroke-linecap:square;paint-order:markers fill stroke;stroke-miterlimit:4;stroke-dasharray:none;stroke:#000000"
         id="path917-9-7" />
    </g>
  </g>
</svg>
