<?xml version="1.0" encoding="UTF-8" standalone="no"?>
<svg
   xmlns:dc="http://purl.org/dc/elements/1.1/"
   xmlns:cc="http://creativecommons.org/ns#"
   xmlns:rdf="http://www.w3.org/1999/02/22-rdf-syntax-ns#"
   xmlns:svg="http://www.w3.org/2000/svg"
   xmlns="http://www.w3.org/2000/svg"
   xmlns:xlink="http://www.w3.org/1999/xlink"
   xmlns:sodipodi="http://sodipodi.sourceforge.net/DTD/sodipodi-0.dtd"
   xmlns:inkscape="http://www.inkscape.org/namespaces/inkscape"
   sodipodi:docname="Cheeseplant2.svg"
   inkscape:version="1.0 (4035a4fb49, 2020-05-01)"
   id="svg1577"
   version="1.1"
   viewBox="0 0 75 75"
   height="75mm"
   width="75mm"
   inkscape:export-filename="C:\Program Files (x86)\Steam\steamapps\common\RimWorld\Mods\rimworldmod-houseplants\Textures\Things\Plant\Cheeseplant\Cheeseplant_c.png"
   inkscape:export-xdpi="96.136154"
   inkscape:export-ydpi="96.136154">
  <defs
     id="defs1571">
    <linearGradient
       inkscape:collect="always"
       id="linearGradient887">
      <stop
         style="stop-color:#002b11;stop-opacity:1;"
         offset="0"
         id="stop883" />
      <stop
         style="stop-color:#005522;stop-opacity:1"
         offset="1"
         id="stop885" />
    </linearGradient>
    <linearGradient
       inkscape:collect="always"
       id="linearGradient871">
      <stop
         style="stop-color:#2d5016;stop-opacity:1"
         offset="0"
         id="stop867" />
      <stop
         style="stop-color:#17280b;stop-opacity:1"
         offset="1"
         id="stop869" />
    </linearGradient>
    <linearGradient
       inkscape:collect="always"
       xlink:href="#linearGradient871"
       id="linearGradient873"
       x1="152.42061"
       y1="226.28935"
       x2="149.98613"
       y2="225.01639"
       gradientUnits="userSpaceOnUse"
       spreadMethod="reflect" />
    <linearGradient
       inkscape:collect="always"
       xlink:href="#linearGradient887"
       id="linearGradient889"
       x1="140.77922"
       y1="214.02603"
       x2="137.64636"
       y2="215.104"
       gradientUnits="userSpaceOnUse"
       spreadMethod="reflect" />
    <linearGradient
       gradientTransform="matrix(-1,0,0,0.80849034,294.1088,51.823013)"
       inkscape:collect="always"
       xlink:href="#linearGradient887"
       id="linearGradient889-5"
       x1="140.77922"
       y1="214.02603"
       x2="137.64636"
       y2="215.104"
       gradientUnits="userSpaceOnUse"
       spreadMethod="reflect" />
  </defs>
  <sodipodi:namedview
     inkscape:window-maximized="1"
     inkscape:window-y="-8"
     inkscape:window-x="-8"
     inkscape:window-height="1137"
     inkscape:window-width="1920"
     fit-margin-bottom="1"
     fit-margin-right="1"
     fit-margin-left="1"
     lock-margins="true"
     fit-margin-top="1"
     showgrid="false"
     inkscape:document-rotation="0"
     inkscape:current-layer="g3593"
     inkscape:document-units="mm"
     inkscape:cy="99.226809"
     inkscape:cx="89.859623"
     inkscape:zoom="2.8284271"
     inkscape:pageshadow="2"
     inkscape:pageopacity="0.0"
     borderopacity="1.0"
     bordercolor="#666666"
     pagecolor="#ffffff"
     id="base"
     showguides="true"
     inkscape:guide-bbox="true">
    <sodipodi:guide
       position="8.4416543,19.285081"
       orientation="0,-1"
       id="guide4666" />
    <sodipodi:guide
       position="46.559378,24.063244"
       orientation="1,0"
       id="guide4670" />
    <sodipodi:guide
       position="28.806382,39.485282"
       orientation="1,0"
       id="guide1211" />
  </sodipodi:namedview>
  <metadata
     id="metadata1574">
    <rdf:RDF>
      <cc:Work
         rdf:about="">
        <dc:format>image/svg+xml</dc:format>
        <dc:type
           rdf:resource="http://purl.org/dc/dcmitype/StillImage" />
        <dc:title />
      </cc:Work>
    </rdf:RDF>
  </metadata>
  <g
     transform="translate(-120.40113,-201.31166)"
     id="layer1"
     inkscape:groupmode="layer"
     inkscape:label="Layer 1">
    <g
       id="g3593"
       transform="matrix(-1,0,0,1,302.75893,0.52916667)">
      <path
         id="path1863"
         style="opacity:1;fill:none;fill-opacity:1;stroke:#000000;stroke-width:1.5;stroke-linecap:square;stroke-miterlimit:4;stroke-dasharray:none;stroke-dashoffset:0;paint-order:markers fill stroke"
         d="m 172.31902,243.42172 c 0,1.12312 5.11927,1.291 4.93448,2.34847 -0.50219,2.87395 -1.6563,5.62579 -1.42434,9.54642 -2.48734,-0.0129 -4.70356,1.22608 -6.52835,2.16508 -0.80495,0.4142 -1.89087,-3.37931 -2.76768,-3.1626 -0.8768,0.21673 -1.54528,4.44106 -2.47512,4.44106 -0.92986,0 -1.8377,-0.11375 -2.71451,-0.33052 -0.87682,-0.21672 -2.88902,0.0829 -2.5283,-0.94794 6.59562,-18.8495 -1.57137,-0.91526 -2.28793,-1.49996 -0.71656,-0.58472 -1.38404,-1.25056 -1.9934,-1.98656 -0.60935,-0.73602 -2.2969,-1.78977 -1.6447,-2.40772 10.79637,-10.22934 -1.09078,-1.68358 -1.24185,-2.76347 -0.14286,-1.02118 -0.6054,-1.99473 -0.78482,-3.05379 -0.17943,-1.05905 -0.27365,-2.15559 -0.27365,-3.2787 0,-1.12312 0.0942,-2.21966 0.27365,-3.27871 0.17942,-1.05906 6.27993,0.075 6.62071,-0.89808 0.34079,-0.97318 -5.07814,-4.05367 -4.59404,-4.91918 0.4841,-0.8655 1.03535,-1.6717 1.64471,-2.40772 0.60935,-0.736 1.79413,-1.49594 2.62869,-1.332 1.34638,0.26448 4.53572,7.90278 5.34143,7.49117 0.80573,-0.41161 -1.7624,-7.47883 -0.95054,-9.60887 0.39905,-1.0469 1.57469,-1.31527 2.50455,-1.31527 0.92984,0 1.83769,0.11376 2.7145,0.33052 -0.90778,6.45487 0.44038,5.3751 2.52829,0.94795 0.80571,0.41162 1.57136,0.91524 2.28793,1.49996 0.71656,0.58471 1.38403,1.25054 1.99339,1.98654 -7.3714,9.03652 -6.66031,9.67648 1.6447,2.40772 0.68072,-0.59578 0.90106,1.79029 1.24185,2.76347 0.3408,0.97318 0.6054,1.99475 0.78483,3.05379 0.17942,1.05905 -4.93448,3.08583 -4.93448,4.20894 z"
         sodipodi:nodetypes="sscsssssssssssscscscssccscssss" />
      <path
         style="opacity:1;fill:#241c1c;fill-opacity:1;stroke:#000000;stroke-width:1.5;stroke-linecap:square;stroke-miterlimit:4;stroke-dasharray:none;stroke-dashoffset:0;paint-order:markers fill stroke"
         id="path1855"
         d="m 143.60703,251.20557 c -3.7e-4,-0.46275 -0.008,-0.92541 0.0133,-1.38802 0.0609,-0.56863 0.19378,-1.13392 0.33212,-1.69739 0.0922,-0.39122 0.18862,-0.78202 0.27249,-1.17398 0.10667,-0.36732 0.18079,-0.73746 0.25814,-1.10728 0.0927,-0.33096 0.16913,-0.66306 0.20425,-0.99805 0.0737,-0.35946 0.0968,-0.72135 0.14693,-1.08196 0.0486,-0.28835 0.0915,-0.57697 0.112,-0.86656 0.0117,-0.21795 0.0117,-0.43604 0.0117,-0.65408 -4.4e-4,-0.2226 -0.001,-0.4452 -0.002,-0.6678 -4.3e-4,-0.16987 -8.8e-4,-0.33974 -8.8e-4,-0.50961 -2.8e-4,-0.18287 -4.3e-4,-0.36574 -8.8e-4,-0.5486 -4e-5,-0.0279 -9e-5,-0.0558 -1.2e-4,-0.0836 -0.002,-1.05353 2.47772,-1.0549 2.47934,-0.001 v 0 c 5e-5,0.0279 8e-5,0.0558 1.3e-4,0.0836 2.6e-4,0.18283 4.3e-4,0.36565 8.8e-4,0.54848 2.8e-4,0.1695 4.3e-4,0.339 8.8e-4,0.50851 4.4e-4,0.22339 0.001,0.44679 0.002,0.67018 6e-5,0.23974 1.1e-4,0.47955 -0.015,0.71917 -0.0228,0.31023 -0.0657,0.6196 -0.11865,0.92849 -0.0513,0.35035 -0.0677,0.70254 -0.14311,1.05173 -0.0404,0.36475 -0.11432,0.72731 -0.21846,1.08756 -0.0779,0.37125 -0.1511,0.74302 -0.25907,1.11167 -0.0862,0.40095 -0.18438,0.8008 -0.27873,1.20104 -0.12414,0.50564 -0.24356,1.01274 -0.30656,1.52258 -0.0223,0.44787 -0.0117,0.89588 -0.0117,1.34392 0.002,1.05352 -2.47772,1.05491 -2.47935,0.001 z" />
      <path
         sodipodi:nodetypes="sscsssssssssssscscscssccscssss"
         d="m 119.36857,230.88166 c -0.33688,0.89201 -5.72104,-0.98904 -5.8457,-0.0765 -0.3388,2.48017 0.0383,5.11987 -1.37939,8.14244 2.59547,0.96846 4.53291,2.8246 6.15252,4.2884 0.71445,0.64571 4.62211,-2.94187 5.47066,-2.42474 0.84854,0.51713 -1.36043,5.13723 -0.39161,5.50312 0.96882,0.36589 1.94884,0.63275 2.9274,0.80563 0.97857,0.17289 2.98522,1.20265 2.9186,0.24197 -1.21816,-17.56602 1.91175,-0.10859 2.83372,-0.29103 0.92198,-0.18243 1.81714,-0.4486 2.67281,-0.79338 0.85565,-0.34478 2.98484,-0.53765 2.43581,-1.26509 -12.4089,-16.44145 1.47582,-1.06734 2.12279,-1.70615 0.64698,-0.63883 1.2291,-1.34606 1.7337,-2.11658 0.50461,-0.77052 0.93168,-1.60434 1.26856,-2.49635 0.33688,-0.892 0.56761,-1.79997 0.69833,-2.7117 0.13071,-0.91172 -6.56562,-2.41149 -6.62881,-3.31846 -0.0632,-0.90702 6.50686,-1.22132 6.26207,-2.09921 -0.24478,-0.87789 -0.5773,-1.73511 -0.99144,-2.55944 -0.41413,-0.82434 -1.42061,-1.89408 -2.33933,-2.09227 -1.48213,-0.31973 -7.09623,4.49181 -7.81225,3.84785 -0.71602,-0.64395 4.07954,-5.24637 3.87254,-7.25755 -0.10174,-0.9885 -1.24616,-1.66425 -2.21498,-2.03013 -0.96882,-0.36589 -1.94884,-0.63275 -2.92741,-0.80562 -1.54734,10.794 -2.28863,6.16925 -2.91858,-0.24198 -0.96294,0.01 -1.91175,0.10859 -2.83372,0.29103 -0.92198,0.18243 -1.81714,0.4486 -2.6728,0.79337 4.96984,10.07758 4.037,10.30605 -2.43582,1.26509 -0.53054,-0.74103 -1.47581,1.06733 -2.12279,1.70616 -0.64697,0.63882 -1.2291,1.34606 -1.7337,2.11657 -0.5046,0.77052 4.21569,4.3925 3.87882,5.28451 z"
         style="opacity:1;fill:none;fill-opacity:1;stroke:#000000;stroke-width:1.5;stroke-linecap:square;stroke-miterlimit:4;stroke-dasharray:none;stroke-dashoffset:0;paint-order:markers fill stroke"
         id="path1857"
         inkscape:transform-center-x="-16.982774"
         inkscape:transform-center-y="-16.591447" />
      <path
         sodipodi:nodetypes="csscsssssscsssssssscsssssssccsssssssssssssssssssssssssssssssssscssssssccccscscssscscscssccc"
         d="m 133.05831,228.8646 c -0.0341,0.0373 -1.23675,1.16479 -1.2751,1.20321 -0.0384,0.0384 -0.0788,0.0773 -0.12129,0.11683 -0.0425,0.0395 3.61114,0.49375 4.44783,0.30259 -0.55353,0.3527 -4.67663,-0.10095 -4.72706,-0.0594 -0.0505,0.0415 -0.10287,0.0836 -0.15715,0.12605 -0.0542,0.0425 -0.1104,0.0854 -0.16828,0.12881 -0.0579,0.0434 -0.11759,0.0872 -0.179,0.13144 -0.0614,0.0443 -0.12453,0.0889 -0.1893,0.13389 -0.0648,0.045 -0.13122,0.0904 -0.19922,0.13621 -0.068,0.0458 3.54799,2.5109 5.26134,4.58238 -4.1394,-3.54236 -5.6138,-4.35075 -5.68787,-4.30363 -0.074,0.0471 -0.1496,0.0945 -0.2265,0.14223 -0.0769,0.0477 -0.1552,0.0957 -0.2348,0.14393 -0.0796,0.0483 -0.1605,0.0967 -0.24265,0.14548 -0.0821,0.0487 -0.16556,0.0977 -0.25014,0.14687 -0.0845,0.0492 -0.17032,0.0985 -0.25719,0.14812 -0.0868,0.0495 -0.17484,0.0993 -0.26385,0.14921 -0.089,0.0499 -0.17907,0.1 -0.2701,0.15015 -0.091,0.0502 1.8318,2.8603 2.30664,6.13098 -1.0047,-3.3353 -2.76931,-5.87909 -2.86396,-5.82848 -0.0947,0.0506 -0.19015,0.10131 -0.28641,0.15206 -0.0962,0.0508 -0.19331,0.10155 -0.29104,0.15238 -0.0978,0.0508 -0.19618,0.1017 -0.29525,0.15256 -0.0991,0.0509 -0.19879,0.10173 -0.29906,0.15258 -0.10033,0.0508 -0.20113,0.10167 -0.30247,0.15245 -0.10137,0.0508 -0.2032,0.10151 -0.30547,0.15217 -0.10229,0.0506 0.9343,5.44577 0.0962,8.73761 -0.007,-2.64708 0.0414,-5.94143 -0.85667,-8.37007 -0.10428,0.05 -0.3787,0.1856 -0.48334,0.23527 -0.10459,0.0497 -0.20946,0.0992 -0.31437,0.14848 -0.10489,0.0493 -0.2099,0.0984 -0.31492,0.14728 -0.10503,0.0488 -0.21007,0.0975 -0.31508,0.14593 -0.10498,0.0484 -0.20997,0.0966 -0.31482,0.14443 -0.10487,0.0478 -0.2096,0.0955 -0.31417,0.14278 -0.10456,0.0473 -0.20895,0.0943 -0.31309,0.14098 -0.10412,0.0467 -0.20804,0.093 -0.31163,0.139 -0.10362,0.046 -0.20685,0.0916 -0.30974,0.13691 -0.10293,0.0453 -0.2054,0.0901 -0.30746,0.13463 -0.1021,0.0445 -0.20367,0.0886 -0.30477,0.13222 -0.10103,0.0436 -0.20167,0.0869 -0.30166,0.12965 -0.0999,0.0427 -0.19941,0.0851 -0.29816,0.12693 -0.0987,0.0418 -0.19687,0.0832 -0.29426,0.12406 -0.0974,0.0408 -0.19406,0.0812 -0.28994,0.12102 -0.0958,0.0398 -0.19097,0.0791 -0.28521,0.11785 -0.0943,0.0387 -0.18762,0.0769 -0.28007,0.11452 -0.0924,0.0376 -0.184,0.0746 -0.27455,0.11103 -0.0905,0.0365 -0.1801,0.0722 -0.26859,0.1074 -0.0885,0.0352 -0.17594,0.0697 -0.26225,0.1036 -0.0863,0.0339 -0.1715,0.0671 -0.2555,0.0997 -0.084,0.0325 -0.16679,0.0644 -0.24832,0.0956 -0.0816,0.0312 -0.16181,0.0616 -0.24076,0.0913 -0.079,0.0297 -0.15657,0.0587 -0.23279,0.0869 -0.0762,0.0282 -0.15104,0.0557 -0.2244,0.0824 -0.0734,0.0267 -0.14525,0.0526 -0.21561,0.0777 -0.0704,0.025 -0.1392,0.0494 -0.20641,0.0728 -0.0672,0.0235 -0.13285,0.046 -0.19682,0.0678 -0.0639,0.0217 -0.12625,0.0427 -0.18681,0.0626 -0.0606,0.02 -0.11933,0.0392 -0.17639,0.0573 -0.057,0.0182 -0.1122,0.0356 -0.16557,0.0519 -0.0533,0.0164 -0.1048,0.0318 -0.15435,0.0462 -0.0495,0.0144 -0.0971,0.028 -0.14272,0.0405 -0.0456,0.0125 -0.0891,0.0241 -0.13067,0.0346 -0.0415,0.0105 -0.0809,0.02 -0.11823,0.0285 0.57436,-0.36192 1.18394,-0.70007 1.81796,-1.02247 0.634,-0.32241 1.29245,-0.62907 1.96455,-0.92802 0.6721,-0.29896 1.35786,-0.59021 2.04647,-0.88178 0.68861,-0.29158 1.38009,-0.58349 2.06365,-0.88376 0.17089,-0.0751 0.34128,-0.15065 0.51102,-0.22689 0.16973,-0.0763 0.3388,-0.15314 0.50704,-0.2308 0.16824,-0.0777 -1.87801,-3.34039 -3.58008,-5.42744 1.57819,0.95308 3.65297,4.78065 4.22239,5.02354 0.65113,-0.27541 1.65095,-0.73885 2.2597,-1.10474 0.29739,-0.21158 0.47628,-0.22299 0.68275,-0.41963 -1.06827,-2.35776 -1.38322,-2.71843 -1.66514,-4.11731 -0.0481,-0.23873 -0.2318,-1.30622 -0.23842,-1.40057 0.13483,0.14723 0.36969,1.32771 0.5372,1.76322 0.34941,0.90844 1.0651,2.3811 1.79206,3.45493 0.13965,-0.10175 0.48379,-0.35397 0.61853,-0.45967 0.0674,-0.0529 0.13408,-0.10622 0.20022,-0.16009 0.0661,-0.0539 0.13153,-0.10828 0.19631,-0.16323 0.0648,-0.0549 0.12882,-0.11041 0.19228,-0.16646 0.0316,-0.028 -0.32803,-1.0583 -0.24747,-2.17909 0.0806,-1.1208 0.42683,-2.07975 0.63238,-2.36065 -0.10965,0.46186 -0.42822,1.12537 -0.44638,2.18914 -0.0186,1.06362 0.40315,2.03675 0.43344,2.0076 0.0605,-0.0583 0.12038,-0.11722 0.17944,-0.17672 0.059,-0.0595 0.13222,-0.10837 0.1749,-0.18034 0.0564,-0.0952 1.2279,-1.21413 1.28887,-1.12396 0.35972,-0.35572 0.91774,0.0232 0.7475,0.36686 z"
         style="opacity:1;fill:#2ca02c;fill-opacity:1;stroke:none;stroke-width:1.5;stroke-linecap:square;stroke-miterlimit:4;stroke-dasharray:none;stroke-dashoffset:0;paint-order:markers fill stroke"
         id="path1859"
         inkscape:transform-center-x="-18.410349"
         inkscape:transform-center-y="-16.124514" />
      <path
         style="opacity:1;fill:#2ca02c;fill-opacity:1;stroke:none;stroke-width:1.5;stroke-linecap:square;stroke-miterlimit:4;stroke-dasharray:none;stroke-dashoffset:0;paint-order:markers fill stroke"
         id="path1861"
         d="m 162.12463,235.23515 c -0.6233,-0.7648 -1.61623,-1.5089 -2.31644,-1.71048 -0.14777,-0.0417 -0.29512,-0.0888 -0.44701,-0.11119 -0.19774,-0.0294 -0.39825,-0.0419 -0.59814,-0.0432 -0.52105,-0.003 -0.47343,0.38591 -0.98909,0.47054 -0.83803,0.20162 -1.64552,0.53125 -2.38924,0.96736 -0.42654,0.2501 -0.63913,0.41444 -1.03686,0.69796 -1.01957,0.79283 -1.90142,1.74537 -2.69495,2.76111 -0.19423,0.24861 -0.37796,0.50524 -0.56693,0.75786 -0.54324,0.76273 -1.06012,1.54676 -1.5295,2.35744 -0.48047,0.82986 -0.9078,1.68712 -1.33114,2.54686 -0.55627,1.15567 -1.07791,2.33132 -1.72268,3.4419 -0.0978,0.16838 -0.20281,0.33244 -0.30422,0.49865 -0.31861,0.4845 -0.6692,0.9552 -1.09878,1.34819 -0.18913,0.17304 -0.30963,0.25314 -0.51461,0.40353 -0.43415,0.28379 -0.8992,0.51782 -1.36991,0.73434 -0.60072,0.27687 -0.20918,1.12643 0.39155,0.84955 v 0 c 0.52814,-0.24385 1.05021,-0.50689 1.53403,-0.83136 0.25985,-0.19292 0.37833,-0.27043 0.6199,-0.4941 0.48193,-0.44621 0.87882,-0.97557 1.23672,-1.5235 0.10779,-0.17724 0.21938,-0.35224 0.32342,-0.5317 0.65176,-1.12414 1.18194,-2.3125 1.74386,-3.48237 0.41081,-0.83488 0.82497,-1.668 1.29113,-2.47396 0.45411,-0.78513 0.95411,-1.5446 1.47954,-2.28348 0.18057,-0.24188 0.3561,-0.4876 0.54172,-0.72562 0.74182,-0.95126 1.56355,-1.84606 2.5146,-2.59217 0.35094,-0.25126 0.56318,-0.41452 0.93701,-0.63573 0.65391,-0.38694 1.36434,-0.68174 2.10052,-0.86828 0.18014,-0.0311 0.35899,-0.0711 0.54043,-0.0935 0.25418,-0.0314 0.66896,-0.0538 0.93239,-0.0175 0.13265,0.0183 0.26122,0.0596 0.39028,0.0953 0.32406,0.0898 0.39606,0.12513 0.702,0.24183 0.28726,0.14472 1.04644,0.91231 1.21577,1.20525 0.30737,0.5857 1.03632,-0.12593 0.41463,-0.95953 z"
         inkscape:transform-center-x="-9.1289143"
         inkscape:transform-center-y="7.2091367"
         sodipodi:nodetypes="ccccccccccccccccsscccccscccsccccccc" />
      <path
         id="path1865"
         style="opacity:1;fill:#2ca02c;fill-opacity:1;stroke:none;stroke-width:1.5;stroke-linecap:square;stroke-miterlimit:4;stroke-dasharray:none;stroke-dashoffset:0;paint-order:markers fill stroke"
         d="m 161.45983,235.50185 c 0.0168,0.0553 0.66933,1.7982 0.68935,1.85649 0.0201,0.0583 0.0417,0.11798 0.0649,0.17922 0.0232,0.0613 -3.18989,-0.95872 -3.83204,-1.51756 0.35306,0.61901 3.96027,1.83496 3.98944,1.90174 0.0293,0.0668 0.0599,0.1349 0.092,0.2043 0.0321,0.0694 0.0656,0.14007 0.10043,0.21196 0.0348,0.0719 0.0712,0.14504 0.10866,0.21932 0.0375,0.0743 0.0764,0.14977 0.11654,0.22632 0.0401,0.0766 0.0816,0.15428 0.12413,0.23301 0.0425,0.0788 -3.77674,1.29031 -5.87303,2.85991 4.60071,-2.18079 6.0956,-2.45799 6.14288,-2.37525 0.0472,0.0828 0.0957,0.16642 0.14514,0.25099 0.0495,0.0846 0.1,0.17002 0.15155,0.25631 0.0515,0.0864 0.10412,0.1734 0.15768,0.26129 0.0535,0.0878 0.10803,0.17656 0.16351,0.26593 0.0554,0.0894 0.11181,0.17949 0.16905,0.27026 0.0572,0.0907 0.11536,0.18218 0.1743,0.27422 0.0589,0.092 0.1187,0.18468 0.17924,0.27785 0.0605,0.0931 -2.44603,2.38953 -3.88242,5.79596 1.90197,-3.25713 4.19115,-5.32585 4.25459,-5.23068 0.0634,0.0952 0.12759,0.19077 0.19234,0.28674 0.0648,0.096 0.13016,0.19235 0.19612,0.28903 0.0661,0.0967 0.13253,0.19371 0.19961,0.29097 0.067,0.0974 0.13471,0.19484 0.20281,0.29261 0.0681,0.0977 0.13669,0.19573 0.2057,0.29385 0.0691,0.0981 0.13848,0.19641 0.20831,0.2948 0.0698,0.0983 -2.51232,5.61202 -2.85264,9.58814 0.84586,-2.91384 1.84997,-6.56425 3.37478,-8.86667 0.0718,0.0984 0.25922,0.3621 0.33136,0.46038 0.0721,0.0982 0.14448,0.19647 0.21696,0.29444 0.0725,0.098 0.1451,0.19579 0.2178,0.29336 0.0728,0.0975 0.14551,0.19489 0.21837,0.29193 0.0728,0.0971 0.14574,0.19377 0.21863,0.29016 0.0729,0.0964 0.14576,0.19244 0.21859,0.28807 0.0728,0.0957 0.1456,0.19086 0.21827,0.28565 0.0727,0.0948 0.14524,0.18906 0.21766,0.28286 0.0725,0.0937 0.14469,0.18705 0.21675,0.27975 0.0721,0.0926 0.14393,0.18481 0.21555,0.27631 0.0717,0.0916 0.14298,0.18235 0.21405,0.27253 0.071,0.0901 0.14184,0.17967 0.21226,0.2684 0.0704,0.0887 0.1405,0.17674 0.21018,0.26395 0.0696,0.0871 0.13898,0.1736 0.20781,0.25915 0.0689,0.0855 0.13725,0.17024 0.20516,0.25403 0.0679,0.0837 0.1353,0.16664 0.20218,0.24854 0.0669,0.0819 0.13319,0.16284 0.19892,0.24276 0.0657,0.0799 0.13088,0.15879 0.19538,0.2366 0.0644,0.0778 0.12838,0.15453 0.19156,0.23012 0.0632,0.0756 0.12566,0.15004 0.18741,0.2233 0.0618,0.0732 0.12277,0.14533 0.183,0.21615 0.0602,0.0708 0.11965,0.14039 0.17826,0.20865 0.0587,0.0683 0.11638,0.13524 0.17326,0.20084 0.0569,0.0656 0.11289,0.12984 0.16796,0.19265 0.055,0.0627 0.10921,0.12422 0.16237,0.18415 0.0531,0.06 0.10531,0.11834 0.15646,0.17532 0.0512,0.0569 0.10131,0.11243 0.15029,0.16613 0.049,0.0538 0.097,0.10603 0.14381,0.15663 0.0467,0.0505 0.0925,0.0995 0.13704,0.14676 0.0446,0.0472 0.0879,0.0928 0.12998,0.13658 0.0421,0.0438 0.083,0.0859 0.12262,0.12604 0.0396,0.0403 0.078,0.0787 0.11498,0.1152 0.037,0.0366 0.0727,0.0713 0.10705,0.10399 0.0343,0.0327 0.0673,0.0636 0.0988,0.0925 0.0315,0.0288 0.0616,0.0557 0.0902,0.0806 -0.36763,-0.63783 -0.77239,-1.26413 -1.20267,-1.88324 -0.43028,-0.61911 -0.88608,-1.23105 -1.35579,-1.84017 -0.4697,-0.60912 -0.95333,-1.21544 -1.43925,-1.8233 -0.48591,-0.60786 -0.97414,-1.2173 -1.45305,-1.83263 -0.11974,-0.15385 -0.23888,-0.30805 -0.35727,-0.46269 -0.11838,-0.15466 -0.23601,-0.30974 -0.35268,-0.46533 -0.11669,-0.15559 2.63712,-2.89932 4.72889,-4.49076 -1.62798,0.39344 -4.58495,3.74771 -5.1403,3.77839 -0.45956,-0.57446 -1.15236,-1.50122 -1.54763,-2.15774 -0.18268,-0.3569 -0.32932,-0.44392 -0.44036,-0.74652 1.64525,-2.15351 2.02421,-2.41987 2.70478,-3.84401 0.11614,-0.24304 0.60907,-1.34288 0.64456,-1.44411 -0.15996,0.10616 -0.73171,1.30919 -1.01058,1.71938 -0.58167,0.85562 -1.64999,2.18055 -2.60127,3.06131 -0.085,-0.17025 -0.29408,-0.59139 -0.37372,-0.76394 -0.0399,-0.0864 -0.079,-0.17285 -0.11739,-0.25972 -0.0384,-0.087 -0.0761,-0.17405 -0.11312,-0.26156 -0.037,-0.0876 -0.0732,-0.17528 -0.10871,-0.26345 -0.0177,-0.044 0.61126,-1.02966 0.89914,-2.29822 0.28787,-1.26855 0.30122,-2.46936 0.21767,-2.86443 -0.0544,0.55457 0.002,1.41829 -0.3195,2.59804 -0.32182,1.17976 -0.98475,2.07658 -1.00095,2.03185 -0.0323,-0.0894 -0.0639,-0.17926 -0.0947,-0.26941 -0.0307,-0.0901 -0.0767,-0.17444 -0.0897,-0.2715 -0.0171,-0.12832 -0.64625,-1.84889 -0.72607,-1.77489 -0.18931,-0.54168 -0.77822,-0.35641 -0.74426,0.0931 z"
         sodipodi:nodetypes="csscsssssscsssssssscsssssssccsssssssssssssssssssssssssssssssssscssssssccccscscssscscscssccc" />
      <path
         id="path1867"
         style="opacity:1;fill:none;fill-opacity:1;stroke:#000000;stroke-width:1.5;stroke-linecap:square;stroke-miterlimit:4;stroke-dasharray:none;stroke-dashoffset:0;paint-order:markers fill stroke"
         d="m 135.61142,241.42572 c 0.33586,0.89239 -4.95003,3.03409 -4.44118,3.80182 1.3829,2.08653 3.40881,3.82028 4.33948,7.02645 2.58882,-0.98609 5.26944,-0.87102 7.45231,-0.84081 0.96291,0.0133 1.52947,-5.26109 2.50822,-5.43288 0.97875,-0.17177 2.36973,4.75672 3.33896,4.39194 0.96924,-0.36479 1.88151,-0.81136 2.73064,-1.32753 0.84916,-0.51615 3.03618,-1.06749 2.35191,-1.74508 -12.51183,-12.38964 1.36422,-1.34367 1.93628,-2.08938 0.57206,-0.74571 1.06869,-1.5366 1.48376,-2.36046 0.41507,-0.82386 1.88697,-2.37438 0.99434,-2.55831 -20.17477,-4.15698 0.40386,-1.77599 0.46805,-2.68293 0.0642,-0.90695 0.0345,-1.82246 -0.0951,-2.73433 -0.12969,-0.91188 -0.35938,-1.8201 -0.69525,-2.7125 -0.33586,-0.89239 -0.76199,-1.72668 -1.26572,-2.49778 -0.5037,-0.77111 -6.52347,2.52326 -7.1697,1.88376 -0.64625,-0.63957 4.081,-5.21308 3.31757,-5.71087 -0.76342,-0.49778 -1.57912,-0.92211 -2.43438,-1.26785 -0.85528,-0.34576 -2.31747,-0.48478 -3.13837,-0.0271 -1.32431,0.73835 -2.36455,8.05866 -3.32748,8.04768 -0.96293,-0.011 -0.39945,-6.63381 -1.88268,-8.00775 -0.72901,-0.6753 -2.03471,-0.42732 -3.00394,-0.0625 -0.96924,0.36478 -1.88151,0.81135 -2.73063,1.32754 5.96386,9.12891 2.35387,6.14465 -2.35191,1.74506 -0.71674,0.64315 -1.36422,1.34367 -1.93628,2.08938 -0.57205,0.74571 -1.06869,1.5366 -1.48376,2.36046 10.38595,4.28824 9.83613,5.0757 -0.99434,2.55831 -0.88772,-0.20634 -0.40385,1.77598 -0.46805,2.68293 -0.0642,0.90695 -0.0345,1.82245 0.0951,2.73432 0.12969,0.91188 6.06629,0.51607 6.40215,1.40846 z"
         sodipodi:nodetypes="sscsssssssssssscscscssccscssss" />
      <path
         style="opacity:1;fill:#2ca02c;fill-opacity:1;stroke:none;stroke-width:1.5;stroke-linecap:square;stroke-miterlimit:4;stroke-dasharray:none;paint-order:markers fill stroke"
         id="path1810"
         d="m 132.37724,228.43888 c 0.85331,-0.49526 2.0451,-0.84056 2.77137,-0.78176 0.15297,0.0132 0.30746,0.0212 0.45746,0.0539 0.19538,0.0424 0.38737,0.1015 0.57483,0.17091 0.48851,0.18128 0.30655,0.52829 0.75906,0.78964 0.71275,0.4847 1.3517,1.07837 1.89337,1.74911 0.31067,0.38467 0.45149,0.61352 0.7234,1.01928 0.6737,1.10192 1.16214,2.30459 1.54563,3.53518 0.0939,0.3012 0.17508,0.60619 0.26261,0.90928 0.23873,0.90547 0.44527,1.82156 0.59796,2.74579 0.15629,0.94609 0.25319,1.89904 0.34547,2.85291 0.11209,1.27767 0.18472,2.5618 0.39554,3.82855 0.032,0.19208 0.0723,0.38266 0.10842,0.57398 0.12689,0.56582 0.28856,1.13003 0.55159,1.64945 0.1158,0.2287 0.20023,0.3462 0.33886,0.55932 0.30588,0.41887 0.65826,0.80211 1.02211,1.17097 0.46416,0.47126 -0.20229,1.12769 -0.66645,0.65643 v 0 c -0.40792,-0.41472 -0.80339,-0.84525 -1.14137,-1.31973 -0.17493,-0.27228 -0.25839,-0.38665 -0.40535,-0.68125 -0.2932,-0.5877 -0.47747,-1.22314 -0.6187,-1.86218 -0.0382,-0.2039 -0.0808,-0.40704 -0.11471,-0.61168 -0.21256,-1.28191 -0.28869,-2.58095 -0.40105,-3.8739 -0.0893,-0.92618 -0.18245,-1.85189 -0.3338,-2.77057 -0.14743,-0.89494 -0.34686,-1.78208 -0.57735,-2.65895 -0.0835,-0.29007 -0.16086,-0.58196 -0.25042,-0.87021 -0.35789,-1.152 -0.81049,-2.27942 -1.4366,-3.31342 -0.23953,-0.35905 -0.3804,-0.58676 -0.65197,-0.92578 -0.47503,-0.59302 -1.03549,-1.11981 -1.65828,-1.55441 -0.15754,-0.0927 -0.31072,-0.19335 -0.47255,-0.27841 -0.22669,-0.11918 -0.60681,-0.28668 -0.86607,-0.34579 -0.13056,-0.0298 -0.26543,-0.0365 -0.39878,-0.0487 -0.33489,-0.0305 -0.41473,-0.0229 -0.74217,-0.0218 -0.31986,0.0339 -1.30128,0.48376 -1.56318,0.69798 -0.49448,0.43933 -0.925,-0.48395 -0.0489,-1.04414 z"
         inkscape:transform-center-x="-6.171303"
         inkscape:transform-center-y="-11.319668"
         sodipodi:nodetypes="ccccccccccccccccsscccccscccsccccccc" />
      <path
         d="m 143.60703,251.20557 c -3.7e-4,-0.46275 -0.008,-0.92541 0.0133,-1.38802 0.0609,-0.56863 0.19378,-1.13392 0.33212,-1.69739 0.0922,-0.39122 0.18862,-0.78202 0.27249,-1.17398 0.10667,-0.36732 0.18079,-0.73746 0.25814,-1.10728 0.0927,-0.33096 0.16913,-0.66306 0.20425,-0.99805 0.0737,-0.35946 0.0968,-0.72135 0.14693,-1.08196 0.0486,-0.28835 0.0915,-0.57697 0.112,-0.86656 0.0117,-0.21795 0.0117,-0.43604 0.0117,-0.65408 -4.4e-4,-0.2226 -0.001,-0.4452 -0.002,-0.6678 -4.3e-4,-0.16987 -8.8e-4,-0.33974 -8.8e-4,-0.50961 -2.8e-4,-0.18287 -4.3e-4,-0.36574 -8.8e-4,-0.5486 -4e-5,-0.0279 -9e-5,-0.0558 -1.2e-4,-0.0836 -0.002,-1.05353 2.47772,-1.0549 2.47934,-0.001 v 0 c 5e-5,0.0279 8e-5,0.0558 1.3e-4,0.0836 2.6e-4,0.18283 4.3e-4,0.36565 8.8e-4,0.54848 2.8e-4,0.1695 4.3e-4,0.339 8.8e-4,0.50851 4.4e-4,0.22339 0.001,0.44679 0.002,0.67018 6e-5,0.23974 1.1e-4,0.47955 -0.015,0.71917 -0.0228,0.31023 -0.0657,0.6196 -0.11865,0.92849 -0.0513,0.35035 -0.0677,0.70254 -0.14311,1.05173 -0.0404,0.36475 -0.11432,0.72731 -0.21846,1.08756 -0.0779,0.37125 -0.1511,0.74302 -0.25907,1.11167 -0.0862,0.40095 -0.18438,0.8008 -0.27873,1.20104 -0.12414,0.50564 -0.24356,1.01274 -0.30656,1.52258 -0.0223,0.44787 -0.0117,0.89588 -0.0117,1.34392 0.002,1.05352 -2.47772,1.05491 -2.47935,0.001 z"
         id="path1515"
         style="opacity:1;fill:#241c1c;fill-opacity:1;stroke:#000000;stroke-width:0.515997;stroke-linecap:square;stroke-miterlimit:4;stroke-dasharray:none;paint-order:markers fill stroke" />
      <path
         transform="matrix(-0.26458333,0,0,0.26458333,182.3578,200.78249)"
         d="M 208.13672 70.458984 C 205.75581 94.690405 202.95368 112.17122 197.10547 71.375 C 193.40694 72.028367 189.7027 73.037031 186.04102 74.419922 C 182.37933 75.802775 178.05445 78.355734 177.66992 82.091797 C 176.88756 89.693107 195.01286 107.08766 192.30664 109.52148 C 189.60042 111.95535 168.38105 93.770087 162.7793 94.978516 C 159.30697 95.72758 155.50272 99.771103 153.9375 102.88672 C 152.37225 106.0023 151.11461 109.24254 150.18945 112.56055 C 149.26426 115.87856 174.09629 117.06603 173.85742 120.49414 C 173.61859 123.92206 148.31067 129.59124 148.80469 133.03711 C 149.29875 136.48302 150.17011 139.91382 151.44336 143.28516 C 152.71661 146.65653 154.33109 149.8085 156.23828 152.7207 C 158.14543 155.6329 160.34574 158.30623 162.79102 160.7207 C 165.23626 163.1351 217.71423 105.02706 170.81445 167.16797 C 168.73938 169.91735 176.78558 170.64807 180.01953 171.95117 C 183.25356 173.25428 186.63644 174.25972 190.12109 174.94922 C 193.6057 175.63876 205.4361 109.65757 200.83203 176.04883 C 200.58024 179.67974 208.16475 175.78821 211.86328 175.13477 C 215.56178 174.48136 219.26605 173.47274 222.92773 172.08984 C 226.58942 170.70695 218.24019 153.24552 221.44727 151.29102 C 224.65438 149.33651 239.42276 162.89556 242.12305 160.45508 C 248.24441 154.92261 255.5673 147.90642 265.37695 144.24609 C 260.01875 132.82221 261.44457 122.84653 260.16406 113.47266 C 259.69291 110.02369 239.34356 117.1331 238.07031 113.76172 C 236.7971 110.39034 254.63762 96.699311 252.73047 93.787109 C 250.82332 90.874946 248.62298 88.2035 246.17773 85.789062 C 243.73246 83.374587 240.15949 76.5391 238.1543 79.339844 C 213.6901 113.5104 210.16362 112.64709 228.94727 74.558594 C 225.71328 73.255526 222.33035 72.250046 218.8457 71.560547 C 215.36109 70.87101 211.77618 70.49678 208.13672 70.458984 z M 214.52148 106.77344 A 1.6569487 4.3136847 31.15057 0 1 214.88867 106.87109 A 1.6569487 4.3136847 31.15057 0 1 214.07422 111.41992 A 1.6569487 4.3136847 31.15057 0 1 210.42578 114.25586 A 1.6569487 4.3136847 31.15057 0 1 211.23828 109.70703 A 1.6569487 4.3136847 31.15057 0 1 214.52148 106.77344 z M 219.875 136 A 2.375 4.9999996 0 0 1 222.25 141 A 2.375 4.9999996 0 0 1 219.875 146 A 2.375 4.9999996 0 0 1 217.5 141 A 2.375 4.9999996 0 0 1 219.875 136 z "
         inkscape:transform-center-y="-16.591447"
         inkscape:transform-center-x="-16.982774"
         style="opacity:1;fill:#165016;fill-opacity:1;stroke:#000000;stroke-width:1.88976;stroke-linecap:square;stroke-miterlimit:4;stroke-dasharray:none;paint-order:markers fill stroke"
         id="path1795" />
      <path
         id="path1798"
         style="opacity:1;fill:#2ca02c;fill-opacity:1;stroke:none;stroke-width:1.5;stroke-linecap:square;stroke-miterlimit:4;stroke-dasharray:none;paint-order:markers fill stroke"
         d="m 133.05831,228.8646 c -0.0341,0.0373 -1.23675,1.16479 -1.2751,1.20321 -0.0384,0.0384 -0.0788,0.0773 -0.12129,0.11683 -0.0425,0.0395 3.61114,0.49375 4.44783,0.30259 -0.55353,0.3527 -4.67663,-0.10095 -4.72706,-0.0594 -0.0505,0.0415 -0.10287,0.0836 -0.15715,0.12605 -0.0542,0.0425 -0.1104,0.0854 -0.16828,0.12881 -0.0579,0.0434 -0.11759,0.0872 -0.179,0.13144 -0.0614,0.0443 -0.12453,0.0889 -0.1893,0.13389 -0.0648,0.045 -0.13122,0.0904 -0.19922,0.13621 -0.068,0.0458 3.54799,2.5109 5.26134,4.58238 -4.1394,-3.54236 -5.6138,-4.35075 -5.68787,-4.30363 -0.074,0.0471 -0.1496,0.0945 -0.2265,0.14223 -0.0769,0.0477 -0.1552,0.0957 -0.2348,0.14393 -0.0796,0.0483 -0.1605,0.0967 -0.24265,0.14548 -0.0821,0.0487 -0.16556,0.0977 -0.25014,0.14687 -0.0845,0.0492 -0.17032,0.0985 -0.25719,0.14812 -0.0868,0.0495 -0.17484,0.0993 -0.26385,0.14921 -0.089,0.0499 -0.17907,0.1 -0.2701,0.15015 -0.091,0.0502 1.8318,2.8603 2.30664,6.13098 -1.0047,-3.3353 -2.76931,-5.87909 -2.86396,-5.82848 -0.0947,0.0506 -0.19015,0.10131 -0.28641,0.15206 -0.0962,0.0508 -0.19331,0.10155 -0.29104,0.15238 -0.0978,0.0508 -0.19618,0.1017 -0.29525,0.15256 -0.0991,0.0509 -0.19879,0.10173 -0.29906,0.15258 -0.10033,0.0508 -0.20113,0.10167 -0.30247,0.15245 -0.10137,0.0508 -0.2032,0.10151 -0.30547,0.15217 -0.10229,0.0506 0.9343,5.44577 0.0962,8.73761 -0.007,-2.64708 0.0414,-5.94143 -0.85667,-8.37007 -0.10428,0.05 -0.3787,0.1856 -0.48334,0.23527 -0.10459,0.0497 -0.20946,0.0992 -0.31437,0.14848 -0.10489,0.0493 -0.2099,0.0984 -0.31492,0.14728 -0.10503,0.0488 -0.21007,0.0975 -0.31508,0.14593 -0.10498,0.0484 -0.20997,0.0966 -0.31482,0.14443 -0.10487,0.0478 -0.2096,0.0955 -0.31417,0.14278 -0.10456,0.0473 -0.20895,0.0943 -0.31309,0.14098 -0.10412,0.0467 -0.20804,0.093 -0.31163,0.139 -0.10362,0.046 -0.20685,0.0916 -0.30974,0.13691 -0.10293,0.0453 -0.2054,0.0901 -0.30746,0.13463 -0.1021,0.0445 -0.20367,0.0886 -0.30477,0.13222 -0.10103,0.0436 -0.20167,0.0869 -0.30166,0.12965 -0.0999,0.0427 -0.19941,0.0851 -0.29816,0.12693 -0.0987,0.0418 -0.19687,0.0832 -0.29426,0.12406 -0.0974,0.0408 -0.19406,0.0812 -0.28994,0.12102 -0.0958,0.0398 -0.19097,0.0791 -0.28521,0.11785 -0.0943,0.0387 -0.18762,0.0769 -0.28007,0.11452 -0.0924,0.0376 -0.184,0.0746 -0.27455,0.11103 -0.0905,0.0365 -0.1801,0.0722 -0.26859,0.1074 -0.0885,0.0352 -0.17594,0.0697 -0.26225,0.1036 -0.0863,0.0339 -0.1715,0.0671 -0.2555,0.0997 -0.084,0.0325 -0.16679,0.0644 -0.24832,0.0956 -0.0816,0.0312 -0.16181,0.0616 -0.24076,0.0913 -0.079,0.0297 -0.15657,0.0587 -0.23279,0.0869 -0.0762,0.0282 -0.15104,0.0557 -0.2244,0.0824 -0.0734,0.0267 -0.14525,0.0526 -0.21561,0.0777 -0.0704,0.025 -0.1392,0.0494 -0.20641,0.0728 -0.0672,0.0235 -0.13285,0.046 -0.19682,0.0678 -0.0639,0.0217 -0.12625,0.0427 -0.18681,0.0626 -0.0606,0.02 -0.11933,0.0392 -0.17639,0.0573 -0.057,0.0182 -0.1122,0.0356 -0.16557,0.0519 -0.0533,0.0164 -0.1048,0.0318 -0.15435,0.0462 -0.0495,0.0144 -0.0971,0.028 -0.14272,0.0405 -0.0456,0.0125 -0.0891,0.0241 -0.13067,0.0346 -0.0415,0.0105 -0.0809,0.02 -0.11823,0.0285 0.57436,-0.36192 1.18394,-0.70007 1.81796,-1.02247 0.634,-0.32241 1.29245,-0.62907 1.96455,-0.92802 0.6721,-0.29896 1.35786,-0.59021 2.04647,-0.88178 0.68861,-0.29158 1.38009,-0.58349 2.06365,-0.88376 0.17089,-0.0751 0.34128,-0.15065 0.51102,-0.22689 0.16973,-0.0763 0.3388,-0.15314 0.50704,-0.2308 0.16824,-0.0777 -1.87801,-3.34039 -3.58008,-5.42744 1.57819,0.95308 3.65297,4.78065 4.22239,5.02354 0.65113,-0.27541 1.65095,-0.73885 2.2597,-1.10474 0.29739,-0.21158 0.47628,-0.22299 0.68275,-0.41963 -1.06827,-2.35776 -1.38322,-2.71843 -1.66514,-4.11731 -0.0481,-0.23873 -0.2318,-1.30622 -0.23842,-1.40057 0.13483,0.14723 0.36969,1.32771 0.5372,1.76322 0.34941,0.90844 1.0651,2.3811 1.79206,3.45493 0.13965,-0.10175 0.48379,-0.35397 0.61853,-0.45967 0.0674,-0.0529 0.13408,-0.10622 0.20022,-0.16009 0.0661,-0.0539 0.13153,-0.10828 0.19631,-0.16323 0.0648,-0.0549 0.12882,-0.11041 0.19228,-0.16646 0.0316,-0.028 -0.32803,-1.0583 -0.24747,-2.17909 0.0806,-1.1208 0.42683,-2.07975 0.63238,-2.36065 -0.10965,0.46186 -0.42822,1.12537 -0.44638,2.18914 -0.0186,1.06362 0.40315,2.03675 0.43344,2.0076 0.0605,-0.0583 0.12038,-0.11722 0.17944,-0.17672 0.059,-0.0595 0.13222,-0.10837 0.1749,-0.18034 0.0564,-0.0952 1.2279,-1.21413 1.28887,-1.12396 0.35972,-0.35572 0.91774,0.0232 0.7475,0.36686 z"
         sodipodi:nodetypes="csscsssssscsssssssscsssssssccsssssssssssssssssssssssssssssssssscssssssccccscscssscscscssccc"
         inkscape:transform-center-x="-18.410349"
         inkscape:transform-center-y="-16.124514" />
      <path
         sodipodi:nodetypes="ccccccccccccccccsscccccscccsccccccc"
         inkscape:transform-center-y="7.2091367"
         inkscape:transform-center-x="-9.1289143"
         d="m 162.12463,235.23515 c -0.6233,-0.7648 -1.61623,-1.5089 -2.31644,-1.71048 -0.14777,-0.0417 -0.29512,-0.0888 -0.44701,-0.11119 -0.19774,-0.0294 -0.39825,-0.0419 -0.59814,-0.0432 -0.52105,-0.003 -0.47343,0.38591 -0.98909,0.47054 -0.83803,0.20162 -1.64552,0.53125 -2.38924,0.96736 -0.42654,0.2501 -0.63913,0.41444 -1.03686,0.69796 -1.01957,0.79283 -1.90142,1.74537 -2.69495,2.76111 -0.19423,0.24861 -0.37796,0.50524 -0.56693,0.75786 -0.54324,0.76273 -1.06012,1.54676 -1.5295,2.35744 -0.48047,0.82986 -0.9078,1.68712 -1.33114,2.54686 -0.55627,1.15567 -1.07791,2.33132 -1.72268,3.4419 -0.0978,0.16838 -0.20281,0.33244 -0.30422,0.49865 -0.31861,0.4845 -0.6692,0.9552 -1.09878,1.34819 -0.18913,0.17304 -0.30963,0.25314 -0.51461,0.40353 -0.43415,0.28379 -0.8992,0.51782 -1.36991,0.73434 -0.60072,0.27687 -0.20918,1.12643 0.39155,0.84955 v 0 c 0.52814,-0.24385 1.05021,-0.50689 1.53403,-0.83136 0.25985,-0.19292 0.37833,-0.27043 0.6199,-0.4941 0.48193,-0.44621 0.87882,-0.97557 1.23672,-1.5235 0.10779,-0.17724 0.21938,-0.35224 0.32342,-0.5317 0.65176,-1.12414 1.18194,-2.3125 1.74386,-3.48237 0.41081,-0.83488 0.82497,-1.668 1.29113,-2.47396 0.45411,-0.78513 0.95411,-1.5446 1.47954,-2.28348 0.18057,-0.24188 0.3561,-0.4876 0.54172,-0.72562 0.74182,-0.95126 1.56355,-1.84606 2.5146,-2.59217 0.35094,-0.25126 0.56318,-0.41452 0.93701,-0.63573 0.65391,-0.38694 1.36434,-0.68174 2.10052,-0.86828 0.18014,-0.0311 0.35899,-0.0711 0.54043,-0.0935 0.25418,-0.0314 0.66896,-0.0538 0.93239,-0.0175 0.13265,0.0183 0.26122,0.0596 0.39028,0.0953 0.32406,0.0898 0.39606,0.12513 0.702,0.24183 0.28726,0.14472 1.04644,0.91231 1.21577,1.20525 0.30737,0.5857 1.03632,-0.12593 0.41463,-0.95953 z"
         id="path1810-9"
         style="opacity:1;fill:#2ca02c;fill-opacity:1;stroke:none;stroke-width:1.5;stroke-linecap:square;stroke-miterlimit:4;stroke-dasharray:none;paint-order:markers fill stroke" />
      <path
         transform="matrix(-0.26458333,0,0,0.26458333,182.3578,200.78249)"
         d="M 69.164062 96.152344 C 65.649707 96.152344 62.218224 96.583093 58.904297 97.402344 C 62.634577 118.99615 57.670768 118.50044 49.349609 100.98438 C 46.304406 102.5401 43.409468 104.44433 40.701172 106.6543 C 37.992914 108.86422 35.471062 111.38038 33.167969 114.16211 C 61.028378 148.31589 58.340186 150.7342 26.951172 123.26172 C 24.378372 121.00995 23.545838 130.02887 22.257812 133.70703 C 20.96975 137.38519 19.969176 141.24538 19.291016 145.24805 C 18.612893 149.25076 37.941406 156.91142 37.941406 161.15625 C 37.941406 165.40111 18.592597 166.03647 19.291016 170.0332 C 21.189057 180.89538 25.55248 191.29515 24.675781 206.11328 C 34.076751 206.06453 42.452765 210.7479 49.349609 214.29688 C 52.39194 215.86236 56.996619 202.27469 60.310547 203.09375 C 63.624437 203.91289 65.649707 219.12891 69.164062 219.12891 C 72.678494 219.12891 76.109901 218.69819 79.423828 217.87891 C 82.737793 217.05981 90.34382 218.19296 88.980469 214.29688 C 64.052141 143.05467 94.918695 210.83684 97.626953 208.62695 C 100.33521 206.41699 102.85902 203.90087 105.16211 201.11914 C 107.46516 198.33733 113.81751 194.38064 111.37695 192.01953 C 69.196821 151.21261 114.88093 185.29989 116.07031 181.57422 C 117.25553 177.86166 118.35899 174.03595 119.03711 170.0332 C 119.71527 166.03049 120.07227 161.88545 120.07227 157.64062 C 120.07227 153.39576 119.71535 149.25076 119.03711 145.24805 C 118.35899 141.2453 95.301659 145.5313 94.013672 141.85352 C 92.725647 138.17535 113.20662 126.53294 111.37695 123.26172 C 109.54728 119.99054 107.4652 116.94392 105.16211 114.16211 C 102.85905 111.38038 98.380805 108.50734 95.226562 109.12695 C 90.137882 110.12656 78.082313 138.9971 75.037109 137.44141 C 71.991831 135.88571 81.699307 109.17359 78.630859 101.12305 C 77.122639 97.166259 72.678494 96.152344 69.164062 96.152344 z M 60.546875 120.11719 A 5.1249999 2.7499999 75.3921 0 1 64.160156 124.43164 A 5.1249999 2.7499999 75.3921 0 1 62.792969 130.08398 A 5.1249999 2.7499999 75.3921 0 1 58.839844 125.81836 A 5.1249999 2.7499999 75.3921 0 1 60.207031 120.16602 A 5.1249999 2.7499999 75.3921 0 1 60.546875 120.11719 z M 79.888672 152.75586 A 8.4999997 4.3749999 46.600354 0 1 86.929688 156.61914 A 8.4999997 4.3749999 46.600354 0 1 89.589844 165.80078 A 8.4999997 4.3749999 46.600354 0 1 80.570312 162.63086 A 8.4999997 4.3749999 46.600354 0 1 77.910156 153.44922 A 8.4999997 4.3749999 46.600354 0 1 79.888672 152.75586 z M 59.875 182 A 3.8749999 7.4999999 0 0 1 63.75 189.5 A 3.8749999 7.4999999 0 0 1 59.875 197 A 3.8749999 7.4999999 0 0 1 56 189.5 A 3.8749999 7.4999999 0 0 1 59.875 182 z "
         style="opacity:1;fill:#165016;fill-opacity:1;stroke:#000000;stroke-width:1.88976;stroke-linecap:square;stroke-miterlimit:4;stroke-dasharray:none;paint-order:markers fill stroke"
         id="path1814" />
      <path
         sodipodi:nodetypes="csscsssssscsssssssscsssssssccsssssssssssssssssssssssssssssssssscssssssccccscscssscscscssccc"
         d="m 161.45983,235.50185 c 0.0168,0.0553 0.66933,1.7982 0.68935,1.85649 0.0201,0.0583 0.0417,0.11798 0.0649,0.17922 0.0232,0.0613 -3.18989,-0.95872 -3.83204,-1.51756 0.35306,0.61901 3.96027,1.83496 3.98944,1.90174 0.0293,0.0668 0.0599,0.1349 0.092,0.2043 0.0321,0.0694 0.0656,0.14007 0.10043,0.21196 0.0348,0.0719 0.0712,0.14504 0.10866,0.21932 0.0375,0.0743 0.0764,0.14977 0.11654,0.22632 0.0401,0.0766 0.0816,0.15428 0.12413,0.23301 0.0425,0.0788 -3.77674,1.29031 -5.87303,2.85991 4.60071,-2.18079 6.0956,-2.45799 6.14288,-2.37525 0.0472,0.0828 0.0957,0.16642 0.14514,0.25099 0.0495,0.0846 0.1,0.17002 0.15155,0.25631 0.0515,0.0864 0.10412,0.1734 0.15768,0.26129 0.0535,0.0878 0.10803,0.17656 0.16351,0.26593 0.0554,0.0894 0.11181,0.17949 0.16905,0.27026 0.0572,0.0907 0.11536,0.18218 0.1743,0.27422 0.0589,0.092 0.1187,0.18468 0.17924,0.27785 0.0605,0.0931 -2.44603,2.38953 -3.88242,5.79596 1.90197,-3.25713 4.19115,-5.32585 4.25459,-5.23068 0.0634,0.0952 0.12759,0.19077 0.19234,0.28674 0.0648,0.096 0.13016,0.19235 0.19612,0.28903 0.0661,0.0967 0.13253,0.19371 0.19961,0.29097 0.067,0.0974 0.13471,0.19484 0.20281,0.29261 0.0681,0.0977 0.13669,0.19573 0.2057,0.29385 0.0691,0.0981 0.13848,0.19641 0.20831,0.2948 0.0698,0.0983 -2.51232,5.61202 -2.85264,9.58814 0.84586,-2.91384 1.84997,-6.56425 3.37478,-8.86667 0.0718,0.0984 0.25922,0.3621 0.33136,0.46038 0.0721,0.0982 0.14448,0.19647 0.21696,0.29444 0.0725,0.098 0.1451,0.19579 0.2178,0.29336 0.0728,0.0975 0.14551,0.19489 0.21837,0.29193 0.0728,0.0971 0.14574,0.19377 0.21863,0.29016 0.0729,0.0964 0.14576,0.19244 0.21859,0.28807 0.0728,0.0957 0.1456,0.19086 0.21827,0.28565 0.0727,0.0948 0.14524,0.18906 0.21766,0.28286 0.0725,0.0937 0.14469,0.18705 0.21675,0.27975 0.0721,0.0926 0.14393,0.18481 0.21555,0.27631 0.0717,0.0916 0.14298,0.18235 0.21405,0.27253 0.071,0.0901 0.14184,0.17967 0.21226,0.2684 0.0704,0.0887 0.1405,0.17674 0.21018,0.26395 0.0696,0.0871 0.13898,0.1736 0.20781,0.25915 0.0689,0.0855 0.13725,0.17024 0.20516,0.25403 0.0679,0.0837 0.1353,0.16664 0.20218,0.24854 0.0669,0.0819 0.13319,0.16284 0.19892,0.24276 0.0657,0.0799 0.13088,0.15879 0.19538,0.2366 0.0644,0.0778 0.12838,0.15453 0.19156,0.23012 0.0632,0.0756 0.12566,0.15004 0.18741,0.2233 0.0618,0.0732 0.12277,0.14533 0.183,0.21615 0.0602,0.0708 0.11965,0.14039 0.17826,0.20865 0.0587,0.0683 0.11638,0.13524 0.17326,0.20084 0.0569,0.0656 0.11289,0.12984 0.16796,0.19265 0.055,0.0627 0.10921,0.12422 0.16237,0.18415 0.0531,0.06 0.10531,0.11834 0.15646,0.17532 0.0512,0.0569 0.10131,0.11243 0.15029,0.16613 0.049,0.0538 0.097,0.10603 0.14381,0.15663 0.0467,0.0505 0.0925,0.0995 0.13704,0.14676 0.0446,0.0472 0.0879,0.0928 0.12998,0.13658 0.0421,0.0438 0.083,0.0859 0.12262,0.12604 0.0396,0.0403 0.078,0.0787 0.11498,0.1152 0.037,0.0366 0.0727,0.0713 0.10705,0.10399 0.0343,0.0327 0.0673,0.0636 0.0988,0.0925 0.0315,0.0288 0.0616,0.0557 0.0902,0.0806 -0.36763,-0.63783 -0.77239,-1.26413 -1.20267,-1.88324 -0.43028,-0.61911 -0.88608,-1.23105 -1.35579,-1.84017 -0.4697,-0.60912 -0.95333,-1.21544 -1.43925,-1.8233 -0.48591,-0.60786 -0.97414,-1.2173 -1.45305,-1.83263 -0.11974,-0.15385 -0.23888,-0.30805 -0.35727,-0.46269 -0.11838,-0.15466 -0.23601,-0.30974 -0.35268,-0.46533 -0.11669,-0.15559 2.63712,-2.89932 4.72889,-4.49076 -1.62798,0.39344 -4.58495,3.74771 -5.1403,3.77839 -0.45956,-0.57446 -1.15236,-1.50122 -1.54763,-2.15774 -0.18268,-0.3569 -0.32932,-0.44392 -0.44036,-0.74652 1.64525,-2.15351 2.02421,-2.41987 2.70478,-3.84401 0.11614,-0.24304 0.60907,-1.34288 0.64456,-1.44411 -0.15996,0.10616 -0.73171,1.30919 -1.01058,1.71938 -0.58167,0.85562 -1.64999,2.18055 -2.60127,3.06131 -0.085,-0.17025 -0.29408,-0.59139 -0.37372,-0.76394 -0.0399,-0.0864 -0.079,-0.17285 -0.11739,-0.25972 -0.0384,-0.087 -0.0761,-0.17405 -0.11312,-0.26156 -0.037,-0.0876 -0.0732,-0.17528 -0.10871,-0.26345 -0.0177,-0.044 0.61126,-1.02966 0.89914,-2.29822 0.28787,-1.26855 0.30122,-2.46936 0.21767,-2.86443 -0.0544,0.55457 0.002,1.41829 -0.3195,2.59804 -0.32182,1.17976 -0.98475,2.07658 -1.00095,2.03185 -0.0323,-0.0894 -0.0639,-0.17926 -0.0947,-0.26941 -0.0307,-0.0901 -0.0767,-0.17444 -0.0897,-0.2715 -0.0171,-0.12832 -0.64625,-1.84889 -0.72607,-1.77489 -0.18931,-0.54168 -0.77822,-0.35641 -0.74426,0.0931 z"
         style="opacity:1;fill:#2ca02c;fill-opacity:1;stroke:none;stroke-width:1.54259;stroke-linecap:square;stroke-miterlimit:4;stroke-dasharray:none;paint-order:markers fill stroke"
         id="path1816" />
      <path
         d="m 140.87313,224.01943 c 0.46324,0.01 0.89287,0.1283 1.21181,0.42374 1.48323,1.37394 0.91964,7.99678 1.88257,8.00778 0.96294,0.011 2.00314,-7.30922 3.32745,-8.04757 0.8209,-0.45768 2.28303,-0.31889 3.13831,0.0269 0.85526,0.34574 1.67106,0.77036 2.43448,1.26814 0.76343,0.49779 -3.96388,5.07119 -3.31763,5.71076 0.64623,0.6395 6.66589,-2.65471 7.16959,-1.8836 0.50373,0.7711 0.93021,1.60513 1.26607,2.49752 0.33587,0.8924 0.56536,1.80062 0.69505,2.7125 0.1296,0.91187 -0.51309,2.05832 0.0951,2.7342 0.90779,1.00885 -8.18972,-0.16824 -0.46818,2.68304 0.85496,0.3157 -0.57919,1.73464 -0.99426,2.5585 -0.41507,0.82386 -0.91157,1.61487 -1.48363,2.36058 -0.57206,0.74571 -14.44815,-10.30037 -1.93632,2.08927 0.68428,0.67759 -1.50263,1.22897 -2.35179,1.74512 -0.84913,0.51617 -1.76134,0.96278 -2.73058,1.32757 -0.96923,0.36478 -2.36058,-4.56376 -3.33933,-4.39198 -0.97875,0.17179 -1.54495,5.44604 -2.50786,5.43274 -2.18287,-0.0302 -4.86396,-0.14532 -7.45278,0.84077 -0.93067,-3.20617 -2.95636,-4.93991 -4.33926,-7.02644 -0.50886,-0.76773 4.77693,-2.90945 4.44107,-3.80183 -0.33586,-0.8924 -6.27251,-0.49631 -6.4022,-1.40819 -0.1296,-0.91187 -0.15928,-1.82776 -0.0951,-2.73472 0.0642,-0.90695 -0.41953,-2.88886 0.46819,-2.68252 10.83047,2.51739 11.3802,1.72974 0.99425,-2.5585 0.41507,-0.82386 0.91158,-1.61487 1.48363,-2.36058 0.57206,-0.74571 1.21958,-1.44613 1.93632,-2.08928 4.70578,4.39959 8.31617,7.3838 2.35231,-1.74511 0.84912,-0.51619 1.76134,-0.96279 2.73058,-1.32757 0.54519,-0.20521 1.19655,-0.37347 1.79214,-0.36121 z m 7.45743,11.32695 a 4.2433967,1.2898438 10.80527 0 0 -2.15233,0.70073 4.2433967,1.2898438 10.80527 0 0 3.92638,2.06241 4.2433967,1.2898438 10.80527 0 0 4.41007,-0.47129 4.2433967,1.2898438 10.80527 0 0 -3.92638,-2.0624 4.2433967,1.2898438 10.80527 0 0 -2.25774,-0.22945 z m -8.83874,0.53899 a 0.99218749,0.56223958 28.23246 0 0 -0.47077,0.21342 0.99218749,0.56223958 28.23246 0 0 0.60823,0.9648 0.99218749,0.56223958 28.23246 0 0 1.1405,-0.0264 0.99218749,0.56223958 28.23246 0 0 -0.60823,-0.9648 0.99218749,0.56223958 28.23246 0 0 -0.64441,-0.18655 0.99218749,0.56223958 28.23246 0 0 -0.0253,-5.2e-4 z m -1.23455,4.48241 a 1.6205728,0.72760413 2.956033 0 0 -1.46865,0.64751 1.6205728,0.72760413 2.956033 0 0 1.58079,0.81028 1.6205728,0.72760413 2.956033 0 0 1.65623,-0.64285 1.6205728,0.72760413 2.956033 0 0 -1.58078,-0.81029 1.6205728,0.72760413 2.956033 0 0 -0.18759,-0.005 z"
         style="opacity:1;fill:#165016;fill-opacity:1;stroke:#000000;stroke-width:0.499999;stroke-linecap:square;stroke-miterlimit:4;stroke-dasharray:none;paint-order:markers fill stroke"
         id="path1873" />
      <path
         id="path1875"
         style="opacity:1;fill:#2ca02c;fill-opacity:1;stroke:none;stroke-width:1.5;stroke-linecap:square;stroke-miterlimit:4;stroke-dasharray:none;paint-order:markers fill stroke"
         d="m 144.56385,230.73423 c -9.7e-4,0.0505 -0.15994,1.69136 -0.16338,1.74552 -0.003,0.0542 -0.008,0.11009 -0.014,0.16786 -0.006,0.0578 3.0383,-2.01317 3.54055,-2.70913 -0.18291,0.63035 -3.57927,3.01163 -3.58972,3.07614 -0.0105,0.0645 -0.0221,0.1307 -0.0348,0.19842 -0.0126,0.0677 -0.0265,0.13705 -0.0413,0.20785 -0.0148,0.0708 -0.0308,0.14314 -0.0477,0.21689 -0.0169,0.0738 -0.0349,0.14896 -0.0538,0.22554 -0.0189,0.0766 -0.0388,0.15456 -0.0597,0.23383 -0.0207,0.0793 4.32256,-0.4564 6.97703,-0.0316 -5.44773,0.0721 -7.08884,0.43831 -7.11337,0.5226 -0.0245,0.0842 -0.05,0.16975 -0.0762,0.25636 -0.0262,0.0866 -0.0534,0.17433 -0.0813,0.26312 -0.028,0.0888 -0.0567,0.17862 -0.0862,0.26947 -0.0295,0.0908 -0.0598,0.18267 -0.0909,0.27544 -0.031,0.0928 -0.0629,0.18648 -0.0954,0.28106 -0.0325,0.0945 -0.0658,0.19 -0.0997,0.28626 -0.0339,0.0962 -0.0685,0.1933 -0.10374,0.29109 -0.0353,0.0978 3.2642,0.93905 5.78012,3.08217 -2.95656,-1.84185 -5.96134,-2.58752 -5.99901,-2.48702 -0.0377,0.10056 -0.0759,0.20163 -0.11474,0.30329 -0.0388,0.10166 -0.0781,0.20389 -0.118,0.3066 -0.0399,0.10275 -0.0802,0.2059 -0.12104,0.3095 -0.0408,0.10361 -0.0822,0.20766 -0.1239,0.31205 -0.0418,0.10443 -0.0839,0.20914 -0.12654,0.31419 -0.0426,0.10501 -0.0856,0.21039 -0.12898,0.31597 -0.0434,0.10554 4.29698,3.47349 5.84076,6.49927 -1.75306,-1.9834 -3.89135,-4.48997 -6.16926,-5.72119 -0.0453,0.10633 -0.16191,0.3894 -0.20772,0.4958 -0.0458,0.10636 -0.0918,0.21278 -0.1381,0.31905 -0.0462,0.10625 -0.0927,0.21249 -0.1393,0.31854 -0.0467,0.10606 -0.0934,0.21194 -0.14031,0.31762 -0.0469,0.10571 -0.094,0.21114 -0.14113,0.31632 -0.0472,0.10519 -0.0944,0.2101 -0.1417,0.31465 -0.0473,0.10457 -0.0947,0.20878 -0.14209,0.31259 -0.0474,0.10381 -0.0949,0.2072 -0.1423,0.31014 -0.0475,0.10297 -0.0949,0.20539 -0.14226,0.30732 -0.0474,0.10197 -0.0948,0.20331 -0.14205,0.30411 -0.0474,0.1008 -0.0945,0.20097 -0.14162,0.30051 -0.0471,0.0995 -0.0941,0.19839 -0.14098,0.29653 -0.0469,0.0981 -0.0936,0.19556 -0.14016,0.29218 -0.0466,0.0966 -0.0929,0.19247 -0.13912,0.28744 -0.0462,0.095 -0.0921,0.18911 -0.13787,0.28233 -0.0457,0.0932 -0.0912,0.18549 -0.13642,0.2768 -0.0452,0.0913 -0.0901,0.18164 -0.13476,0.27092 -0.0447,0.0892 -0.0889,0.17751 -0.1329,0.26465 -0.0439,0.0872 -0.0876,0.17314 -0.13084,0.25799 -0.0433,0.0848 -0.0861,0.16851 -0.12858,0.25094 -0.0425,0.0824 -0.0845,0.16367 -0.12611,0.24353 -0.0416,0.0799 -0.0827,0.15851 -0.12342,0.23573 -0.0407,0.0773 -0.0808,0.15314 -0.12054,0.22755 -0.0397,0.0745 -0.0789,0.1474 -0.11746,0.21896 -0.0386,0.0714 -0.0767,0.14154 -0.11418,0.21002 -0.0375,0.0685 -0.0744,0.13537 -0.11066,0.20069 -0.0363,0.0653 -0.0719,0.129 -0.10696,0.19095 -0.0351,0.062 -0.0694,0.12224 -0.10308,0.18087 -0.0336,0.0585 -0.0667,0.11536 -0.099,0.17036 -0.0323,0.055 -0.0638,0.10818 -0.0947,0.15948 -0.0308,0.0514 -0.0608,0.10079 -0.0901,0.14822 -0.0292,0.0476 -0.0577,0.0931 -0.0854,0.13662 -0.0277,0.0436 -0.0545,0.0852 -0.0804,0.12467 -0.026,0.0395 -0.0511,0.0769 -0.0753,0.11225 -0.0242,0.0353 -0.0476,0.0684 -0.07,0.0994 0.19245,-0.65102 0.42707,-1.30745 0.69043,-1.96818 0.26336,-0.66071 0.55546,-1.32575 0.86291,-1.99401 0.30745,-0.66825 0.63024,-1.33974 0.95497,-2.01336 0.32472,-0.67361 0.65138,-1.34937 0.96656,-2.02618 0.0788,-0.16921 0.15688,-0.33847 0.23403,-0.50779 0.0771,-0.16933 0.15338,-0.33869 0.22848,-0.50809 0.0751,-0.1694 -3.61586,-1.26913 -6.27213,-1.71304 1.81459,-0.32603 5.89988,1.17911 6.48792,0.98561 0.30724,-0.63671 0.75225,-1.64488 0.96792,-2.32159 0.0837,-0.35525 0.21052,-0.48192 0.23578,-0.76593 -2.35894,-1.06566 -2.83362,-1.12862 -3.96889,-1.9932 -0.19369,-0.14758 -1.03646,-0.82807 -1.10371,-0.89457 0.19847,0.0216 1.15421,0.75318 1.56755,0.9697 0.86218,0.45166 2.37196,1.08528 3.62692,1.41191 0.0377,-0.16863 0.12968,-0.58526 0.16111,-0.75361 0.0157,-0.0842 0.0306,-0.1683 0.0447,-0.25241 0.014,-0.0842 0.0273,-0.16818 0.0397,-0.25222 0.0124,-0.084 0.0238,-0.16797 0.0345,-0.25197 0.005,-0.0419 -0.94506,-0.57833 -1.62449,-1.47334 -0.67942,-0.895 -1.05267,-1.84375 -1.08348,-2.19058 0.22253,0.41932 0.42132,1.12798 1.10977,1.93909 0.68824,0.81113 1.64744,1.26364 1.65095,1.22175 0.007,-0.0837 0.0131,-0.16754 0.0181,-0.2512 0.005,-0.0837 0.0277,-0.16869 0.0123,-0.25092 -0.0205,-0.10869 0.12071,-1.72258 0.22604,-1.6951 0.0353,-0.50466 0.7046,-0.58849 0.80365,-0.21795 z"
         sodipodi:nodetypes="csscsssssscsssssssscsssssssccsssssssssssssssssssssssssssssssssscssssssccccscscssscscscssccc" />
    </g>
  </g>
</svg>
