<?xml version="1.0" encoding="UTF-8" standalone="no"?>
<svg
   xmlns:dc="http://purl.org/dc/elements/1.1/"
   xmlns:cc="http://creativecommons.org/ns#"
   xmlns:rdf="http://www.w3.org/1999/02/22-rdf-syntax-ns#"
   xmlns:svg="http://www.w3.org/2000/svg"
   xmlns="http://www.w3.org/2000/svg"
   xmlns:xlink="http://www.w3.org/1999/xlink"
   xmlns:sodipodi="http://sodipodi.sourceforge.net/DTD/sodipodi-0.dtd"
   xmlns:inkscape="http://www.inkscape.org/namespaces/inkscape"
   sodipodi:docname="Cheeseplant.svg"
   inkscape:version="1.0 (4035a4fb49, 2020-05-01)"
   id="svg1577"
   version="1.1"
   viewBox="0 0 75 75"
   height="75mm"
   width="75mm"
   inkscape:export-filename="C:\Program Files (x86)\Steam\steamapps\common\RimWorld\Mods\rimworldmod-houseplants\Textures\Things\Plant\Cheeseplant\Cheeseplant_a.png"
   inkscape:export-xdpi="96.136154"
   inkscape:export-ydpi="96.136154">
  <defs
     id="defs1571">
    <linearGradient
       inkscape:collect="always"
       id="linearGradient887">
      <stop
         style="stop-color:#002b11;stop-opacity:1;"
         offset="0"
         id="stop883" />
      <stop
         style="stop-color:#005522;stop-opacity:1"
         offset="1"
         id="stop885" />
    </linearGradient>
    <linearGradient
       inkscape:collect="always"
       id="linearGradient871">
      <stop
         style="stop-color:#2d5016;stop-opacity:1"
         offset="0"
         id="stop867" />
      <stop
         style="stop-color:#17280b;stop-opacity:1"
         offset="1"
         id="stop869" />
    </linearGradient>
    <linearGradient
       inkscape:collect="always"
       xlink:href="#linearGradient871"
       id="linearGradient873"
       x1="152.42061"
       y1="226.28935"
       x2="149.98613"
       y2="225.01639"
       gradientUnits="userSpaceOnUse"
       spreadMethod="reflect" />
    <linearGradient
       inkscape:collect="always"
       xlink:href="#linearGradient887"
       id="linearGradient889"
       x1="140.77922"
       y1="214.02603"
       x2="137.64636"
       y2="215.104"
       gradientUnits="userSpaceOnUse"
       spreadMethod="reflect" />
    <linearGradient
       gradientTransform="matrix(-1,0,0,0.80849034,294.1088,51.823013)"
       inkscape:collect="always"
       xlink:href="#linearGradient887"
       id="linearGradient889-5"
       x1="140.77922"
       y1="214.02603"
       x2="137.64636"
       y2="215.104"
       gradientUnits="userSpaceOnUse"
       spreadMethod="reflect" />
  </defs>
  <sodipodi:namedview
     inkscape:window-maximized="1"
     inkscape:window-y="-8"
     inkscape:window-x="-8"
     inkscape:window-height="1137"
     inkscape:window-width="1920"
     fit-margin-bottom="1"
     fit-margin-right="1"
     fit-margin-left="1"
     lock-margins="true"
     fit-margin-top="1"
     showgrid="false"
     inkscape:document-rotation="0"
     inkscape:current-layer="g3593"
     inkscape:document-units="mm"
     inkscape:cy="135.01531"
     inkscape:cx="133.49735"
     inkscape:zoom="2.8284271"
     inkscape:pageshadow="2"
     inkscape:pageopacity="0.0"
     borderopacity="1.0"
     bordercolor="#666666"
     pagecolor="#ffffff"
     id="base"
     showguides="true"
     inkscape:guide-bbox="true">
    <sodipodi:guide
       position="8.4416543,19.285081"
       orientation="0,-1"
       id="guide4666" />
    <sodipodi:guide
       position="46.559378,24.063244"
       orientation="1,0"
       id="guide4670" />
    <sodipodi:guide
       position="28.806382,39.485282"
       orientation="1,0"
       id="guide1211" />
  </sodipodi:namedview>
  <metadata
     id="metadata1574">
    <rdf:RDF>
      <cc:Work
         rdf:about="">
        <dc:format>image/svg+xml</dc:format>
        <dc:type
           rdf:resource="http://purl.org/dc/dcmitype/StillImage" />
        <dc:title />
      </cc:Work>
    </rdf:RDF>
  </metadata>
  <g
     transform="translate(-120.40113,-201.31166)"
     id="layer1"
     inkscape:groupmode="layer"
     inkscape:label="Layer 1">
    <g
       id="g3593"
       transform="matrix(-1,0,0,1,302.75893,0.52916667)">
      <path
         sodipodi:nodetypes="sscsssssssssssscscscssccscssss"
         d="m 117.40482,242.13872 c 0,0.9535 -5.70151,1.09603 -5.49571,1.99379 0.55931,2.43992 1.84468,4.77616 1.58635,8.10467 2.77024,-0.011 5.23852,1.04092 7.27085,1.8381 0.8965,0.35165 3.28463,-4.38516 4.26116,-4.20118 0.97653,0.18399 0.54233,5.28657 1.57794,5.28657 1.03561,0 2.04671,-0.0966 3.02324,-0.2806 0.97654,-0.18399 3.2176,0.0704 2.81586,-0.80479 -7.34578,-16.00276 1.75009,-0.77702 2.54815,-1.27343 0.79806,-0.49641 1.54145,-1.06168 2.22012,-1.68653 0.67866,-0.62486 2.54285,-1.47404 1.83176,-2.0441 -10.3417,-8.29068 1.44594,-1.3507 1.38309,-2.34611 -0.0573,-0.90741 0.67426,-1.69349 0.87409,-2.5926 0.19983,-0.89911 0.30477,-1.83004 0.30477,-2.78354 0,-0.9535 -0.10494,-1.88443 -0.30477,-2.78354 -0.19983,-0.89911 -6.99418,0.0637 -7.37373,-0.76245 -0.37955,-0.82621 5.65571,-3.44147 5.11655,-4.17626 -0.53916,-0.73479 -1.1531,-1.41924 -1.83177,-2.04409 -0.67866,-0.62486 -1.99818,-1.27002 -2.92767,-1.13084 -1.49951,0.22454 -5.0516,6.70927 -5.94895,6.35982 -0.89736,-0.34945 1.96286,-6.34935 1.05865,-8.15769 -0.44442,-0.8888 -1.75378,-1.11664 -2.78939,-1.11664 -1.03561,0 -2.04671,0.0966 -3.02324,0.28061 2.36604,10.64456 0.0386,6.57997 -2.81585,0.80478 -0.89735,0.34946 -1.75009,0.77702 -2.54815,1.27343 -0.79806,0.49641 -1.54145,1.06168 -2.22012,1.68653 8.2098,7.67177 7.41784,8.21509 -1.83176,2.04409 -0.75814,-0.5058 -1.00354,1.51991 -1.38309,2.34612 -0.37955,0.8262 -0.67426,1.69349 -0.87409,2.59259 -0.19983,0.89911 5.49571,2.61979 5.49571,3.57329 z"
         style="opacity:1;fill:none;fill-opacity:1;stroke:#000000;stroke-width:1.5;stroke-linecap:square;stroke-miterlimit:4;stroke-dasharray:none;paint-order:markers fill stroke"
         id="path1795-0" />
      <path
         id="path1814-5"
         style="opacity:1;fill:none;fill-opacity:1;stroke:#000000;stroke-width:1.5;stroke-linecap:square;stroke-miterlimit:4;stroke-dasharray:none;paint-order:markers fill stroke"
         d="m 173.96465,243.47894 c 0,1.12312 5.11927,1.291 4.93448,2.34847 -0.50219,2.87395 -1.6563,5.62579 -1.42434,9.54642 -2.48734,-0.0129 -4.70356,1.22608 -6.52835,2.16508 -0.80495,0.4142 -1.35911,-3.52806 -2.23592,-3.31135 -0.8768,0.21673 -2.07704,4.58981 -3.00688,4.58981 -0.92986,0 -1.8377,-0.11375 -2.71451,-0.33052 -0.87682,-0.21672 -2.88902,0.0829 -2.5283,-0.94794 6.59562,-18.8495 -1.57137,-0.91526 -2.28793,-1.49996 -0.71656,-0.58472 -1.38404,-1.25056 -1.9934,-1.98656 -0.60935,-0.73602 -2.2394,-1.73426 -1.6447,-2.40772 4.16037,-4.71138 -1.58824,-1.29688 -1.24185,-2.76347 0.23702,-1.00351 -0.6054,-1.99473 -0.78482,-3.05379 -0.17943,-1.05905 -0.27365,-2.15559 -0.27365,-3.2787 0,-1.12312 0.0942,-2.21966 0.27365,-3.27871 0.17942,-1.05906 6.27993,0.075 6.62071,-0.89808 0.34079,-0.97318 -5.07814,-4.05367 -4.59404,-4.91918 0.4841,-0.8655 1.03535,-1.6717 1.64471,-2.40772 0.60935,-0.736 1.79413,-1.49594 2.62869,-1.332 1.34638,0.26448 4.53572,7.90278 5.34143,7.49117 0.80573,-0.41161 -1.7624,-7.47883 -0.95054,-9.60887 0.39905,-1.0469 1.57469,-1.31527 2.50455,-1.31527 0.92984,0 1.83769,0.11376 2.7145,0.33052 -2.12443,12.53812 -0.0347,7.75049 2.52829,0.94795 0.80571,0.41162 1.57136,0.91524 2.28793,1.49996 0.71656,0.58471 1.38403,1.25054 1.99339,1.98654 -7.3714,9.03652 -6.66031,9.67648 1.6447,2.40772 0.68072,-0.59578 0.90106,1.79029 1.24185,2.76347 0.3408,0.97318 0.6054,1.99475 0.78483,3.05379 0.17942,1.05905 -4.93448,3.08583 -4.93448,4.20894 z"
         sodipodi:nodetypes="sscsssssssssssscscscssccscssss" />
      <path
         id="path1849-3"
         style="opacity:1;fill:none;fill-opacity:1;stroke:#000000;stroke-width:1.5;stroke-linecap:square;stroke-miterlimit:4;stroke-dasharray:none;paint-order:markers fill stroke"
         d="m 153.36062,235.93061 c -0.33586,0.89239 4.95003,3.03409 4.44118,3.80182 -1.3829,2.08653 -3.40881,3.82028 -4.33948,7.02645 -2.58882,-0.98609 -5.26944,-0.87102 -7.45231,-0.84081 -0.96291,0.0133 -1.52947,-5.26109 -2.50822,-5.43288 -0.97875,-0.17177 -2.36973,4.75672 -3.33896,4.39194 -0.96924,-0.36479 -1.88151,-0.81136 -2.73064,-1.32753 -0.84916,-0.51615 -2.95624,-0.99532 -2.35191,-1.74508 5.81725,-7.21711 -1.82255,-0.98955 -1.93628,-2.08938 -0.0967,-0.93487 -1.06869,-1.5366 -1.48376,-2.36046 -0.41507,-0.82386 -1.88697,-2.37438 -0.99434,-2.55831 20.17477,-4.15698 -0.40386,-1.77599 -0.46805,-2.68293 -0.0642,-0.90695 -0.0345,-1.82246 0.0951,-2.73433 0.12969,-0.91188 0.35938,-1.8201 0.69525,-2.7125 0.33586,-0.89239 0.76199,-1.72668 1.26572,-2.49778 0.5037,-0.77111 6.52347,2.52326 7.1697,1.88376 0.64625,-0.63957 -4.081,-5.21308 -3.31757,-5.71087 0.76342,-0.49778 1.57912,-0.92211 2.43438,-1.26785 0.85528,-0.34576 2.31747,-0.48478 3.13837,-0.0271 1.32431,0.73835 2.36455,8.05866 3.32748,8.04768 0.96293,-0.011 0.39945,-6.63381 1.88268,-8.00775 0.72901,-0.6753 2.03471,-0.42732 3.00394,-0.0625 0.96924,0.36478 1.88151,0.81135 2.73063,1.32754 -5.96386,9.12891 -2.35387,6.14465 2.35191,1.74506 0.71674,0.64315 1.36422,1.34367 1.93628,2.08938 0.57205,0.74571 1.06869,1.5366 1.48376,2.36046 -10.38595,4.28824 -9.83613,5.0757 0.99434,2.55831 0.88772,-0.20634 0.40385,1.77598 0.46805,2.68293 0.0642,0.90695 0.0345,1.82245 -0.0951,2.73432 -0.12969,0.91188 -6.06629,0.51607 -6.40215,1.40846 z"
         sodipodi:nodetypes="sscsssssssssssscscscssccscsssss" />
      <path
         sodipodi:nodetypes="ccccccccccccccccsscccccscccsccccccc"
         inkscape:transform-center-y="7.2091367"
         inkscape:transform-center-x="9.1289066"
         d="m 128.74413,235.20009 c 0.6233,-0.7648 1.61623,-1.5089 2.31644,-1.71048 0.14777,-0.0417 0.29512,-0.0888 0.44701,-0.11119 0.19774,-0.0294 0.39825,-0.0419 0.59814,-0.0432 0.52105,-0.003 0.47343,0.38591 0.98909,0.47054 0.83803,0.20162 1.64552,0.53125 2.38924,0.96736 0.42654,0.2501 0.63913,0.41444 1.03686,0.69796 1.01957,0.79283 1.90142,1.74537 2.69495,2.76111 0.19423,0.24861 0.37796,0.50524 0.56693,0.75786 0.54324,0.76273 1.06012,1.54676 1.5295,2.35744 0.48047,0.82986 0.9078,1.68712 1.33114,2.54686 0.55627,1.15567 1.07791,2.33132 1.72268,3.4419 0.0978,0.16838 0.20281,0.33244 0.30422,0.49865 0.31861,0.4845 0.6692,0.9552 1.09878,1.34819 0.18913,0.17304 0.30963,0.25314 0.51461,0.40353 0.43415,0.28379 0.8992,0.51782 1.36991,0.73434 0.60072,0.27687 0.20918,1.12643 -0.39155,0.84955 v 0 c -0.52814,-0.24385 -1.05021,-0.50689 -1.53403,-0.83136 -0.25985,-0.19292 -0.37833,-0.27043 -0.6199,-0.4941 -0.48193,-0.44621 -0.87882,-0.97557 -1.23672,-1.5235 -0.10779,-0.17724 -0.21938,-0.35224 -0.32342,-0.5317 -0.65176,-1.12414 -1.18194,-2.3125 -1.74386,-3.48237 -0.41081,-0.83488 -0.82497,-1.668 -1.29113,-2.47396 -0.45411,-0.78513 -0.95411,-1.5446 -1.47954,-2.28348 -0.18057,-0.24188 -0.3561,-0.4876 -0.54172,-0.72562 -0.74182,-0.95126 -1.56355,-1.84606 -2.5146,-2.59217 -0.35094,-0.25126 -0.56318,-0.41452 -0.93701,-0.63573 -0.65391,-0.38694 -1.36434,-0.68174 -2.10052,-0.86828 -0.18014,-0.0311 -0.35899,-0.0711 -0.54043,-0.0935 -0.25418,-0.0314 -0.66896,-0.0538 -0.93239,-0.0175 -0.13265,0.0183 -0.26122,0.0596 -0.39028,0.0953 -0.32406,0.0898 -0.39606,0.12513 -0.702,0.24183 -0.28726,0.14472 -1.04644,0.91231 -1.21577,1.20525 -0.30737,0.5857 -1.03632,-0.12593 -0.41463,-0.95953 z"
         id="path1853"
         style="opacity:1;fill:#2ca02c;fill-opacity:1;stroke:none;stroke-width:1.5;stroke-linecap:square;stroke-miterlimit:4;stroke-dasharray:none;stroke-dashoffset:0;paint-order:markers fill stroke" />
      <path
         style="opacity:1;fill:#241c1c;fill-opacity:1;stroke:#000000;stroke-width:1.5;stroke-linecap:square;stroke-miterlimit:4;stroke-dasharray:none;stroke-dashoffset:0;paint-order:markers fill stroke"
         id="path1855"
         d="m 145.28526,251.20557 c -3.7e-4,-0.46275 -0.008,-0.92541 0.0133,-1.38802 0.0609,-0.56863 0.19378,-1.13392 0.33212,-1.69739 0.0922,-0.39122 0.18862,-0.78202 0.27249,-1.17398 0.10667,-0.36732 0.18079,-0.73746 0.25814,-1.10728 0.0927,-0.33096 0.16913,-0.66306 0.20425,-0.99805 0.0737,-0.35946 0.0968,-0.72135 0.14693,-1.08196 0.0486,-0.28835 0.0915,-0.57697 0.112,-0.86656 0.0117,-0.21795 0.0117,-0.43604 0.0117,-0.65408 -4.4e-4,-0.2226 -0.001,-0.4452 -0.002,-0.6678 -4.3e-4,-0.16987 -8.8e-4,-0.33974 -8.8e-4,-0.50961 -2.8e-4,-0.18287 -4.3e-4,-0.36574 -8.8e-4,-0.5486 -4e-5,-0.0279 -9e-5,-0.0558 -1.2e-4,-0.0836 -0.002,-1.05353 2.47772,-1.0549 2.47934,-0.001 v 0 c 5e-5,0.0279 8e-5,0.0558 1.3e-4,0.0836 2.6e-4,0.18283 4.3e-4,0.36565 8.8e-4,0.54848 2.8e-4,0.1695 4.3e-4,0.339 8.8e-4,0.50851 4.4e-4,0.22339 0.001,0.44679 0.002,0.67018 6e-5,0.23974 1.1e-4,0.47955 -0.015,0.71917 -0.0228,0.31023 -0.0657,0.6196 -0.11865,0.92849 -0.0513,0.35035 -0.0677,0.70254 -0.14311,1.05173 -0.0404,0.36475 -0.11432,0.72731 -0.21846,1.08756 -0.0779,0.37125 -0.1511,0.74302 -0.25907,1.11167 -0.0862,0.40095 -0.18438,0.8008 -0.27873,1.20104 -0.12414,0.50564 -0.24356,1.01274 -0.30656,1.52258 -0.0223,0.44787 -0.0117,0.89588 -0.0117,1.34392 0.002,1.05352 -2.47772,1.05491 -2.47935,0.001 z" />
      <path
         sodipodi:nodetypes="csscsssssscsssssssscsssssssccsssssssssssssssssssssssssssssssssscssssssccccscscssscscscssccc"
         d="m 129.53169,235.35773 c -0.0187,0.0469 -0.74546,1.52662 -0.76776,1.57611 -0.0223,0.0495 -0.0464,0.10019 -0.0722,0.15215 -0.0258,0.052 3.5527,-0.81393 4.26789,-1.28837 -0.39322,0.52552 -4.41069,1.55784 -4.44319,1.61453 -0.0326,0.0567 -0.0667,0.11453 -0.10248,0.17344 -0.0357,0.0589 -0.0731,0.11892 -0.11191,0.17996 -0.0388,0.061 -0.0792,0.12313 -0.12102,0.1862 -0.0418,0.0631 -0.0851,0.12714 -0.12979,0.19214 -0.0447,0.065 -0.0908,0.13097 -0.13825,0.19781 -0.0474,0.0669 4.20629,1.09544 6.54101,2.42799 -5.12398,-1.85143 -6.7889,-2.08677 -6.84155,-2.01652 -0.0526,0.0702 -0.10655,0.14128 -0.16164,0.21308 -0.0551,0.0718 -0.11138,0.14434 -0.1688,0.2176 -0.0574,0.0733 -0.11597,0.14721 -0.17561,0.22183 -0.0596,0.0746 -0.12036,0.14989 -0.18211,0.22577 -0.0617,0.0759 -0.12452,0.15238 -0.18827,0.22944 -0.0637,0.077 -0.12848,0.15467 -0.19412,0.23281 -0.0656,0.0781 -0.1322,0.15678 -0.19963,0.23589 -0.0674,0.0791 2.72422,2.02865 4.32399,4.92063 -2.11829,-2.76523 -4.66783,-4.52152 -4.73849,-4.44073 -0.0707,0.0808 -0.1421,0.16196 -0.21422,0.24344 -0.0721,0.0815 -0.14496,0.1633 -0.21843,0.24538 -0.0735,0.0821 -0.1476,0.16445 -0.22231,0.24703 -0.0747,0.0826 -0.15003,0.16541 -0.22587,0.24841 -0.0759,0.083 -0.15223,0.16617 -0.2291,0.24948 -0.0769,0.0833 -0.15423,0.16675 -0.23201,0.25028 -0.0778,0.0835 2.79807,4.76446 3.1771,8.14009 -0.94207,-2.47378 -2.06039,-5.57289 -3.75862,-7.52759 -0.0799,0.0836 -0.2887,0.30742 -0.36905,0.39086 -0.0803,0.0834 -0.16091,0.16679 -0.24163,0.24997 -0.0807,0.0832 -0.1616,0.16622 -0.24258,0.24905 -0.081,0.0828 -0.16206,0.16546 -0.2432,0.24784 -0.0811,0.0824 -0.16231,0.16451 -0.24349,0.24634 -0.0812,0.0818 -0.16234,0.16338 -0.24346,0.24457 -0.0811,0.0812 -0.16216,0.16204 -0.24309,0.2425 -0.0809,0.0805 -0.16176,0.16052 -0.24242,0.24014 -0.0807,0.0796 -0.16114,0.15881 -0.2414,0.23751 -0.0803,0.0787 -0.1603,0.1569 -0.24006,0.23458 -0.0798,0.0777 -0.15925,0.15481 -0.2384,0.23137 -0.0791,0.0765 -0.15797,0.15253 -0.2364,0.22787 -0.0784,0.0753 -0.15649,0.15005 -0.23409,0.22408 -0.0776,0.074 -0.15478,0.14739 -0.23145,0.22002 -0.0767,0.0726 -0.15285,0.14453 -0.22848,0.21566 -0.0756,0.0711 -0.1507,0.14148 -0.22518,0.21101 -0.0745,0.0695 -0.14834,0.13825 -0.22155,0.20609 -0.0732,0.0678 -0.14577,0.13481 -0.21761,0.20087 -0.0718,0.0661 -0.14297,0.13119 -0.21333,0.19537 -0.0704,0.0642 -0.13996,0.12738 -0.20873,0.18957 -0.0688,0.0622 -0.13673,0.12338 -0.20381,0.18351 -0.0671,0.0601 -0.13327,0.11919 -0.19854,0.17714 -0.0653,0.058 -0.12961,0.11481 -0.19297,0.1705 -0.0634,0.0557 -0.12573,0.11023 -0.18706,0.16356 -0.0613,0.0533 -0.12163,0.10546 -0.18083,0.15634 -0.0592,0.0509 -0.1173,0.10051 -0.17426,0.14884 -0.057,0.0483 -0.11277,0.0954 -0.16738,0.14104 -0.0546,0.0457 -0.10802,0.09 -0.16017,0.13297 -0.0521,0.0429 -0.10304,0.0845 -0.15263,0.1246 -0.0496,0.0401 -0.0978,0.0788 -0.14476,0.11595 -0.0469,0.0372 -0.0924,0.0729 -0.13657,0.10701 -0.0441,0.0342 -0.0868,0.0668 -0.12805,0.0978 -0.0412,0.031 -0.081,0.0605 -0.11921,0.0883 -0.0382,0.0278 -0.0749,0.054 -0.11004,0.0785 -0.0351,0.0245 -0.0686,0.0473 -0.10054,0.0684 0.40944,-0.54151 0.86024,-1.07322 1.33946,-1.59883 0.47921,-0.52561 0.98685,-1.04513 1.50998,-1.56226 0.52313,-0.51713 1.06176,-1.03188 1.60295,-1.54794 0.54118,-0.51606 1.08494,-1.03345 1.61832,-1.55586 0.13335,-0.13061 0.26605,-0.26152 0.3979,-0.39281 0.13185,-0.1313 0.26285,-0.26296 0.3928,-0.39505 0.12995,-0.13209 -2.93707,-2.46145 -5.26674,-3.81255 1.81314,0.33403 5.10642,3.18172 5.72493,3.20776 0.51183,-0.48769 1.28343,-1.27449 1.72365,-1.83186 0.20346,-0.303 0.36678,-0.37688 0.49046,-0.63378 -1.83238,-1.82828 -2.25445,-2.05441 -3.01242,-3.26347 -0.12935,-0.20634 -0.67835,-1.14008 -0.71787,-1.22601 0.17815,0.0901 0.81493,1.11147 1.12551,1.45971 0.64783,0.7264 1.83766,1.85123 2.89713,2.59897 0.0947,-0.14453 0.32753,-0.50207 0.41624,-0.64856 0.0444,-0.0733 0.0879,-0.14674 0.13074,-0.2205 0.0428,-0.0738 0.0848,-0.14777 0.12598,-0.22206 0.0412,-0.0743 0.0815,-0.14881 0.12107,-0.22366 0.0197,-0.0374 -0.68078,-0.87416 -1.0014,-1.95113 -0.32062,-1.07697 -0.33548,-2.09642 -0.24243,-2.43183 0.0606,0.47082 -0.003,1.20409 0.35584,2.20567 0.35842,1.00158 1.09675,1.76296 1.11479,1.72499 0.036,-0.0759 0.0712,-0.15219 0.10543,-0.22872 0.0342,-0.0765 0.0854,-0.1481 0.0999,-0.2305 0.0191,-0.10894 0.71975,-1.56966 0.80865,-1.50684 0.21084,-0.45987 0.86673,-0.30258 0.82891,0.0791 z"
         style="opacity:1;fill:#2ca02c;fill-opacity:1;stroke:none;stroke-width:1.5;stroke-linecap:square;stroke-miterlimit:4;stroke-dasharray:none;stroke-dashoffset:0;paint-order:markers fill stroke"
         id="path1859" />
      <path
         style="opacity:1;fill:#2ca02c;fill-opacity:1;stroke:none;stroke-width:1.5;stroke-linecap:square;stroke-miterlimit:4;stroke-dasharray:none;stroke-dashoffset:0;paint-order:markers fill stroke"
         id="path1861"
         d="m 163.80286,235.23515 c -0.6233,-0.7648 -1.61623,-1.5089 -2.31644,-1.71048 -0.14777,-0.0417 -0.29512,-0.0888 -0.44701,-0.11119 -0.19774,-0.0294 -0.39825,-0.0419 -0.59814,-0.0432 -0.52105,-0.003 -0.47343,0.38591 -0.98909,0.47054 -0.83803,0.20162 -1.64552,0.53125 -2.38924,0.96736 -0.42654,0.2501 -0.63913,0.41444 -1.03686,0.69796 -1.01957,0.79283 -1.90142,1.74537 -2.69495,2.76111 -0.19423,0.24861 -0.37796,0.50524 -0.56693,0.75786 -0.54324,0.76273 -1.06012,1.54676 -1.5295,2.35744 -0.48047,0.82986 -0.9078,1.68712 -1.33114,2.54686 -0.55627,1.15567 -1.07791,2.33132 -1.72268,3.4419 -0.0978,0.16838 -0.20281,0.33244 -0.30422,0.49865 -0.31861,0.4845 -0.6692,0.9552 -1.09878,1.34819 -0.18913,0.17304 -0.30963,0.25314 -0.51461,0.40353 -0.43415,0.28379 -0.8992,0.51782 -1.36991,0.73434 -0.60072,0.27687 -0.20918,1.12643 0.39155,0.84955 v 0 c 0.52814,-0.24385 1.05021,-0.50689 1.53403,-0.83136 0.25985,-0.19292 0.37833,-0.27043 0.6199,-0.4941 0.48193,-0.44621 0.87882,-0.97557 1.23672,-1.5235 0.10779,-0.17724 0.21938,-0.35224 0.32342,-0.5317 0.65176,-1.12414 1.18194,-2.3125 1.74386,-3.48237 0.41081,-0.83488 0.82497,-1.668 1.29113,-2.47396 0.45411,-0.78513 0.95411,-1.5446 1.47954,-2.28348 0.18057,-0.24188 0.3561,-0.4876 0.54172,-0.72562 0.74182,-0.95126 1.56355,-1.84606 2.5146,-2.59217 0.35094,-0.25126 0.56318,-0.41452 0.93701,-0.63573 0.65391,-0.38694 1.36434,-0.68174 2.10052,-0.86828 0.18014,-0.0311 0.35899,-0.0711 0.54043,-0.0935 0.25418,-0.0314 0.66896,-0.0538 0.93239,-0.0175 0.13265,0.0183 0.26122,0.0596 0.39028,0.0953 0.32406,0.0898 0.39606,0.12513 0.702,0.24183 0.28726,0.14472 1.04644,0.91231 1.21577,1.20525 0.30737,0.5857 1.03632,-0.12593 0.41463,-0.95953 z"
         inkscape:transform-center-x="-9.128915"
         inkscape:transform-center-y="7.2091367"
         sodipodi:nodetypes="ccccccccccccccccsscccccscccsccccccc" />
      <path
         id="path1865"
         style="opacity:1;fill:#2ca02c;fill-opacity:1;stroke:none;stroke-width:1.5;stroke-linecap:square;stroke-miterlimit:4;stroke-dasharray:none;stroke-dashoffset:0;paint-order:markers fill stroke"
         d="m 163.13806,235.50185 c 0.0168,0.0553 0.66933,1.7982 0.68935,1.85649 0.0201,0.0583 0.0417,0.11798 0.0649,0.17922 0.0232,0.0613 -3.18989,-0.95872 -3.83204,-1.51756 0.35306,0.61901 3.96027,1.83496 3.98944,1.90174 0.0293,0.0668 0.0599,0.1349 0.092,0.2043 0.0321,0.0694 0.0656,0.14007 0.10043,0.21196 0.0348,0.0719 0.0712,0.14504 0.10866,0.21932 0.0375,0.0743 0.0764,0.14977 0.11654,0.22632 0.0401,0.0766 0.0816,0.15428 0.12413,0.23301 0.0425,0.0788 -3.77674,1.29031 -5.87303,2.85991 4.60071,-2.18079 6.0956,-2.45799 6.14288,-2.37525 0.0472,0.0828 0.0957,0.16642 0.14514,0.25099 0.0495,0.0846 0.1,0.17002 0.15155,0.25631 0.0515,0.0864 0.10412,0.1734 0.15768,0.26129 0.0535,0.0878 0.10803,0.17656 0.16351,0.26593 0.0554,0.0894 0.11181,0.17949 0.16905,0.27026 0.0572,0.0907 0.11536,0.18218 0.1743,0.27422 0.0589,0.092 0.1187,0.18468 0.17924,0.27785 0.0605,0.0931 -2.44603,2.38953 -3.88242,5.79596 1.90197,-3.25713 4.19115,-5.32585 4.25459,-5.23068 0.0634,0.0952 0.12759,0.19077 0.19234,0.28674 0.0648,0.096 0.13016,0.19235 0.19612,0.28903 0.0661,0.0967 0.13253,0.19371 0.19961,0.29097 0.067,0.0974 0.13471,0.19484 0.20281,0.29261 0.0681,0.0977 0.13669,0.19573 0.2057,0.29385 0.0691,0.0981 0.13848,0.19641 0.20831,0.2948 0.0698,0.0983 -2.51232,5.61202 -2.85264,9.58814 0.84586,-2.91384 1.84997,-6.56425 3.37478,-8.86667 0.0718,0.0984 0.25922,0.3621 0.33136,0.46038 0.0721,0.0982 0.14448,0.19647 0.21696,0.29444 0.0725,0.098 0.1451,0.19579 0.2178,0.29336 0.0728,0.0975 0.14551,0.19489 0.21837,0.29193 0.0728,0.0971 0.14574,0.19377 0.21863,0.29016 0.0729,0.0964 0.14576,0.19244 0.21859,0.28807 0.0728,0.0957 0.1456,0.19086 0.21827,0.28565 0.0727,0.0948 0.14524,0.18906 0.21766,0.28286 0.0725,0.0937 0.14469,0.18705 0.21675,0.27975 0.0721,0.0926 0.14393,0.18481 0.21555,0.27631 0.0717,0.0916 0.14298,0.18235 0.21405,0.27253 0.071,0.0901 0.14184,0.17967 0.21226,0.2684 0.0704,0.0887 0.1405,0.17674 0.21018,0.26395 0.0696,0.0871 0.13898,0.1736 0.20781,0.25915 0.0689,0.0855 0.13725,0.17024 0.20516,0.25403 0.0679,0.0837 0.1353,0.16664 0.20218,0.24854 0.0669,0.0819 0.13319,0.16284 0.19892,0.24276 0.0657,0.0799 0.13088,0.15879 0.19538,0.2366 0.0644,0.0778 0.12838,0.15453 0.19156,0.23012 0.0632,0.0756 0.12566,0.15004 0.18741,0.2233 0.0618,0.0732 0.12277,0.14533 0.183,0.21615 0.0602,0.0708 0.11965,0.14039 0.17826,0.20865 0.0587,0.0683 0.11638,0.13524 0.17326,0.20084 0.0569,0.0656 0.11289,0.12984 0.16796,0.19265 0.055,0.0627 0.10921,0.12422 0.16237,0.18415 0.0531,0.06 0.10531,0.11834 0.15646,0.17532 0.0512,0.0569 0.10131,0.11243 0.15029,0.16613 0.049,0.0538 0.097,0.10603 0.14381,0.15663 0.0467,0.0505 0.0925,0.0995 0.13704,0.14676 0.0446,0.0472 0.0879,0.0928 0.12998,0.13658 0.0421,0.0438 0.083,0.0859 0.12262,0.12604 0.0396,0.0403 0.078,0.0787 0.11498,0.1152 0.037,0.0366 0.0727,0.0713 0.10705,0.10399 0.0343,0.0327 0.0673,0.0636 0.0988,0.0925 0.0315,0.0288 0.0616,0.0557 0.0902,0.0806 -0.36763,-0.63783 -0.77239,-1.26413 -1.20267,-1.88324 -0.43028,-0.61911 -0.88608,-1.23105 -1.35579,-1.84017 -0.4697,-0.60912 -0.95333,-1.21544 -1.43925,-1.8233 -0.48591,-0.60786 -0.97414,-1.2173 -1.45305,-1.83263 -0.11974,-0.15385 -0.23888,-0.30805 -0.35727,-0.46269 -0.11838,-0.15466 -0.23601,-0.30974 -0.35268,-0.46533 -0.11669,-0.15559 2.63712,-2.89932 4.72889,-4.49076 -1.62798,0.39344 -4.58495,3.74771 -5.1403,3.77839 -0.45956,-0.57446 -1.15236,-1.50122 -1.54763,-2.15774 -0.18268,-0.3569 -0.32932,-0.44392 -0.44036,-0.74652 1.64525,-2.15351 2.02421,-2.41987 2.70478,-3.84401 0.11614,-0.24304 0.60907,-1.34288 0.64456,-1.44411 -0.15996,0.10616 -0.73171,1.30919 -1.01058,1.71938 -0.58167,0.85562 -1.64999,2.18055 -2.60127,3.06131 -0.085,-0.17025 -0.29408,-0.59139 -0.37372,-0.76394 -0.0399,-0.0864 -0.079,-0.17285 -0.11739,-0.25972 -0.0384,-0.087 -0.0761,-0.17405 -0.11312,-0.26156 -0.037,-0.0876 -0.0732,-0.17528 -0.10871,-0.26345 -0.0177,-0.044 0.61126,-1.02966 0.89914,-2.29822 0.28787,-1.26855 0.30122,-2.46936 0.21767,-2.86443 -0.0544,0.55457 0.002,1.41829 -0.3195,2.59804 -0.32182,1.17976 -0.98475,2.07658 -1.00095,2.03185 -0.0323,-0.0894 -0.0639,-0.17926 -0.0947,-0.26941 -0.0307,-0.0901 -0.0767,-0.17444 -0.0897,-0.2715 -0.0171,-0.12832 -0.64625,-1.84889 -0.72607,-1.77489 -0.18931,-0.54168 -0.77822,-0.35641 -0.74426,0.0931 z"
         sodipodi:nodetypes="csscsssssscsssssssscsssssssccsssssssssssssssssssssssssssssssssscssssssccccscscssscscscssccc" />
      <path
         id="path1869"
         style="opacity:1;fill:#2ca02c;fill-opacity:1;stroke:none;stroke-width:1.5;stroke-linecap:square;stroke-miterlimit:4;stroke-dasharray:none;stroke-dashoffset:0;paint-order:markers fill stroke"
         d="m 144.44248,226.37878 c 9.7e-4,0.0505 0.15994,1.69136 0.16338,1.74552 0.003,0.0542 0.008,0.11009 0.014,0.16786 0.006,0.0578 -3.0383,-2.01317 -3.54055,-2.70913 0.18291,0.63035 3.57927,3.01163 3.58972,3.07614 0.0105,0.0645 0.0221,0.1307 0.0348,0.19842 0.0126,0.0677 0.0265,0.13705 0.0413,0.20785 0.0148,0.0708 0.0308,0.14314 0.0477,0.21689 0.0169,0.0738 0.0349,0.14896 0.0538,0.22554 0.0189,0.0766 0.0388,0.15456 0.0597,0.23383 0.0207,0.0793 -4.32256,-0.4564 -6.97703,-0.0316 5.44773,0.0721 7.08884,0.43831 7.11337,0.5226 0.0245,0.0842 0.05,0.16975 0.0762,0.25636 0.0262,0.0866 0.0534,0.17433 0.0813,0.26312 0.028,0.0888 0.0567,0.17862 0.0862,0.26947 0.0295,0.0908 0.0598,0.18267 0.0909,0.27544 0.031,0.0928 0.0629,0.18648 0.0954,0.28106 0.0325,0.0945 0.0658,0.19 0.0997,0.28626 0.0339,0.0962 0.0685,0.1933 0.10374,0.29109 0.0353,0.0978 -3.2642,0.93905 -5.78012,3.08217 2.95656,-1.84185 5.96134,-2.58752 5.99901,-2.48702 0.0377,0.10056 0.0759,0.20163 0.11474,0.30329 0.0388,0.10166 0.0781,0.20389 0.118,0.3066 0.0399,0.10275 0.0802,0.2059 0.12104,0.3095 0.0408,0.10361 0.0822,0.20766 0.1239,0.31205 0.0418,0.10443 0.0839,0.20914 0.12654,0.31419 0.0426,0.10501 0.0856,0.21039 0.12898,0.31597 0.0434,0.10554 -4.29698,3.47349 -5.84076,6.49927 1.75306,-1.9834 3.89135,-4.48997 6.16926,-5.72119 0.0453,0.10633 0.16191,0.3894 0.20772,0.4958 0.0458,0.10636 0.0918,0.21278 0.1381,0.31905 0.0462,0.10625 0.0927,0.21249 0.1393,0.31854 0.0467,0.10606 0.0934,0.21194 0.14031,0.31762 0.0469,0.10571 0.094,0.21114 0.14113,0.31632 0.0472,0.10519 0.0944,0.2101 0.1417,0.31465 0.0473,0.10457 0.0947,0.20878 0.14209,0.31259 0.0474,0.10381 0.0949,0.2072 0.1423,0.31014 0.0475,0.10297 0.0949,0.20539 0.14226,0.30732 0.0474,0.10197 0.0948,0.20331 0.14205,0.30411 0.0474,0.1008 0.0945,0.20097 0.14162,0.30051 0.0471,0.0995 0.0941,0.19839 0.14098,0.29653 0.0469,0.0981 0.0936,0.19556 0.14016,0.29218 0.0466,0.0966 0.0929,0.19247 0.13912,0.28744 0.0462,0.095 0.0921,0.18911 0.13787,0.28233 0.0457,0.0932 0.0912,0.18549 0.13642,0.2768 0.0452,0.0913 0.0901,0.18164 0.13476,0.27092 0.0447,0.0892 0.0889,0.17751 0.1329,0.26465 0.0439,0.0872 0.0876,0.17314 0.13084,0.25799 0.0433,0.0848 0.0861,0.16851 0.12858,0.25094 0.0425,0.0824 0.0845,0.16367 0.12611,0.24353 0.0416,0.0799 0.0827,0.15851 0.12342,0.23573 0.0407,0.0773 0.0808,0.15314 0.12054,0.22755 0.0397,0.0745 0.0789,0.1474 0.11746,0.21896 0.0386,0.0714 0.0767,0.14154 0.11418,0.21002 0.0375,0.0685 0.0744,0.13537 0.11066,0.20069 0.0363,0.0653 0.0719,0.129 0.10696,0.19095 0.0351,0.062 0.0694,0.12224 0.10308,0.18087 0.0336,0.0585 0.0667,0.11536 0.099,0.17036 0.0323,0.055 0.0638,0.10818 0.0947,0.15948 0.0308,0.0514 0.0608,0.10079 0.0901,0.14822 0.0292,0.0476 0.0577,0.0931 0.0854,0.13662 0.0277,0.0436 0.0545,0.0852 0.0804,0.12467 0.026,0.0395 0.0511,0.0769 0.0753,0.11225 0.0242,0.0353 0.0476,0.0684 0.07,0.0994 -0.19245,-0.65102 -0.42707,-1.30745 -0.69043,-1.96818 -0.26336,-0.66071 -0.55546,-1.32575 -0.86291,-1.99401 -0.30745,-0.66825 -0.63024,-1.33974 -0.95497,-2.01336 -0.32472,-0.67361 -0.65138,-1.34937 -0.96656,-2.02618 -0.0788,-0.16921 -0.15688,-0.33847 -0.23403,-0.50779 -0.0771,-0.16933 -0.15338,-0.33869 -0.22848,-0.50809 -0.0751,-0.1694 3.61586,-1.26913 6.27213,-1.71304 -1.81459,-0.32603 -5.89988,1.17911 -6.48792,0.98561 -0.30724,-0.63671 -0.75225,-1.64488 -0.96792,-2.32159 -0.0837,-0.35525 -0.21052,-0.48192 -0.23578,-0.76593 2.35894,-1.06566 2.83362,-1.12862 3.96889,-1.9932 0.19369,-0.14758 1.03646,-0.82807 1.10371,-0.89457 -0.19847,0.0216 -1.15421,0.75318 -1.56755,0.9697 -0.86218,0.45166 -2.37196,1.08528 -3.62692,1.41191 -0.0377,-0.16863 -0.12968,-0.58526 -0.16111,-0.75361 -0.0157,-0.0842 -0.0306,-0.1683 -0.0447,-0.25241 -0.014,-0.0842 -0.0273,-0.16818 -0.0397,-0.25222 -0.0124,-0.084 -0.0238,-0.16797 -0.0345,-0.25197 -0.005,-0.0419 0.94506,-0.57833 1.62449,-1.47334 0.67942,-0.895 1.05267,-1.84375 1.08348,-2.19058 -0.22253,0.41932 -0.42132,1.12798 -1.10977,1.93909 -0.68824,0.81113 -1.64744,1.26364 -1.65095,1.22175 -0.007,-0.0837 -0.0131,-0.16754 -0.0181,-0.2512 -0.005,-0.0837 -0.0277,-0.16869 -0.0123,-0.25092 0.0205,-0.10869 -0.12071,-1.72258 -0.22604,-1.6951 -0.0353,-0.50466 -0.7046,-0.58849 -0.80365,-0.21795 z"
         sodipodi:nodetypes="csscsssssscsssssssscsssssssccsssssssssssssssssssssssssssssssssscssssssccccscscssscscscssccc" />
      <path
         style="opacity:1;fill:#2ca02c;fill-opacity:1;stroke:none;stroke-width:1.5;stroke-linecap:square;stroke-miterlimit:4;stroke-dasharray:none;paint-order:markers fill stroke"
         id="path1810"
         d="m 128.74413,235.20009 c 0.6233,-0.7648 1.61623,-1.5089 2.31644,-1.71048 0.14777,-0.0417 0.29512,-0.0888 0.44701,-0.11119 0.19774,-0.0294 0.39825,-0.0419 0.59814,-0.0432 0.52105,-0.003 0.47343,0.38591 0.98909,0.47054 0.83803,0.20162 1.64552,0.53125 2.38924,0.96736 0.42654,0.2501 0.63913,0.41444 1.03686,0.69796 1.01957,0.79283 1.90142,1.74537 2.69495,2.76111 0.19423,0.24861 0.37796,0.50524 0.56693,0.75786 0.54324,0.76273 1.06012,1.54676 1.5295,2.35744 0.48047,0.82986 0.9078,1.68712 1.33114,2.54686 0.55627,1.15567 1.07791,2.33132 1.72268,3.4419 0.0978,0.16838 0.20281,0.33244 0.30422,0.49865 0.31861,0.4845 0.6692,0.9552 1.09878,1.34819 0.18913,0.17304 0.30963,0.25314 0.51461,0.40353 0.43415,0.28379 0.8992,0.51782 1.36991,0.73434 0.60072,0.27687 0.20918,1.12643 -0.39155,0.84955 v 0 c -0.52814,-0.24385 -1.05021,-0.50689 -1.53403,-0.83136 -0.25985,-0.19292 -0.37833,-0.27043 -0.6199,-0.4941 -0.48193,-0.44621 -0.87882,-0.97557 -1.23672,-1.5235 -0.10779,-0.17724 -0.21938,-0.35224 -0.32342,-0.5317 -0.65176,-1.12414 -1.18194,-2.3125 -1.74386,-3.48237 -0.41081,-0.83488 -0.82497,-1.668 -1.29113,-2.47396 -0.45411,-0.78513 -0.95411,-1.5446 -1.47954,-2.28348 -0.18057,-0.24188 -0.3561,-0.4876 -0.54172,-0.72562 -0.74182,-0.95126 -1.56355,-1.84606 -2.5146,-2.59217 -0.35094,-0.25126 -0.56318,-0.41452 -0.93701,-0.63573 -0.65391,-0.38694 -1.36434,-0.68174 -2.10052,-0.86828 -0.18014,-0.0311 -0.35899,-0.0711 -0.54043,-0.0935 -0.25418,-0.0314 -0.66896,-0.0538 -0.93239,-0.0175 -0.13265,0.0183 -0.26122,0.0596 -0.39028,0.0953 -0.32406,0.0898 -0.39606,0.12513 -0.702,0.24183 -0.28726,0.14472 -1.04644,0.91231 -1.21577,1.20525 -0.30737,0.5857 -1.03632,-0.12593 -0.41463,-0.95953 z"
         inkscape:transform-center-x="9.1289066"
         inkscape:transform-center-y="7.2091367"
         sodipodi:nodetypes="ccccccccccccccccsscccccscccsccccccc" />
      <path
         d="m 145.28526,251.20557 c -3.7e-4,-0.46275 -0.008,-0.92541 0.0133,-1.38802 0.0609,-0.56863 0.19378,-1.13392 0.33212,-1.69739 0.0922,-0.39122 0.18862,-0.78202 0.27249,-1.17398 0.10667,-0.36732 0.18079,-0.73746 0.25814,-1.10728 0.0927,-0.33096 0.16913,-0.66306 0.20425,-0.99805 0.0737,-0.35946 0.0968,-0.72135 0.14693,-1.08196 0.0486,-0.28835 0.0915,-0.57697 0.112,-0.86656 0.0117,-0.21795 0.0117,-0.43604 0.0117,-0.65408 -4.4e-4,-0.2226 -0.001,-0.4452 -0.002,-0.6678 -4.3e-4,-0.16987 -8.8e-4,-0.33974 -8.8e-4,-0.50961 -2.8e-4,-0.18287 -4.3e-4,-0.36574 -8.8e-4,-0.5486 -4e-5,-0.0279 -9e-5,-0.0558 -1.2e-4,-0.0836 -0.002,-1.05353 2.47772,-1.0549 2.47934,-0.001 v 0 c 5e-5,0.0279 8e-5,0.0558 1.3e-4,0.0836 2.6e-4,0.18283 4.3e-4,0.36565 8.8e-4,0.54848 2.8e-4,0.1695 4.3e-4,0.339 8.8e-4,0.50851 4.4e-4,0.22339 0.001,0.44679 0.002,0.67018 6e-5,0.23974 1.1e-4,0.47955 -0.015,0.71917 -0.0228,0.31023 -0.0657,0.6196 -0.11865,0.92849 -0.0513,0.35035 -0.0677,0.70254 -0.14311,1.05173 -0.0404,0.36475 -0.11432,0.72731 -0.21846,1.08756 -0.0779,0.37125 -0.1511,0.74302 -0.25907,1.11167 -0.0862,0.40095 -0.18438,0.8008 -0.27873,1.20104 -0.12414,0.50564 -0.24356,1.01274 -0.30656,1.52258 -0.0223,0.44787 -0.0117,0.89588 -0.0117,1.34392 0.002,1.05352 -2.47772,1.05491 -2.47935,0.001 z"
         id="path1515"
         style="opacity:1;fill:#241c1c;fill-opacity:1;stroke:#000000;stroke-width:0.515997;stroke-linecap:square;stroke-miterlimit:4;stroke-dasharray:none;paint-order:markers fill stroke" />
      <path
         d="m 126.63825,227.48009 c -1.03561,0 -2.04706,0.0966 -3.02359,0.2806 2.36604,10.64456 0.0386,6.57979 -2.81585,0.8046 -0.89735,0.34946 -1.7501,0.77741 -2.54816,1.27382 -0.79806,0.49641 -1.54135,1.06136 -2.22002,1.68621 8.2098,7.67177 7.41767,8.21532 -1.83193,2.04432 -0.75814,-0.5058 -1.00331,1.5199 -1.38286,2.34611 -0.37955,0.8262 -0.67454,1.6935 -0.87437,2.5926 -0.19983,0.89911 5.49579,2.61941 5.49579,3.57291 0,0.9535 -5.70159,1.09643 -5.49579,1.99419 0.55931,2.43992 1.8448,4.77591 1.58647,8.10442 2.77024,-0.011 5.23854,1.04095 7.27087,1.83813 0.8965,0.35165 3.28471,-4.38528 4.26124,-4.20129 0.97653,0.18399 0.54259,5.28649 1.5782,5.28649 1.03561,0 2.04654,-0.0966 3.02307,-0.2806 0.97654,-0.18399 3.21759,0.0706 2.81585,-0.8046 -7.34578,-16.00276 1.7501,-0.7769 2.54817,-1.27331 0.79806,-0.49641 1.54135,-1.06187 2.22001,-1.68672 0.67866,-0.62486 2.54764,-1.47956 1.83193,-2.0438 -10.54051,-8.30983 1.25338,-1.4222 1.38287,-2.34611 0.1262,-0.90042 0.67453,-1.6935 0.87436,-2.59261 0.19983,-0.89911 0.30438,-1.8303 0.30438,-2.7838 0,-0.95351 -0.10455,-1.88419 -0.30438,-2.7833 -0.19983,-0.89911 -6.99416,0.0634 -7.37371,-0.76274 -0.37955,-0.82621 5.65564,-3.44118 5.11648,-4.17597 -0.53916,-0.7348 -1.15326,-1.41947 -1.83193,-2.04432 -0.67865,-0.62487 -1.99797,-1.26986 -2.92746,-1.13068 -1.49951,0.22454 -5.05165,6.70926 -5.949,6.35981 -0.89736,-0.34944 1.96255,-6.3493 1.05834,-8.15764 -0.44442,-0.8888 -1.75337,-1.11672 -2.78898,-1.11672 z m -2.03863,7.40523 a 1.1692541,0.49122689 67.277513 0 1 0.81855,0.92759 1.1692541,0.49122689 67.277513 0 1 -0.004,1.24282 l -0.0687,0.0186 a 1.1692541,0.49122689 67.277513 0 1 -0.88264,-1.0051 1.1692541,0.49122689 67.277513 0 1 0.0677,-1.17668 1.1692541,0.49122689 67.277513 0 1 0.0692,-0.007 z m 4.65811,5.44049 a 2.6740416,0.59715804 35.738773 0 1 0.0119,0 2.6740416,0.59715804 35.738773 0 1 2.04742,0.95653 2.6740416,0.59715804 35.738773 0 1 2.12701,2.14096 l -0.0212,0.0899 a 2.6740416,0.59715804 35.738773 0 1 -2.40554,-0.98237 2.6740416,0.59715804 35.738773 0 1 -1.96474,-2.081 2.6740416,0.59715804 35.738773 0 1 0.20516,-0.12403 z m -4.54443,6.10816 a 0.51437211,1.005654 0 0 1 0.0181,0 0.51437211,1.005654 0 0 1 0.50333,0.99012 l -0.004,0.14417 a 0.51437211,1.005654 0 0 1 -0.55758,0.8723 0.51437211,1.005654 0 0 1 -0.46613,-1.05833 0.51437211,1.005654 0 0 1 0.50643,-0.94826 z"
         style="opacity:1;fill:#165016;fill-opacity:1;stroke:#000000;stroke-width:0.499999;stroke-linecap:square;stroke-miterlimit:4;stroke-dasharray:none;paint-order:markers fill stroke"
         id="path1795" />
      <path
         id="path1798"
         style="opacity:1;fill:#2ca02c;fill-opacity:1;stroke:none;stroke-width:1.5;stroke-linecap:square;stroke-miterlimit:4;stroke-dasharray:none;paint-order:markers fill stroke"
         d="m 129.53169,235.35773 c -0.0187,0.0469 -0.74546,1.52662 -0.76776,1.57611 -0.0223,0.0495 -0.0464,0.10019 -0.0722,0.15215 -0.0258,0.052 3.5527,-0.81393 4.26789,-1.28837 -0.39322,0.52552 -4.41069,1.55784 -4.44319,1.61453 -0.0326,0.0567 -0.0667,0.11453 -0.10248,0.17344 -0.0357,0.0589 -0.0731,0.11892 -0.11191,0.17996 -0.0388,0.061 -0.0792,0.12313 -0.12102,0.1862 -0.0418,0.0631 -0.0851,0.12714 -0.12979,0.19214 -0.0447,0.065 -0.0908,0.13097 -0.13825,0.19781 -0.0474,0.0669 4.20629,1.09544 6.54101,2.42799 -5.12398,-1.85143 -6.7889,-2.08677 -6.84155,-2.01652 -0.0526,0.0702 -0.10655,0.14128 -0.16164,0.21308 -0.0551,0.0718 -0.11138,0.14434 -0.1688,0.2176 -0.0574,0.0733 -0.11597,0.14721 -0.17561,0.22183 -0.0596,0.0746 -0.12036,0.14989 -0.18211,0.22577 -0.0617,0.0759 -0.12452,0.15238 -0.18827,0.22944 -0.0637,0.077 -0.12848,0.15467 -0.19412,0.23281 -0.0656,0.0781 -0.1322,0.15678 -0.19963,0.23589 -0.0674,0.0791 2.72422,2.02865 4.32399,4.92063 -2.11829,-2.76523 -4.66783,-4.52152 -4.73849,-4.44073 -0.0707,0.0808 -0.1421,0.16196 -0.21422,0.24344 -0.0721,0.0815 -0.14496,0.1633 -0.21843,0.24538 -0.0735,0.0821 -0.1476,0.16445 -0.22231,0.24703 -0.0747,0.0826 -0.15003,0.16541 -0.22587,0.24841 -0.0759,0.083 -0.15223,0.16617 -0.2291,0.24948 -0.0769,0.0833 -0.15423,0.16675 -0.23201,0.25028 -0.0778,0.0835 2.79807,4.76446 3.1771,8.14009 -0.94207,-2.47378 -2.06039,-5.57289 -3.75862,-7.52759 -0.0799,0.0836 -0.2887,0.30742 -0.36905,0.39086 -0.0803,0.0834 -0.16091,0.16679 -0.24163,0.24997 -0.0807,0.0832 -0.1616,0.16622 -0.24258,0.24905 -0.081,0.0828 -0.16206,0.16546 -0.2432,0.24784 -0.0811,0.0824 -0.16231,0.16451 -0.24349,0.24634 -0.0812,0.0818 -0.16234,0.16338 -0.24346,0.24457 -0.0811,0.0812 -0.16216,0.16204 -0.24309,0.2425 -0.0809,0.0805 -0.16176,0.16052 -0.24242,0.24014 -0.0807,0.0796 -0.16114,0.15881 -0.2414,0.23751 -0.0803,0.0787 -0.1603,0.1569 -0.24006,0.23458 -0.0798,0.0777 -0.15925,0.15481 -0.2384,0.23137 -0.0791,0.0765 -0.15797,0.15253 -0.2364,0.22787 -0.0784,0.0753 -0.15649,0.15005 -0.23409,0.22408 -0.0776,0.074 -0.15478,0.14739 -0.23145,0.22002 -0.0767,0.0726 -0.15285,0.14453 -0.22848,0.21566 -0.0756,0.0711 -0.1507,0.14148 -0.22518,0.21101 -0.0745,0.0695 -0.14834,0.13825 -0.22155,0.20609 -0.0732,0.0678 -0.14577,0.13481 -0.21761,0.20087 -0.0718,0.0661 -0.14297,0.13119 -0.21333,0.19537 -0.0704,0.0642 -0.13996,0.12738 -0.20873,0.18957 -0.0688,0.0622 -0.13673,0.12338 -0.20381,0.18351 -0.0671,0.0601 -0.13327,0.11919 -0.19854,0.17714 -0.0653,0.058 -0.12961,0.11481 -0.19297,0.1705 -0.0634,0.0557 -0.12573,0.11023 -0.18706,0.16356 -0.0613,0.0533 -0.12163,0.10546 -0.18083,0.15634 -0.0592,0.0509 -0.1173,0.10051 -0.17426,0.14884 -0.057,0.0483 -0.11277,0.0954 -0.16738,0.14104 -0.0546,0.0457 -0.10802,0.09 -0.16017,0.13297 -0.0521,0.0429 -0.10304,0.0845 -0.15263,0.1246 -0.0496,0.0401 -0.0978,0.0788 -0.14476,0.11595 -0.0469,0.0372 -0.0924,0.0729 -0.13657,0.10701 -0.0441,0.0342 -0.0868,0.0668 -0.12805,0.0978 -0.0412,0.031 -0.081,0.0605 -0.11921,0.0883 -0.0382,0.0278 -0.0749,0.054 -0.11004,0.0785 -0.0351,0.0245 -0.0686,0.0473 -0.10054,0.0684 0.40944,-0.54151 0.86024,-1.07322 1.33946,-1.59883 0.47921,-0.52561 0.98685,-1.04513 1.50998,-1.56226 0.52313,-0.51713 1.06176,-1.03188 1.60295,-1.54794 0.54118,-0.51606 1.08494,-1.03345 1.61832,-1.55586 0.13335,-0.13061 0.26605,-0.26152 0.3979,-0.39281 0.13185,-0.1313 0.26285,-0.26296 0.3928,-0.39505 0.12995,-0.13209 -2.93707,-2.46145 -5.26674,-3.81255 1.81314,0.33403 5.10642,3.18172 5.72493,3.20776 0.51183,-0.48769 1.28343,-1.27449 1.72365,-1.83186 0.20346,-0.303 0.36678,-0.37688 0.49046,-0.63378 -1.83238,-1.82828 -2.25445,-2.05441 -3.01242,-3.26347 -0.12935,-0.20634 -0.67835,-1.14008 -0.71787,-1.22601 0.17815,0.0901 0.81493,1.11147 1.12551,1.45971 0.64783,0.7264 1.83766,1.85123 2.89713,2.59897 0.0947,-0.14453 0.32753,-0.50207 0.41624,-0.64856 0.0444,-0.0733 0.0879,-0.14674 0.13074,-0.2205 0.0428,-0.0738 0.0848,-0.14777 0.12598,-0.22206 0.0412,-0.0743 0.0815,-0.14881 0.12107,-0.22366 0.0197,-0.0374 -0.68078,-0.87416 -1.0014,-1.95113 -0.32062,-1.07697 -0.33548,-2.09642 -0.24243,-2.43183 0.0606,0.47082 -0.003,1.20409 0.35584,2.20567 0.35842,1.00158 1.09675,1.76296 1.11479,1.72499 0.036,-0.0759 0.0712,-0.15219 0.10543,-0.22872 0.0342,-0.0765 0.0854,-0.1481 0.0999,-0.2305 0.0191,-0.10894 0.71975,-1.56966 0.80865,-1.50684 0.21084,-0.45987 0.86673,-0.30258 0.82891,0.0791 z"
         sodipodi:nodetypes="csscsssssscsssssssscsssssssccsssssssssssssssssssssssssssssssssscssssssccccscscssscscscssccc" />
      <path
         sodipodi:nodetypes="ccccccccccccccccsscccccscccsccccccc"
         inkscape:transform-center-y="7.2091367"
         inkscape:transform-center-x="-9.128915"
         d="m 163.80286,235.23515 c -0.6233,-0.7648 -1.61623,-1.5089 -2.31644,-1.71048 -0.14777,-0.0417 -0.29512,-0.0888 -0.44701,-0.11119 -0.19774,-0.0294 -0.39825,-0.0419 -0.59814,-0.0432 -0.52105,-0.003 -0.47343,0.38591 -0.98909,0.47054 -0.83803,0.20162 -1.64552,0.53125 -2.38924,0.96736 -0.42654,0.2501 -0.63913,0.41444 -1.03686,0.69796 -1.01957,0.79283 -1.90142,1.74537 -2.69495,2.76111 -0.19423,0.24861 -0.37796,0.50524 -0.56693,0.75786 -0.54324,0.76273 -1.06012,1.54676 -1.5295,2.35744 -0.48047,0.82986 -0.9078,1.68712 -1.33114,2.54686 -0.55627,1.15567 -1.07791,2.33132 -1.72268,3.4419 -0.0978,0.16838 -0.20281,0.33244 -0.30422,0.49865 -0.31861,0.4845 -0.6692,0.9552 -1.09878,1.34819 -0.18913,0.17304 -0.30963,0.25314 -0.51461,0.40353 -0.43415,0.28379 -0.8992,0.51782 -1.36991,0.73434 -0.60072,0.27687 -0.20918,1.12643 0.39155,0.84955 v 0 c 0.52814,-0.24385 1.05021,-0.50689 1.53403,-0.83136 0.25985,-0.19292 0.37833,-0.27043 0.6199,-0.4941 0.48193,-0.44621 0.87882,-0.97557 1.23672,-1.5235 0.10779,-0.17724 0.21938,-0.35224 0.32342,-0.5317 0.65176,-1.12414 1.18194,-2.3125 1.74386,-3.48237 0.41081,-0.83488 0.82497,-1.668 1.29113,-2.47396 0.45411,-0.78513 0.95411,-1.5446 1.47954,-2.28348 0.18057,-0.24188 0.3561,-0.4876 0.54172,-0.72562 0.74182,-0.95126 1.56355,-1.84606 2.5146,-2.59217 0.35094,-0.25126 0.56318,-0.41452 0.93701,-0.63573 0.65391,-0.38694 1.36434,-0.68174 2.10052,-0.86828 0.18014,-0.0311 0.35899,-0.0711 0.54043,-0.0935 0.25418,-0.0314 0.66896,-0.0538 0.93239,-0.0175 0.13265,0.0183 0.26122,0.0596 0.39028,0.0953 0.32406,0.0898 0.39606,0.12513 0.702,0.24183 0.28726,0.14472 1.04644,0.91231 1.21577,1.20525 0.30737,0.5857 1.03632,-0.12593 0.41463,-0.95953 z"
         id="path1810-9"
         style="opacity:1;fill:#2ca02c;fill-opacity:1;stroke:none;stroke-width:1.5;stroke-linecap:square;stroke-miterlimit:4;stroke-dasharray:none;paint-order:markers fill stroke" />
      <path
         d="m 165.73612,226.2228 c -0.92986,0 -2.10519,0.26826 -2.50424,1.31516 -0.81186,2.13004 1.75606,9.19762 0.95033,9.60924 -0.80571,0.41161 -3.9949,-7.22706 -5.34128,-7.49154 -0.83455,-0.16394 -2.01942,0.59622 -2.62877,1.33222 -0.60937,0.73602 -1.16076,1.54211 -1.64487,2.40761 -0.4841,0.86551 4.93483,3.94589 4.59404,4.91908 -0.34078,0.97308 -6.44136,-0.16093 -6.62079,0.89813 -0.17944,1.05905 -0.27336,2.15575 -0.27336,3.27887 0,1.12311 0.0939,2.21982 0.27336,3.27887 0.17943,1.05906 0.44418,2.08038 0.78497,3.05356 0.34079,0.97318 5.00654,-1.62487 1.24178,2.76366 -0.58499,0.68192 1.03552,1.67158 1.64487,2.4076 0.60936,0.736 1.2766,1.40172 1.99316,1.98644 0.71656,0.5847 8.88385,-17.34933 2.28823,1.50017 -0.36072,1.03084 1.65119,0.73103 2.52801,0.94775 0.87681,0.21677 1.7847,0.33073 2.71456,0.33073 0.92984,0 2.08323,-4.27964 2.96003,-4.49637 0.87681,-0.21671 1.47811,3.63209 2.28306,3.21789 1.82479,-0.939 4.04095,-2.17814 6.52829,-2.16524 -0.23196,-3.92063 0.92201,-6.67224 1.4242,-9.54619 0.18479,-1.05747 -4.93458,-1.22557 -4.93458,-2.34869 0,-1.12311 5.114,-3.15 4.93458,-4.20905 -0.17943,-1.05904 -0.44417,-2.08038 -0.78497,-3.05356 -0.34078,-0.97318 -0.56106,-3.35943 -1.24178,-2.76365 -8.30501,7.26876 -9.01574,6.62891 -1.64434,-2.40761 -0.60936,-0.736 -1.27712,-1.40173 -1.99368,-1.98644 -0.71657,-0.58472 -1.48201,-1.08855 -2.28772,-1.50017 -2.56299,6.80254 -4.65295,11.59038 -2.52852,-0.94774 -0.87681,-0.21676 -1.78473,-0.33073 -2.71457,-0.33073 z m -2.95796,15.85794 c 0.0581,5.3e-4 0.10959,0.009 0.154,0.0253 0.58459,0.2163 -0.14125,1.73484 -1.62109,3.39153 -1.47989,1.65674 -3.15325,2.82407 -3.73724,2.60708 -0.58392,-0.21677 0.1418,-1.73483 1.62109,-3.39101 1.34966,-1.51102 2.88511,-2.63925 3.58324,-2.63292 z m 5.68544,6.50917 a 0.49095281,1.5201455 0 0 1 0.0119,0 0.49095281,1.5201455 0 0 1 0.49093,1.5198 0.49095281,1.5201455 0 0 1 -0.49093,1.52032 0.49095281,1.5201455 0 0 1 -0.49093,-1.52032 0.49095281,1.5201455 0 0 1 0.47904,-1.5198 z"
         style="opacity:1;fill:#165016;fill-opacity:1;stroke:#000000;stroke-width:0.499999;stroke-linecap:square;stroke-miterlimit:4;stroke-dasharray:none;paint-order:markers fill stroke"
         id="path1814" />
      <path
         sodipodi:nodetypes="csscsssssscsssssssscsssssssccsssssssssssssssssssssssssssssssssscssssssccccscscssscscscssccc"
         d="m 163.13806,235.50185 c 0.0168,0.0553 0.66933,1.7982 0.68935,1.85649 0.0201,0.0583 0.0417,0.11798 0.0649,0.17922 0.0232,0.0613 -3.18989,-0.95872 -3.83204,-1.51756 0.35306,0.61901 3.96027,1.83496 3.98944,1.90174 0.0293,0.0668 0.0599,0.1349 0.092,0.2043 0.0321,0.0694 0.0656,0.14007 0.10043,0.21196 0.0348,0.0719 0.0712,0.14504 0.10866,0.21932 0.0375,0.0743 0.0764,0.14977 0.11654,0.22632 0.0401,0.0766 0.0816,0.15428 0.12413,0.23301 0.0425,0.0788 -3.77674,1.29031 -5.87303,2.85991 4.60071,-2.18079 6.0956,-2.45799 6.14288,-2.37525 0.0472,0.0828 0.0957,0.16642 0.14514,0.25099 0.0495,0.0846 0.1,0.17002 0.15155,0.25631 0.0515,0.0864 0.10412,0.1734 0.15768,0.26129 0.0535,0.0878 0.10803,0.17656 0.16351,0.26593 0.0554,0.0894 0.11181,0.17949 0.16905,0.27026 0.0572,0.0907 0.11536,0.18218 0.1743,0.27422 0.0589,0.092 0.1187,0.18468 0.17924,0.27785 0.0605,0.0931 -2.44603,2.38953 -3.88242,5.79596 1.90197,-3.25713 4.19115,-5.32585 4.25459,-5.23068 0.0634,0.0952 0.12759,0.19077 0.19234,0.28674 0.0648,0.096 0.13016,0.19235 0.19612,0.28903 0.0661,0.0967 0.13253,0.19371 0.19961,0.29097 0.067,0.0974 0.13471,0.19484 0.20281,0.29261 0.0681,0.0977 0.13669,0.19573 0.2057,0.29385 0.0691,0.0981 0.13848,0.19641 0.20831,0.2948 0.0698,0.0983 -2.51232,5.61202 -2.85264,9.58814 0.84586,-2.91384 1.84997,-6.56425 3.37478,-8.86667 0.0718,0.0984 0.25922,0.3621 0.33136,0.46038 0.0721,0.0982 0.14448,0.19647 0.21696,0.29444 0.0725,0.098 0.1451,0.19579 0.2178,0.29336 0.0728,0.0975 0.14551,0.19489 0.21837,0.29193 0.0728,0.0971 0.14574,0.19377 0.21863,0.29016 0.0729,0.0964 0.14576,0.19244 0.21859,0.28807 0.0728,0.0957 0.1456,0.19086 0.21827,0.28565 0.0727,0.0948 0.14524,0.18906 0.21766,0.28286 0.0725,0.0937 0.14469,0.18705 0.21675,0.27975 0.0721,0.0926 0.14393,0.18481 0.21555,0.27631 0.0717,0.0916 0.14298,0.18235 0.21405,0.27253 0.071,0.0901 0.14184,0.17967 0.21226,0.2684 0.0704,0.0887 0.1405,0.17674 0.21018,0.26395 0.0696,0.0871 0.13898,0.1736 0.20781,0.25915 0.0689,0.0855 0.13725,0.17024 0.20516,0.25403 0.0679,0.0837 0.1353,0.16664 0.20218,0.24854 0.0669,0.0819 0.13319,0.16284 0.19892,0.24276 0.0657,0.0799 0.13088,0.15879 0.19538,0.2366 0.0644,0.0778 0.12838,0.15453 0.19156,0.23012 0.0632,0.0756 0.12566,0.15004 0.18741,0.2233 0.0618,0.0732 0.12277,0.14533 0.183,0.21615 0.0602,0.0708 0.11965,0.14039 0.17826,0.20865 0.0587,0.0683 0.11638,0.13524 0.17326,0.20084 0.0569,0.0656 0.11289,0.12984 0.16796,0.19265 0.055,0.0627 0.10921,0.12422 0.16237,0.18415 0.0531,0.06 0.10531,0.11834 0.15646,0.17532 0.0512,0.0569 0.10131,0.11243 0.15029,0.16613 0.049,0.0538 0.097,0.10603 0.14381,0.15663 0.0467,0.0505 0.0925,0.0995 0.13704,0.14676 0.0446,0.0472 0.0879,0.0928 0.12998,0.13658 0.0421,0.0438 0.083,0.0859 0.12262,0.12604 0.0396,0.0403 0.078,0.0787 0.11498,0.1152 0.037,0.0366 0.0727,0.0713 0.10705,0.10399 0.0343,0.0327 0.0673,0.0636 0.0988,0.0925 0.0315,0.0288 0.0616,0.0557 0.0902,0.0806 -0.36763,-0.63783 -0.77239,-1.26413 -1.20267,-1.88324 -0.43028,-0.61911 -0.88608,-1.23105 -1.35579,-1.84017 -0.4697,-0.60912 -0.95333,-1.21544 -1.43925,-1.8233 -0.48591,-0.60786 -0.97414,-1.2173 -1.45305,-1.83263 -0.11974,-0.15385 -0.23888,-0.30805 -0.35727,-0.46269 -0.11838,-0.15466 -0.23601,-0.30974 -0.35268,-0.46533 -0.11669,-0.15559 2.63712,-2.89932 4.72889,-4.49076 -1.62798,0.39344 -4.58495,3.74771 -5.1403,3.77839 -0.45956,-0.57446 -1.15236,-1.50122 -1.54763,-2.15774 -0.18268,-0.3569 -0.32932,-0.44392 -0.44036,-0.74652 1.64525,-2.15351 2.02421,-2.41987 2.70478,-3.84401 0.11614,-0.24304 0.60907,-1.34288 0.64456,-1.44411 -0.15996,0.10616 -0.73171,1.30919 -1.01058,1.71938 -0.58167,0.85562 -1.64999,2.18055 -2.60127,3.06131 -0.085,-0.17025 -0.29408,-0.59139 -0.37372,-0.76394 -0.0399,-0.0864 -0.079,-0.17285 -0.11739,-0.25972 -0.0384,-0.087 -0.0761,-0.17405 -0.11312,-0.26156 -0.037,-0.0876 -0.0732,-0.17528 -0.10871,-0.26345 -0.0177,-0.044 0.61126,-1.02966 0.89914,-2.29822 0.28787,-1.26855 0.30122,-2.46936 0.21767,-2.86443 -0.0544,0.55457 0.002,1.41829 -0.3195,2.59804 -0.32182,1.17976 -0.98475,2.07658 -1.00095,2.03185 -0.0323,-0.0894 -0.0639,-0.17926 -0.0947,-0.26941 -0.0307,-0.0901 -0.0767,-0.17444 -0.0897,-0.2715 -0.0171,-0.12832 -0.64625,-1.84889 -0.72607,-1.77489 -0.18931,-0.54168 -0.77822,-0.35641 -0.74426,0.0931 z"
         style="opacity:1;fill:#2ca02c;fill-opacity:1;stroke:none;stroke-width:1.54259;stroke-linecap:square;stroke-miterlimit:4;stroke-dasharray:none;paint-order:markers fill stroke"
         id="path1816" />
      <path
         d="m 148.13306,218.60569 c -0.46324,0.01 -0.89234,0.12831 -1.21129,0.42375 -1.48323,1.37394 -0.92016,7.99678 -1.88309,8.00778 -0.96293,0.011 -2.00314,-7.30922 -3.32745,-8.04757 -0.8209,-0.45768 -2.28303,-0.31891 -3.13831,0.0269 -0.85526,0.34574 -1.67106,0.77036 -2.43447,1.26814 -0.76343,0.49779 3.96387,5.07119 3.31762,5.71076 -0.64623,0.6395 -6.66589,-2.65471 -7.16959,-1.8836 -0.50373,0.7711 -0.92969,1.60513 -1.26555,2.49752 -0.33587,0.8924 -0.56588,1.80061 -0.69557,2.71249 -0.1296,0.91187 -0.15926,1.82725 -0.0951,2.7342 0.0642,0.90694 20.64296,-1.47394 0.46819,2.68304 -0.89263,0.18393 0.57918,1.73464 0.99425,2.5585 0.41507,0.82386 1.3019,1.43846 1.48363,2.36058 0.20586,1.04456 7.62715,-4.73382 1.93632,2.08928 -0.6168,0.73953 1.50315,1.22896 2.35231,1.74511 0.84913,0.51617 1.76134,0.96278 2.73058,1.32757 0.96923,0.36478 2.36007,-4.56375 3.33882,-4.39198 0.97875,0.17179 1.54546,5.44605 2.50837,5.43274 2.18287,-0.0302 4.86344,-0.14531 7.45226,0.84078 0.93067,-3.20617 2.95637,-4.93991 4.33927,-7.02645 0.50885,-0.76772 -4.77693,-2.90944 -4.44107,-3.80183 0.33586,-0.89239 6.2725,-0.49631 6.40219,-1.40818 0.1296,-0.91188 0.15926,-1.82777 0.0951,-2.73472 -0.0642,-0.90695 0.41954,-2.88886 -0.46818,-2.68252 -10.83047,2.51739 -11.38021,1.72973 -0.99426,-2.5585 -0.41507,-0.82387 -0.91158,-1.61487 -1.48363,-2.36058 -0.57206,-0.7457 -1.21958,-1.44613 -1.93631,-2.08928 -4.70579,4.39959 -8.31566,7.3838 -2.3518,-1.74511 -0.84912,-0.51619 -1.76134,-0.96279 -2.73058,-1.32757 -0.54519,-0.20522 -1.19707,-0.37348 -1.79266,-0.36122 z m 0.7121,8.17263 a 0.5581478,0.93143749 52.597644 0 1 0.35916,0.14676 l 0.0429,0.0682 a 0.5581478,0.93143749 52.597644 0 1 -0.5085,0.99788 0.5581478,0.93143749 52.597644 0 1 -1.02681,0.046 0.5581478,0.93143749 52.597644 0 1 0.43408,-0.99477 0.5581478,0.93143749 52.597644 0 1 0.69918,-0.26407 z m 1.11777,7.64449 a 1.8707571,0.65508681 11.446063 0 1 0.97875,0.10749 1.8707571,0.65508681 11.446063 0 1 1.6676,0.99529 l -0.0336,0.0894 a 1.8707571,0.65508681 11.446063 0 1 -2.10065,0.15451 1.8707571,0.65508681 11.446063 0 1 -1.52446,-1.01234 1.8707571,0.65508681 11.446063 0 1 1.01235,-0.33435 z m -8.44858,0.62994 a 0.91238855,2.1746713 65.429515 0 1 5.1e-4,0 0.91238855,2.1746713 65.429515 0 1 0.77722,0.31006 l 0.0382,0.1266 a 0.91238855,2.1746713 65.429515 0 1 -1.8154,1.70016 0.91238855,2.1746713 65.429515 0 1 -2.19108,-0.0537 0.91238855,2.1746713 65.429515 0 1 1.65778,-1.70429 0.91238855,2.1746713 65.429515 0 1 1.53273,-0.37879 z"
         style="opacity:1;fill:#165016;fill-opacity:1;stroke:#000000;stroke-width:0.499999;stroke-linecap:square;stroke-miterlimit:4;stroke-dasharray:none;paint-order:markers fill stroke"
         id="path1849" />
      <path
         sodipodi:nodetypes="csscsssssscsssssssscsssssssccsssssssssssssssssssssssssssssssssscssssssccccscscssscscscssccc"
         d="m 144.44248,225.32044 c 9.7e-4,0.0505 0.15994,1.69136 0.16338,1.74552 0.003,0.0542 0.008,0.11009 0.014,0.16786 0.006,0.0578 -3.0383,-2.01317 -3.54055,-2.70913 0.18291,0.63035 3.57927,3.01163 3.58972,3.07614 0.0105,0.0645 0.0221,0.1307 0.0348,0.19842 0.0126,0.0677 0.0265,0.13705 0.0413,0.20785 0.0148,0.0708 0.0308,0.14314 0.0477,0.21689 0.0169,0.0738 0.0349,0.14896 0.0538,0.22554 0.0189,0.0766 0.0388,0.15456 0.0597,0.23383 0.0207,0.0793 -4.32256,-0.4564 -6.97703,-0.0316 5.44773,0.0721 7.08884,0.43831 7.11337,0.5226 0.0245,0.0842 0.05,0.16975 0.0762,0.25636 0.0262,0.0866 0.0534,0.17433 0.0813,0.26312 0.028,0.0888 0.0567,0.17862 0.0862,0.26947 0.0295,0.0908 0.0598,0.18267 0.0909,0.27544 0.031,0.0928 0.0629,0.18648 0.0954,0.28106 0.0325,0.0945 0.0658,0.19 0.0997,0.28626 0.0339,0.0962 0.0685,0.1933 0.10374,0.29109 0.0353,0.0978 -3.2642,0.93905 -5.78012,3.08217 2.95656,-1.84185 5.96134,-2.58752 5.99901,-2.48702 0.0377,0.10056 0.0759,0.20163 0.11474,0.30329 0.0388,0.10166 0.0781,0.20389 0.118,0.3066 0.0399,0.10275 0.0802,0.2059 0.12104,0.3095 0.0408,0.10361 0.0822,0.20766 0.1239,0.31205 0.0418,0.10443 0.0839,0.20914 0.12654,0.31419 0.0426,0.10501 0.0856,0.21039 0.12898,0.31597 0.0434,0.10554 -4.29698,3.47349 -5.84076,6.49927 1.75306,-1.9834 3.89135,-4.48997 6.16926,-5.72119 0.0453,0.10633 0.16191,0.3894 0.20772,0.4958 0.0458,0.10636 0.0918,0.21278 0.1381,0.31905 0.0462,0.10625 0.0927,0.21249 0.1393,0.31854 0.0467,0.10606 0.0934,0.21194 0.14031,0.31762 0.0469,0.10571 0.094,0.21114 0.14113,0.31632 0.0472,0.10519 0.0944,0.2101 0.1417,0.31465 0.0473,0.10457 0.0947,0.20878 0.14209,0.31259 0.0474,0.10381 0.0949,0.2072 0.1423,0.31014 0.0475,0.10297 0.0949,0.20539 0.14226,0.30732 0.0474,0.10197 0.0948,0.20331 0.14205,0.30411 0.0474,0.1008 0.0945,0.20097 0.14162,0.30051 0.0471,0.0995 0.0941,0.19839 0.14098,0.29653 0.0469,0.0981 0.0936,0.19556 0.14016,0.29218 0.0466,0.0966 0.0929,0.19247 0.13912,0.28744 0.0462,0.095 0.0921,0.18911 0.13787,0.28233 0.0457,0.0932 0.0912,0.18549 0.13642,0.2768 0.0452,0.0913 0.0901,0.18164 0.13476,0.27092 0.0447,0.0892 0.0889,0.17751 0.1329,0.26465 0.0439,0.0872 0.0876,0.17314 0.13084,0.25799 0.0433,0.0848 0.0861,0.16851 0.12858,0.25094 0.0425,0.0824 0.0845,0.16367 0.12611,0.24353 0.0416,0.0799 0.0827,0.15851 0.12342,0.23573 0.0407,0.0773 0.0808,0.15314 0.12054,0.22755 0.0397,0.0745 0.0789,0.1474 0.11746,0.21896 0.0386,0.0714 0.0767,0.14154 0.11418,0.21002 0.0375,0.0685 0.0744,0.13537 0.11066,0.20069 0.0363,0.0653 0.0719,0.129 0.10696,0.19095 0.0351,0.062 0.0694,0.12224 0.10308,0.18087 0.0336,0.0585 0.0667,0.11536 0.099,0.17036 0.0323,0.055 0.0638,0.10818 0.0947,0.15948 0.0308,0.0514 0.0608,0.10079 0.0901,0.14822 0.0292,0.0476 0.0577,0.0931 0.0854,0.13662 0.0277,0.0436 0.0545,0.0852 0.0804,0.12467 0.026,0.0395 0.0511,0.0769 0.0753,0.11225 0.0242,0.0353 0.0476,0.0684 0.07,0.0994 -0.19245,-0.65102 -0.42707,-1.30745 -0.69043,-1.96818 -0.26336,-0.66071 -0.55546,-1.32575 -0.86291,-1.99401 -0.30745,-0.66825 -0.63024,-1.33974 -0.95497,-2.01336 -0.32472,-0.67361 -0.65138,-1.34937 -0.96656,-2.02618 -0.0788,-0.16921 -0.15688,-0.33847 -0.23403,-0.50779 -0.0771,-0.16933 -0.15338,-0.33869 -0.22848,-0.50809 -0.0751,-0.1694 3.61586,-1.26913 6.27213,-1.71304 -1.81459,-0.32603 -5.89988,1.17911 -6.48792,0.98561 -0.30724,-0.63671 -0.75225,-1.64488 -0.96792,-2.32159 -0.0837,-0.35525 -0.21052,-0.48192 -0.23578,-0.76593 2.35894,-1.06566 2.83362,-1.12862 3.96889,-1.9932 0.19369,-0.14758 1.03646,-0.82807 1.10371,-0.89457 -0.19847,0.0216 -1.15421,0.75318 -1.56755,0.9697 -0.86218,0.45166 -2.37196,1.08528 -3.62692,1.41191 -0.0377,-0.16863 -0.12968,-0.58526 -0.16111,-0.75361 -0.0157,-0.0842 -0.0306,-0.1683 -0.0447,-0.25241 -0.014,-0.0842 -0.0273,-0.16818 -0.0397,-0.25222 -0.0124,-0.084 -0.0238,-0.16797 -0.0345,-0.25197 -0.005,-0.0419 0.94506,-0.57833 1.62449,-1.47334 0.67942,-0.895 1.05267,-1.84375 1.08348,-2.19058 -0.22253,0.41932 -0.42132,1.12798 -1.10977,1.93909 -0.68824,0.81113 -1.64744,1.26364 -1.65095,1.22175 -0.007,-0.0837 -0.0131,-0.16754 -0.0181,-0.2512 -0.005,-0.0837 -0.0277,-0.16869 -0.0123,-0.25092 0.0205,-0.10869 -0.12071,-1.72258 -0.22604,-1.6951 -0.0353,-0.50466 -0.7046,-0.58849 -0.80365,-0.21795 z"
         style="opacity:1;fill:#2ca02c;fill-opacity:1;stroke:none;stroke-width:1.5;stroke-linecap:square;stroke-miterlimit:4;stroke-dasharray:none;paint-order:markers fill stroke"
         id="path1851" />
    </g>
  </g>
</svg>
